<svg width="33" height="32" viewBox="0 0 33 32" fill="none" xmlns="http://www.w3.org/2000/svg">
<g clip-path="url(#clip0_17090_161)">
<path d="M16.7968 31.9999C25.6334 31.9999 32.7968 24.8365 32.7968 16C32.7968 7.16343 25.6334 0 16.7968 0C7.9603 0 0.796875 7.16343 0.796875 16C0.796875 24.8365 7.9603 31.9999 16.7968 31.9999Z" fill="#41B4E6"/>
<path d="M22.396 26.0599H11.1981C8.73446 26.0599 6.7373 24.0628 6.7373 21.5992V10.4012C6.7373 7.93759 8.7344 5.94043 11.1981 5.94043H22.3961C24.8597 5.94043 26.8568 7.93753 26.8568 10.4012V21.5992C26.8568 24.0628 24.8597 26.0599 22.396 26.0599Z" fill="#6E64C3"/>
<path d="M15.4025 14.214C15.5566 14.1007 15.6592 13.9307 15.6876 13.7414C15.716 13.5522 15.6676 13.3596 15.5533 13.2062L14.7956 12.1881C14.7067 12.0686 14.5733 11.9903 14.4257 11.9706C14.278 11.951 14.1286 11.9917 14.0116 12.0838C13.8719 12.1937 13.7155 12.3165 13.5675 12.4317C13.2032 12.7154 13.0657 13.2021 13.2269 13.6347C14.1163 16.0213 15.986 17.914 18.3571 18.8338C18.8448 19.023 19.3983 18.8273 19.6573 18.3729L19.9484 17.8619C20.0915 17.6109 20.0165 17.2919 19.7767 17.1308L18.8495 16.5078C18.6874 16.399 18.4881 16.3608 18.2972 16.402C18.1064 16.4431 17.9402 16.5601 17.8375 16.7262C17.8072 16.7752 17.7779 16.8228 17.7505 16.8671C17.7123 16.9291 17.6507 16.9729 17.5797 16.9888C17.5087 17.0046 17.4342 16.991 17.3734 16.9511C16.4844 16.369 15.7249 15.6082 15.1443 14.718C15.0656 14.5973 15.0958 14.4359 15.213 14.3519C15.2713 14.3099 15.3361 14.2627 15.4025 14.214Z" fill="white"/>
<path d="M20.2607 15.5282C20.1075 15.5282 19.9834 15.404 19.9834 15.2509C19.9834 13.4259 18.4987 11.9412 16.6737 11.9412C16.5206 11.9412 16.3965 11.817 16.3965 11.664C16.3965 11.5108 16.5207 11.3867 16.6737 11.3867C18.8044 11.3867 20.5379 13.1203 20.5379 15.2509C20.5379 15.404 20.4138 15.5282 20.2607 15.5282Z" fill="white"/>
<path d="M19.3918 15.5275C19.2387 15.5275 19.1146 15.4033 19.1146 15.2502C19.1146 13.9043 18.0196 12.8094 16.6737 12.8094C16.5206 12.8094 16.3965 12.6852 16.3965 12.5321C16.3965 12.379 16.5207 12.2549 16.6737 12.2549C18.3254 12.2549 19.6691 13.5986 19.6691 15.2503C19.669 15.4033 19.5449 15.5275 19.3918 15.5275Z" fill="white"/>
<path d="M18.5384 15.5286C18.3853 15.5286 18.2612 15.4044 18.2612 15.2513C18.2612 14.376 17.549 13.6639 16.6737 13.6639C16.5206 13.6639 16.3965 13.5397 16.3965 13.3866C16.3965 13.2335 16.5207 13.1094 16.6737 13.1094C17.8548 13.1094 18.8157 14.0703 18.8157 15.2514C18.8157 15.4045 18.6916 15.5286 18.5384 15.5286Z" fill="white"/>
<path d="M23.6834 13.8801C23.6834 11.1029 21.4321 8.85156 18.6549 8.85156H15.0947C12.2324 8.85156 9.91211 11.1718 9.91211 14.0341V16.2696C9.91211 18.4779 11.2938 20.3623 13.2394 21.1088V22.8647C13.2394 23.0727 13.3704 23.2614 13.5654 23.3342C13.622 23.3554 13.681 23.3655 13.7394 23.3655C13.8823 23.3655 14.0225 23.3046 14.1192 23.1931L15.6295 21.4522H18.6549C21.4321 21.4522 23.6835 19.2009 23.6835 16.4236V13.8801H23.6834ZM22.5128 16.4236C22.5128 18.5509 20.7821 20.2815 18.6549 20.2815H15.973L13.9065 22.6846C13.8795 22.7159 13.8358 22.7272 13.797 22.7129C13.7582 22.6985 13.7324 22.6615 13.7324 22.6201C13.7324 22.1081 13.7324 20.9581 13.7324 20.043C12.1889 19.484 11.0828 18.0037 11.0828 16.2696V14.0342C11.0828 11.822 12.8826 10.0223 15.0947 10.0223H18.655C20.7822 10.0223 22.5128 11.7529 22.5128 13.8801V16.4236H22.5128Z" fill="white"/>
</g>
<defs>
<clipPath id="clip0_17090_161">
<rect width="32" height="32" fill="white" transform="translate(0.796875)"/>
</clipPath>
</defs>
</svg>
