<svg width="33" height="32" viewBox="0 0 33 32" fill="none" xmlns="http://www.w3.org/2000/svg">
<g id="017-telegram" clip-path="url(#clip0_17090_171)">
<path id="Vector" d="M16.7967 31.9996C25.6331 31.9996 32.7965 24.8363 32.7965 15.9998C32.7965 7.16336 25.6331 0 16.7967 0C7.96023 0 0.796875 7.16336 0.796875 15.9998C0.796875 24.8363 7.96023 31.9996 16.7967 31.9996Z" fill="#41B4E6"/>
<path id="Vector_2" d="M15.2427 18.3312L22.4734 23.7904L26.1233 8.20996L7.46973 15.5474L13.1458 17.4275L23.5047 10.479L15.2427 18.3312Z" fill="white"/>
<path id="Vector_3" d="M13.1465 17.427L14.7011 23.021L15.2434 18.3308L23.5054 10.4785L13.1465 17.427Z" fill="#D2D2D7"/>
<path id="Vector_4" d="M17.5935 20.1053L14.7012 23.0213L15.2435 18.3311L17.5935 20.1053Z" fill="#B9B9BE"/>
</g>
<defs>
<clipPath id="clip0_17090_171">
<rect width="32" height="32" fill="white" transform="translate(0.796875)"/>
</clipPath>
</defs>
</svg>
