<svg width="25" height="24" viewBox="0 0 25 24" fill="none" xmlns="http://www.w3.org/2000/svg">
<g id="google">
<path id="Vector" d="M18 3.5L15.5 7.25C15 6.9842 14 6.49995 12.75 6.49995C9.75 6.49995 7.25 8.99995 7.25 11.75C7.25 14.5 9.25 17.5003 12.75 17.5003C15.55 17.5003 17.5 15.5002 17.5 14.0002H12.75V10.5001C16.25 10.5001 22.75 10.5 22.75 10.5C23 14.2501 21.8948 16.4502 20.5 18.25C18.4121 20.944 15.3356 22.0001 12.75 22.0001C7.75 22.0001 2.75 18.0003 2.75 11.75C2.75 5.75 8.11185 2 12.25 2C16.3882 2 18 3.5 18 3.5Z" fill="white"/>
</g>
</svg>
