<svg width="20" height="20" viewBox="0 0 20 20" fill="none" xmlns="http://www.w3.org/2000/svg">
<g clip-path="url(#clip0_17090_14670)">
<circle cx="10" cy="10" r="7.5" fill="#FDFDFE"/>
<path d="M12.9807 5.32092H7.01975C6.0683 5.32092 5.29422 6.095 5.29422 7.04645V13.0074C5.29422 13.9588 6.0683 14.7331 7.01975 14.7331H12.9807C13.9321 14.7331 14.7064 13.959 14.7064 13.0074V7.04645C14.7064 6.095 13.9323 5.32092 12.9807 5.32092ZM10.0002 13.1255C8.29184 13.1255 6.90188 11.7355 6.90188 10.0269C6.90188 8.31854 8.29184 6.92858 10.0002 6.92858C11.7088 6.92858 13.0988 8.31854 13.0988 10.0269C13.0988 11.7353 11.7086 13.1255 10.0002 13.1255ZM13.1984 7.56919C12.7939 7.56919 12.4651 7.24031 12.4651 6.83611C12.4651 6.43191 12.7939 6.10303 13.1984 6.10303C13.6026 6.10303 13.9314 6.43191 13.9314 6.83611C13.9314 7.24031 13.6026 7.56919 13.1984 7.56919Z" fill="url(#paint0_linear_17090_14670)"/>
<path d="M10.0002 8.23792C9.01396 8.23792 8.21091 9.04052 8.21091 10.0267C8.21091 11.0134 9.01396 11.8162 10.0002 11.8162C10.9868 11.8162 11.7892 11.0134 11.7892 10.0267C11.7892 9.04074 10.9866 8.23792 10.0002 8.23792Z" fill="#E84147"/>
<path d="M10 0C4.47737 0 0 4.47737 0 10C0 15.5226 4.47737 20 10 20C15.5226 20 20 15.5226 20 10C20 4.47737 15.5226 0 10 0ZM16.0153 13.0074C16.0153 14.681 14.6541 16.0422 12.9805 16.0422H7.01954C5.34615 16.0422 3.98471 14.681 3.98471 13.0074V7.0465C3.98471 5.37311 5.34615 4.01168 7.01954 4.01168H12.9805C14.6541 4.01168 16.0153 5.37311 16.0153 7.0465V13.0074Z" fill="url(#paint1_radial_17090_14670)"/>
</g>
<defs>
<linearGradient id="paint0_linear_17090_14670" x1="6.25044" y1="15" x2="14.1671" y2="4.99998" gradientUnits="userSpaceOnUse">
<stop stop-color="#E18129"/>
<stop offset="0.271436" stop-color="#F7591A"/>
<stop offset="0.953125" stop-color="#C106AF"/>
</linearGradient>
<radialGradient id="paint1_radial_17090_14670" cx="0" cy="0" r="1" gradientUnits="userSpaceOnUse" gradientTransform="translate(5.83333 17.0833) rotate(-48.8141) scale(17.7169)">
<stop stop-color="#F5DF82"/>
<stop offset="0.258556" stop-color="#DE7627"/>
<stop offset="0.489576" stop-color="#D50453"/>
<stop offset="0.716605" stop-color="#C301A5"/>
<stop offset="0.979167" stop-color="#3333E8"/>
</radialGradient>
<clipPath id="clip0_17090_14670">
<rect width="20" height="20" fill="white"/>
</clipPath>
</defs>
</svg>
