<svg width="20" height="20" viewBox="0 0 20 20" fill="none" xmlns="http://www.w3.org/2000/svg">
<g clip-path="url(#clip0_17090_14665)">
<path d="M10 20C15.5228 20 20 15.5228 20 10C20 4.47715 15.5228 0 10 0C4.47715 0 0 4.47715 0 10C0 15.5228 4.47715 20 10 20Z" fill="#4D76A1"/>
<path fill-rule="evenodd" clip-rule="evenodd" d="M9.62225 14.3859H10.4071C10.4071 14.3859 10.6442 14.3599 10.7653 14.2294C10.8767 14.1096 10.8731 13.8847 10.8731 13.8847C10.8731 13.8847 10.8578 12.8315 11.3466 12.6764C11.8284 12.5237 12.4471 13.6943 13.1029 14.1444C13.5989 14.485 13.9757 14.4104 13.9757 14.4104L15.7292 14.3859C15.7292 14.3859 16.6466 14.3294 16.2116 13.6082C16.176 13.5492 15.9583 13.0747 14.9078 12.0996C13.8083 11.079 13.9556 11.2441 15.28 9.47881C16.0867 8.40373 16.4091 7.74737 16.3084 7.46626C16.2123 7.19851 15.6191 7.26928 15.6191 7.26928L13.6447 7.28158C13.6447 7.28158 13.4983 7.26162 13.3898 7.3265C13.2837 7.39014 13.2154 7.53845 13.2154 7.53845C13.2154 7.53845 12.9029 8.37039 12.4862 9.0779C11.607 10.5708 11.2555 10.6496 11.1118 10.5569C10.7776 10.3409 10.861 9.68898 10.861 9.22586C10.861 7.7791 11.0804 7.17587 10.4337 7.01972C10.2191 6.96785 10.0611 6.93362 9.51227 6.92809C8.80779 6.92079 8.21151 6.93023 7.87388 7.09566C7.64928 7.20564 7.47601 7.45075 7.58154 7.46483C7.71202 7.4823 8.00758 7.54452 8.16427 7.75789C8.36659 8.03312 8.35946 8.65133 8.35946 8.65133C8.35946 8.65133 8.47569 10.3544 8.08797 10.566C7.82183 10.7111 7.45676 10.4148 6.67295 9.06043C6.27133 8.36665 5.96811 7.59978 5.96811 7.59978C5.96811 7.59978 5.90964 7.45645 5.80536 7.3798C5.6788 7.28693 5.50196 7.25734 5.50196 7.25734L3.62578 7.26964C3.62578 7.26964 3.34413 7.27748 3.24074 7.39995C3.14876 7.50886 3.23343 7.73418 3.23343 7.73418C3.23343 7.73418 4.70229 11.1707 6.36545 12.9025C7.89046 14.4902 9.62225 14.3859 9.62225 14.3859Z" fill="white"/>
</g>
<defs>
<clipPath id="clip0_17090_14665">
<rect width="20" height="20" fill="white"/>
</clipPath>
</defs>
</svg>
