<svg width="48" height="38" viewBox="0 0 48 38" fill="none" xmlns="http://www.w3.org/2000/svg">
<path fill-rule="evenodd" clip-rule="evenodd" d="M33.2299 0.890625H42.7108C45.3055 0.890625 47.4072 2.99231 47.4072 5.58703V32.4108C47.4072 35.0105 45.3055 37.1122 42.7108 37.1122H15.887C13.9297 37.1122 12.254 35.9186 11.5504 34.2165C12.5989 34.1158 13.5531 33.5817 14.1898 32.7258C15.099 31.5156 16.1554 30.6039 17.3256 29.988C21.735 27.6895 24.4787 23.1715 24.4787 18.1973C24.4787 10.8908 18.5428 4.94088 11.239 4.91029C11.5668 2.6365 13.5222 0.890625 15.8871 0.890625H25.3674V4.389C25.3674 5.06953 25.9243 5.62116 26.5996 5.62116H31.9977C32.6782 5.62116 33.2299 5.06953 33.2299 4.389V0.890625ZM29.9879 29.5665V32.4875C29.9879 32.896 30.3193 33.2274 30.7278 33.2274H41.6447C42.0532 33.2274 42.3846 32.896 42.3846 32.4875V29.5665C42.3846 29.1581 42.0533 28.8267 41.6447 28.8267H30.7278C30.3194 28.8267 29.9879 29.1581 29.9879 29.5665Z" fill="#9D7B6D"/>
<path fill-rule="evenodd" clip-rule="evenodd" d="M10.3444 31.119C9.23015 29.6132 7.78452 28.401 6.14334 27.5128C2.49955 25.5402 0.150553 21.4974 0.662428 16.9575C1.21199 12.1243 5.12708 8.21686 9.96037 7.67471C16.3672 6.95958 21.7803 11.9586 21.7803 18.1997C21.7803 22.2953 19.469 25.8338 16.0737 27.603C14.4775 28.4387 13.1149 29.6659 12.0307 31.1114L12.0271 31.1164C11.6086 31.6806 10.7646 31.6819 10.3444 31.119ZM11.1873 23.1721C8.44621 23.1721 6.21478 20.947 6.21478 18.1996C6.21478 15.4586 8.44631 13.227 11.1873 13.227C13.9349 13.227 16.16 15.4586 16.16 18.1996C16.16 20.9471 13.9349 23.1721 11.1873 23.1721Z" fill="#EA0C0C"/>
</svg>
