<svg width="250" height="43" viewBox="0 0 250 43" fill="none" xmlns="http://www.w3.org/2000/svg">
<path d="M0.6 17.9785C0.44 17.9785 0.296 17.9225 0.168 17.8105C0.0559999 17.6825 0 17.5385 0 17.3785V1.80248C0 1.62648 0.0559999 1.48248 0.168 1.37048C0.28 1.24248 0.424 1.17848 0.6 1.17848H7.392C9.472 1.17848 11.104 1.65048 12.288 2.59448C13.472 3.53848 14.064 4.92248 14.064 6.74648C14.064 8.57048 13.472 9.93848 12.288 10.8505C11.104 11.7465 9.472 12.1945 7.392 12.1945H4.656V17.3785C4.656 17.5385 4.6 17.6825 4.488 17.8105C4.376 17.9225 4.232 17.9785 4.056 17.9785H0.6ZM7.272 8.76248C7.928 8.76248 8.44 8.59448 8.808 8.25848C9.192 7.90648 9.384 7.39448 9.384 6.72248C9.384 6.09848 9.208 5.59448 8.856 5.21048C8.52 4.82648 7.992 4.63448 7.272 4.63448H4.584V8.76248H7.272Z" fill="#EA0C0C"/>
<path d="M24.4491 18.2185C22.1771 18.2185 20.3851 17.6665 19.0731 16.5625C17.7611 15.4585 17.0651 13.8345 16.9851 11.6905C16.9691 11.2425 16.9611 10.5545 16.9611 9.62648C16.9611 8.69848 16.9691 8.00248 16.9851 7.53848C17.0491 5.42648 17.7451 3.80248 19.0731 2.66648C20.4171 1.51448 22.2091 0.938477 24.4491 0.938477C26.6731 0.938477 28.4491 1.51448 29.7771 2.66648C31.1211 3.80248 31.8251 5.42648 31.8891 7.53848C31.9211 8.46648 31.9371 9.16248 31.9371 9.62648C31.9371 10.1065 31.9211 10.7945 31.8891 11.6905C31.8091 13.8345 31.1131 15.4585 29.8011 16.5625C28.5051 17.6665 26.7211 18.2185 24.4491 18.2185ZM24.4491 14.6185C25.2811 14.6185 25.9451 14.3705 26.4411 13.8745C26.9371 13.3625 27.2011 12.5865 27.2331 11.5465C27.2651 10.6185 27.2811 9.95448 27.2811 9.55448C27.2811 9.15448 27.2651 8.50648 27.2331 7.61048C27.2011 6.57048 26.9371 5.80248 26.4411 5.30648C25.9451 4.79448 25.2811 4.53848 24.4491 4.53848C23.6011 4.53848 22.9291 4.79448 22.4331 5.30648C21.9371 5.80248 21.6731 6.57048 21.6411 7.61048C21.6251 8.05848 21.6171 8.70648 21.6171 9.55448C21.6171 10.4185 21.6251 11.0825 21.6411 11.5465C21.6731 12.5865 21.9371 13.3625 22.4331 13.8745C22.9291 14.3705 23.6011 14.6185 24.4491 14.6185Z" fill="#EA0C0C"/>
<path d="M37.3373 18.0505C37.1773 18.0505 37.0333 17.9945 36.9053 17.8825C36.7933 17.7545 36.7373 17.6105 36.7373 17.4505V1.85048C36.7373 1.67448 36.7933 1.53048 36.9053 1.41848C37.0333 1.30648 37.1773 1.25048 37.3373 1.25048H40.6973C40.8733 1.25048 41.0173 1.30648 41.1293 1.41848C41.2413 1.53048 41.2973 1.67448 41.2973 1.85048V14.2825H48.4973C48.6733 14.2825 48.8173 14.3465 48.9293 14.4745C49.0573 14.5865 49.1213 14.7305 49.1213 14.9065V17.4505C49.1213 17.6265 49.0573 17.7705 48.9293 17.8825C48.8173 17.9945 48.6733 18.0505 48.4973 18.0505H37.3373Z" fill="#2D2D2D"/>
<path d="M51.3919 18.0505C51.2639 18.0505 51.1439 18.0025 51.0319 17.9065C50.9359 17.7945 50.8879 17.6745 50.8879 17.5465C50.8879 17.4505 50.8959 17.3785 50.9119 17.3305L56.5039 1.94648C56.6639 1.48248 56.9839 1.25048 57.4639 1.25048H61.2079C61.6879 1.25048 62.0079 1.48248 62.1679 1.94648L67.7599 17.3305C67.7759 17.3785 67.7839 17.4505 67.7839 17.5465C67.7839 17.6745 67.7279 17.7945 67.6159 17.9065C67.5199 18.0025 67.4079 18.0505 67.2799 18.0505H64.1599C63.7759 18.0505 63.5039 17.8745 63.3439 17.5225L62.4799 15.1945H56.1919L55.3279 17.5225C55.1679 17.8745 54.8959 18.0505 54.5119 18.0505H51.3919ZM57.1999 11.5945H61.4719L59.3359 5.47448L57.1999 11.5945Z" fill="#2D2D2D"/>
<path d="M71.4014 18.0505C71.2414 18.0505 71.0974 17.9945 70.9694 17.8825C70.8574 17.7545 70.8014 17.6105 70.8014 17.4505V1.87448C70.8014 1.69848 70.8574 1.55448 70.9694 1.44248C71.0814 1.31448 71.2254 1.25048 71.4014 1.25048H74.1134C74.4814 1.25048 74.7534 1.40248 74.9294 1.70648L80.5934 10.6585V1.87448C80.5934 1.69848 80.6494 1.55448 80.7614 1.44248C80.8734 1.31448 81.0174 1.25048 81.1934 1.25048H84.2414C84.4174 1.25048 84.5614 1.31448 84.6734 1.44248C84.7854 1.55448 84.8414 1.69848 84.8414 1.87448V17.4265C84.8414 17.6025 84.7854 17.7545 84.6734 17.8825C84.5614 17.9945 84.4174 18.0505 84.2414 18.0505H81.5294C81.1614 18.0505 80.8894 17.8985 80.7134 17.5945L75.0734 9.00248V17.4505C75.0734 17.6265 75.0094 17.7705 74.8814 17.8825C74.7694 17.9945 74.6254 18.0505 74.4494 18.0505H71.4014Z" fill="#2D2D2D"/>
<path d="M89.8982 18.0505C89.7382 18.0505 89.5942 17.9945 89.4662 17.8825C89.3542 17.7545 89.2982 17.6105 89.2982 17.4505V1.87448C89.2982 1.69848 89.3542 1.55448 89.4662 1.44248C89.5782 1.31448 89.7222 1.25048 89.8982 1.25048H96.2102C98.5782 1.25048 100.418 1.81848 101.73 2.95448C103.042 4.07448 103.73 5.69048 103.794 7.80248C103.81 8.26648 103.818 8.88248 103.818 9.65048C103.818 10.4185 103.81 11.0265 103.794 11.4745C103.634 15.8585 101.146 18.0505 96.3302 18.0505H89.8982ZM96.2102 14.4505C97.2182 14.4505 97.9622 14.2105 98.4422 13.7305C98.9222 13.2505 99.1782 12.4825 99.2102 11.4265C99.2422 10.9625 99.2582 10.3625 99.2582 9.62648C99.2582 8.89048 99.2422 8.29848 99.2102 7.85048C99.1782 6.82648 98.8982 6.07448 98.3702 5.59448C97.8582 5.09848 97.0982 4.85048 96.0902 4.85048H93.8102V14.4505H96.2102Z" fill="#2D2D2D"/>
<path d="M107.7 18.0505C107.54 18.0505 107.396 17.9945 107.268 17.8825C107.156 17.7545 107.1 17.6105 107.1 17.4505V15.6505C107.1 15.1705 107.3 14.7705 107.7 14.4505L109.932 12.2665C111.452 11.1145 112.596 10.2185 113.364 9.57848C114.148 8.93848 114.74 8.36248 115.14 7.85048C115.556 7.32248 115.764 6.82648 115.764 6.36248C115.764 5.17848 115.172 4.58648 113.988 4.58648C113.364 4.58648 112.884 4.77848 112.548 5.16248C112.212 5.53048 111.988 5.99448 111.876 6.55448C111.78 6.92248 111.508 7.10648 111.06 7.10648H107.892C107.748 7.10648 107.62 7.05848 107.508 6.96248C107.412 6.85048 107.364 6.73048 107.364 6.60248C107.396 5.54648 107.684 4.59448 108.228 3.74648C108.788 2.88248 109.564 2.20248 110.556 1.70648C111.548 1.19448 112.692 0.938477 113.988 0.938477C115.332 0.938477 116.492 1.15448 117.468 1.58648C118.444 2.01848 119.18 2.62648 119.676 3.41048C120.188 4.19448 120.444 5.10648 120.444 6.14648C120.444 7.29848 120.084 8.33848 119.364 9.26648C118.66 10.1945 117.58 11.2025 116.124 12.2905L114.132 14.2825H120.204C120.38 14.2825 120.524 14.3385 120.636 14.4505C120.748 14.5625 120.804 14.7065 120.804 14.8825V17.4505C120.804 17.6105 120.748 17.7545 120.636 17.8825C120.524 17.9945 120.38 18.0505 120.204 18.0505H107.7Z" fill="#2D2D2D"/>
<path d="M132.284 18.0505C132.124 18.0505 131.98 17.9945 131.852 17.8825C131.74 17.7545 131.684 17.6105 131.684 17.4505V14.8105H124.244C124.084 14.8105 123.94 14.7545 123.812 14.6425C123.7 14.5145 123.644 14.3705 123.644 14.2105V11.7865C123.644 11.5465 123.732 11.3065 123.908 11.0665L130.868 1.65848C131.092 1.38648 131.388 1.25048 131.756 1.25048H135.404C135.58 1.25048 135.724 1.30648 135.836 1.41848C135.964 1.53048 136.028 1.67448 136.028 1.85048V11.0905H138.14C138.332 11.0905 138.484 11.1545 138.596 11.2825C138.708 11.3945 138.764 11.5305 138.764 11.6905V14.2105C138.764 14.3705 138.708 14.5145 138.596 14.6425C138.484 14.7545 138.34 14.8105 138.164 14.8105H136.028V17.4505C136.028 17.6265 135.964 17.7705 135.836 17.8825C135.724 17.9945 135.58 18.0505 135.404 18.0505H132.284ZM127.916 11.2585H131.78V5.85848L127.916 11.2585Z" fill="#2D2D2D"/>
<path d="M142.427 18.0505C142.251 18.0505 142.099 17.9945 141.971 17.8825C141.859 17.7705 141.803 17.6265 141.803 17.4505V14.2825C141.803 14.1065 141.859 13.9625 141.971 13.8505C142.099 13.7225 142.251 13.6585 142.427 13.6585H145.595C145.771 13.6585 145.915 13.7225 146.027 13.8505C146.139 13.9625 146.195 14.1065 146.195 14.2825V17.4505C146.195 17.6105 146.139 17.7545 146.027 17.8825C145.915 17.9945 145.771 18.0505 145.595 18.0505H142.427Z" fill="#2D2D2D"/>
<path d="M157.074 18.2905C154.786 18.2905 152.986 17.7385 151.674 16.6345C150.378 15.5305 149.69 13.9145 149.61 11.7865C149.594 11.3545 149.586 10.6505 149.586 9.67448C149.586 8.68248 149.594 7.96248 149.61 7.51448C149.69 5.43448 150.386 3.83448 151.698 2.71448C153.026 1.57848 154.818 1.01048 157.074 1.01048C158.498 1.01048 159.77 1.24248 160.89 1.70648C162.026 2.17048 162.922 2.84248 163.578 3.72248C164.234 4.60248 164.578 5.64248 164.61 6.84248C164.61 6.98648 164.554 7.10648 164.442 7.20248C164.346 7.29848 164.226 7.34648 164.082 7.34648H160.674C160.45 7.34648 160.282 7.30648 160.17 7.22648C160.074 7.13048 159.986 6.96248 159.906 6.72248C159.682 5.93848 159.338 5.39448 158.874 5.09048C158.426 4.77048 157.826 4.61048 157.074 4.61048C155.266 4.61048 154.33 5.61848 154.266 7.63448C154.25 8.06648 154.242 8.73048 154.242 9.62648C154.242 10.5225 154.25 11.2025 154.266 11.6665C154.33 13.6825 155.266 14.6905 157.074 14.6905C157.81 14.6905 158.41 14.5305 158.874 14.2105C159.354 13.8905 159.698 13.3465 159.906 12.5785C159.97 12.3385 160.058 12.1785 160.17 12.0985C160.282 12.0025 160.45 11.9545 160.674 11.9545H164.082C164.226 11.9545 164.346 12.0025 164.442 12.0985C164.554 12.1945 164.61 12.3145 164.61 12.4585C164.578 13.6585 164.234 14.6985 163.578 15.5785C162.922 16.4585 162.026 17.1305 160.89 17.5945C159.77 18.0585 158.498 18.2905 157.074 18.2905Z" fill="#2D2D2D"/>
<path d="M175.219 18.2905C172.947 18.2905 171.155 17.7385 169.843 16.6345C168.531 15.5305 167.835 13.9065 167.755 11.7625C167.739 11.3145 167.731 10.6265 167.731 9.69848C167.731 8.77048 167.739 8.07448 167.755 7.61048C167.819 5.49848 168.515 3.87448 169.843 2.73848C171.187 1.58648 172.979 1.01048 175.219 1.01048C177.443 1.01048 179.219 1.58648 180.547 2.73848C181.891 3.87448 182.595 5.49848 182.659 7.61048C182.691 8.53848 182.707 9.23448 182.707 9.69848C182.707 10.1785 182.691 10.8665 182.659 11.7625C182.579 13.9065 181.883 15.5305 180.571 16.6345C179.275 17.7385 177.491 18.2905 175.219 18.2905ZM175.219 14.6905C176.051 14.6905 176.715 14.4425 177.211 13.9465C177.707 13.4345 177.971 12.6585 178.003 11.6185C178.035 10.6905 178.051 10.0265 178.051 9.62648C178.051 9.22648 178.035 8.57848 178.003 7.68248C177.971 6.64248 177.707 5.87448 177.211 5.37848C176.715 4.86648 176.051 4.61048 175.219 4.61048C174.371 4.61048 173.699 4.86648 173.203 5.37848C172.707 5.87448 172.443 6.64248 172.411 7.68248C172.395 8.13048 172.387 8.77848 172.387 9.62648C172.387 10.4905 172.395 11.1545 172.411 11.6185C172.443 12.6585 172.707 13.4345 173.203 13.9465C173.699 14.4425 174.371 14.6905 175.219 14.6905Z" fill="#2D2D2D"/>
<path d="M187.239 18.0505C187.063 18.0505 186.911 17.9945 186.783 17.8825C186.671 17.7705 186.615 17.6265 186.615 17.4505V1.87448C186.615 1.69848 186.671 1.55448 186.783 1.44248C186.911 1.31448 187.063 1.25048 187.239 1.25048H189.951C190.351 1.25048 190.639 1.42648 190.815 1.77848L194.943 9.17048L199.095 1.77848C199.271 1.42648 199.559 1.25048 199.959 1.25048H202.671C202.847 1.25048 202.991 1.31448 203.103 1.44248C203.231 1.55448 203.295 1.69848 203.295 1.87448V17.4505C203.295 17.6265 203.231 17.7705 203.103 17.8825C202.991 17.9945 202.847 18.0505 202.671 18.0505H199.623C199.463 18.0505 199.319 17.9945 199.191 17.8825C199.079 17.7545 199.023 17.6105 199.023 17.4505V8.71448L196.431 13.4665C196.223 13.8345 195.943 14.0185 195.591 14.0185H194.295C193.975 14.0185 193.695 13.8345 193.455 13.4665L190.887 8.71448V17.4505C190.887 17.6265 190.823 17.7705 190.695 17.8825C190.583 17.9945 190.439 18.0505 190.263 18.0505H187.239Z" fill="#2D2D2D"/>
<path d="M207.93 18.0505C207.754 18.0505 207.602 17.9945 207.474 17.8825C207.362 17.7705 207.306 17.6265 207.306 17.4505V14.2825C207.306 14.1065 207.362 13.9625 207.474 13.8505C207.602 13.7225 207.754 13.6585 207.93 13.6585H211.098C211.274 13.6585 211.418 13.7225 211.53 13.8505C211.642 13.9625 211.698 14.1065 211.698 14.2825V17.4505C211.698 17.6105 211.642 17.7545 211.53 17.8825C211.418 17.9945 211.274 18.0505 211.098 18.0505H207.93Z" fill="#2D2D2D"/>
<path d="M222.604 18.2905C220.332 18.2905 218.548 17.7385 217.252 16.6345C215.972 15.5305 215.332 13.8745 215.332 11.6665V1.87448C215.332 1.69848 215.388 1.55448 215.5 1.44248C215.612 1.31448 215.756 1.25048 215.932 1.25048H219.22C219.396 1.25048 219.54 1.31448 219.652 1.44248C219.78 1.55448 219.844 1.69848 219.844 1.87448V11.6185C219.844 12.6105 220.076 13.3545 220.54 13.8505C221.02 14.3465 221.7 14.5945 222.58 14.5945C223.46 14.5945 224.132 14.3465 224.596 13.8505C225.076 13.3385 225.316 12.5945 225.316 11.6185V1.87448C225.316 1.69848 225.372 1.55448 225.484 1.44248C225.612 1.31448 225.764 1.25048 225.94 1.25048H229.204C229.38 1.25048 229.524 1.31448 229.636 1.44248C229.764 1.55448 229.828 1.69848 229.828 1.87448V11.6665C229.828 13.8745 229.188 15.5305 227.908 16.6345C226.628 17.7385 224.86 18.2905 222.604 18.2905Z" fill="#2D2D2D"/>
<path d="M232.803 18.0505C232.675 18.0505 232.555 18.0025 232.443 17.9065C232.347 17.7945 232.299 17.6745 232.299 17.5465C232.299 17.4505 232.307 17.3785 232.323 17.3305L237.915 1.94648C238.075 1.48248 238.395 1.25048 238.875 1.25048H242.619C243.099 1.25048 243.419 1.48248 243.579 1.94648L249.171 17.3305C249.187 17.3785 249.195 17.4505 249.195 17.5465C249.195 17.6745 249.139 17.7945 249.027 17.9065C248.931 18.0025 248.819 18.0505 248.691 18.0505H245.571C245.187 18.0505 244.915 17.8745 244.755 17.5225L243.891 15.1945H237.603L236.739 17.5225C236.579 17.8745 236.307 18.0505 235.923 18.0505H232.803ZM238.611 11.5945H242.883L240.747 5.47448L238.611 11.5945Z" fill="#2D2D2D"/>
<path d="M5.29163 39.7328C4.35814 39.7328 3.57619 39.5573 2.94578 39.2064C2.3275 38.8433 1.85469 38.3351 1.52736 37.6817C1.21216 37.0161 1.04243 36.2477 1.01818 35.3764C1.00606 35.0134 1 34.6504 1 34.2874C1 33.9243 1.00606 33.5613 1.01818 33.1983C1.01818 32.0971 1.10911 31.1835 1.29096 30.4574C1.47281 29.7314 1.74558 29.1384 2.10928 28.6786C2.4851 28.2067 2.95791 27.8195 3.5277 27.5169C4.09749 27.2144 4.77034 26.9542 5.54622 26.7364C6.32211 26.5065 7.20711 26.2645 8.20122 26.0104C8.31033 25.9862 8.41338 26.0043 8.51036 26.0648C8.61947 26.1253 8.68009 26.21 8.69221 26.3189L8.83769 27.0631C8.86194 27.1721 8.84375 27.2689 8.78313 27.3536C8.73464 27.4383 8.65584 27.4927 8.54673 27.5169C7.63749 27.7468 6.84341 27.9465 6.16451 28.1159C5.48561 28.2853 4.91581 28.485 4.45513 28.7149C3.99445 28.9327 3.62469 29.2171 3.34585 29.568C3.06702 29.919 2.87304 30.3848 2.76393 30.9657C2.66695 31.5465 2.63664 32.2907 2.67301 33.1983L2.27294 33.0349C2.33356 32.5872 2.52147 32.1818 2.83667 31.8188C3.164 31.4437 3.57013 31.1411 4.05506 30.9112C4.53999 30.6813 5.05523 30.5664 5.60078 30.5664C6.43728 30.5664 7.14043 30.7418 7.71023 31.0927C8.29214 31.4437 8.73464 31.9216 9.03772 32.5267C9.35293 33.1317 9.52872 33.8275 9.56509 34.6141C9.58933 35.0255 9.58933 35.3825 9.56509 35.685C9.52872 36.4716 9.34687 37.1734 9.01954 37.7906C8.69221 38.3956 8.2194 38.8736 7.60112 39.2245C6.98283 39.5634 6.213 39.7328 5.29163 39.7328ZM5.29163 38.3896C6.0554 38.3896 6.66156 38.1536 7.11013 37.6817C7.55869 37.2097 7.79509 36.52 7.81934 35.6124C7.83146 35.4914 7.83752 35.3522 7.83752 35.1949C7.83752 35.0376 7.83146 34.8743 7.81934 34.7049C7.79509 33.7852 7.55869 33.0894 7.11013 32.6174C6.67369 32.1455 6.12208 31.9095 5.4553 31.9095C4.69153 31.9095 4.06112 32.1455 3.56407 32.6174C3.06702 33.0894 2.8003 33.7852 2.76393 34.7049C2.75181 34.8743 2.74575 35.0376 2.74575 35.1949C2.74575 35.3522 2.75181 35.4914 2.76393 35.6124C2.8003 36.52 3.04277 37.2097 3.49133 37.6817C3.93989 38.1536 4.53999 38.3896 5.29163 38.3896Z" fill="#2D2D2D" fill-opacity="0.6"/>
<path d="M18.3373 39.5513C18.216 39.5513 18.113 39.5149 18.0281 39.4423C17.9554 39.3576 17.919 39.2548 17.919 39.1338V30.53C17.919 30.409 17.9554 30.3122 18.0281 30.2396C18.113 30.1549 18.216 30.1126 18.3373 30.1126H19.2101C19.3314 30.1126 19.4284 30.1549 19.5011 30.2396C19.586 30.3122 19.6284 30.409 19.6284 30.53V33.1983H21.5196C22.7562 33.1983 23.6594 33.4887 24.2292 34.0696C24.799 34.6504 25.0839 35.437 25.0839 36.4292C25.0839 37.4941 24.7687 38.2807 24.1382 38.7889C23.5078 39.2971 22.5622 39.5513 21.3014 39.5513H18.3373ZM19.6102 38.1899H21.356C22.0955 38.1899 22.635 38.0628 22.9744 37.8087C23.3139 37.5425 23.4836 37.0827 23.4836 36.4292C23.4836 35.8 23.3199 35.3341 22.9926 35.0316C22.6653 34.717 22.1197 34.5596 21.356 34.5596H19.6102V38.1899ZM26.7932 39.5513C26.672 39.5513 26.569 39.5149 26.4841 39.4423C26.4114 39.3576 26.375 39.2548 26.375 39.1338V30.53C26.375 30.409 26.4114 30.3122 26.4841 30.2396C26.569 30.1549 26.672 30.1126 26.7932 30.1126H27.6661C27.7873 30.1126 27.8843 30.1549 27.9571 30.2396C28.0419 30.3122 28.0844 30.409 28.0844 30.53V39.1338C28.0844 39.2548 28.0419 39.3576 27.9571 39.4423C27.8843 39.5149 27.7873 39.5513 27.6661 39.5513H26.7932Z" fill="#2D2D2D" fill-opacity="0.6"/>
<path d="M40.6745 39.7328C39.8138 39.7328 39.0682 39.5694 38.4378 39.2427C37.8195 38.9039 37.3406 38.4259 37.0012 37.8087C36.6617 37.1795 36.4799 36.4292 36.4556 35.558C36.4435 35.3764 36.4374 35.1344 36.4374 34.8319C36.4374 34.5294 36.4435 34.2874 36.4556 34.1059C36.4799 33.2346 36.6617 32.4904 37.0012 31.8732C37.3406 31.244 37.8195 30.766 38.4378 30.4393C39.0682 30.1005 39.8138 29.9311 40.6745 29.9311C41.3777 29.9311 41.9778 30.0279 42.4748 30.2215C42.984 30.4151 43.4023 30.6632 43.7296 30.9657C44.0569 31.2682 44.2994 31.5949 44.457 31.9459C44.6267 32.2968 44.7176 32.6296 44.7297 32.9442C44.7419 33.0652 44.7055 33.162 44.6206 33.2346C44.5358 33.3072 44.4327 33.3435 44.3115 33.3435H43.4386C43.3174 33.3435 43.2265 33.3193 43.1658 33.2709C43.1052 33.2104 43.0446 33.1136 42.984 32.9805C42.7658 32.3875 42.4688 31.9701 42.0929 31.728C41.7171 31.486 41.2504 31.365 40.6927 31.365C39.9653 31.365 39.3713 31.5889 38.9106 32.0366C38.462 32.4843 38.2196 33.2043 38.1832 34.1966C38.1711 34.6322 38.1711 35.0558 38.1832 35.4672C38.2196 36.4716 38.462 37.1976 38.9106 37.6454C39.3713 38.081 39.9653 38.2988 40.6927 38.2988C41.2504 38.2988 41.7171 38.1778 42.0929 37.9358C42.4688 37.6938 42.7658 37.2763 42.984 36.6833C43.0446 36.5502 43.1052 36.4595 43.1658 36.4111C43.2265 36.3506 43.3174 36.3203 43.4386 36.3203H44.3115C44.4327 36.3203 44.5358 36.3566 44.6206 36.4292C44.7055 36.5018 44.7419 36.5986 44.7297 36.7196C44.7176 36.9738 44.6631 37.2339 44.5661 37.5002C44.4691 37.7664 44.3115 38.0386 44.0933 38.317C43.8872 38.5832 43.6265 38.8252 43.3113 39.043C42.9961 39.2487 42.6142 39.4181 42.1657 39.5513C41.7292 39.6723 41.2322 39.7328 40.6745 39.7328Z" fill="#2D2D2D" fill-opacity="0.6"/>
<path d="M55.8424 39.5513C55.7211 39.5513 55.6181 39.5149 55.5332 39.4423C55.4605 39.3576 55.4241 39.2548 55.4241 39.1338V31.5647H52.2599C52.1387 31.5647 52.0357 31.5284 51.9508 31.4558C51.8781 31.3711 51.8417 31.2682 51.8417 31.1472V30.53C51.8417 30.409 51.8781 30.3122 51.9508 30.2396C52.0357 30.1549 52.1387 30.1126 52.2599 30.1126H60.2613C60.3825 30.1126 60.4795 30.1549 60.5523 30.2396C60.6371 30.3122 60.6796 30.409 60.6796 30.53V31.1472C60.6796 31.2682 60.6371 31.3711 60.5523 31.4558C60.4795 31.5284 60.3825 31.5647 60.2613 31.5647H57.0971V39.1338C57.0971 39.2548 57.0608 39.3576 56.988 39.4423C56.9153 39.5149 56.8122 39.5513 56.6789 39.5513H55.8424Z" fill="#2D2D2D" fill-opacity="0.6"/>
<path d="M68.7546 43C68.6334 43 68.5303 42.9576 68.4455 42.8729C68.3727 42.8003 68.3363 42.7035 68.3363 42.5825V30.53C68.3363 30.409 68.3727 30.3122 68.4455 30.2396C68.5303 30.1549 68.6334 30.1126 68.7546 30.1126H69.5911C69.7123 30.1126 69.8093 30.1549 69.8821 30.2396C69.9669 30.3122 70.0094 30.409 70.0094 30.53V31.3287C70.3003 30.9294 70.6883 30.5966 71.1732 30.3304C71.6581 30.0642 72.2643 29.9311 72.9917 29.9311C73.6706 29.9311 74.2464 30.046 74.7192 30.2759C75.2042 30.5058 75.5982 30.8205 75.9013 31.2198C76.2165 31.6191 76.4529 32.0729 76.6105 32.5811C76.7681 33.0894 76.8529 33.6339 76.8651 34.2148C76.8772 34.4084 76.8832 34.6141 76.8832 34.8319C76.8832 35.0497 76.8772 35.2554 76.8651 35.4491C76.8529 36.0178 76.7681 36.5623 76.6105 37.0827C76.4529 37.5909 76.2165 38.0447 75.9013 38.444C75.5982 38.8312 75.2042 39.1459 74.7192 39.3879C74.2464 39.6178 73.6706 39.7328 72.9917 39.7328C72.2885 39.7328 71.6945 39.6057 71.2096 39.3516C70.7367 39.0854 70.3488 38.7586 70.0457 38.3714V42.5825C70.0457 42.7035 70.0094 42.8003 69.9366 42.8729C69.8639 42.9576 69.7608 43 69.6275 43H68.7546ZM72.6098 38.2625C73.2402 38.2625 73.7312 38.1294 74.0828 37.8632C74.4465 37.5849 74.7071 37.2279 74.8647 36.7923C75.0223 36.3445 75.1133 35.8665 75.1375 35.3583C75.1496 35.0074 75.1496 34.6564 75.1375 34.3055C75.1133 33.7973 75.0223 33.3254 74.8647 32.8897C74.7071 32.442 74.4465 32.085 74.0828 31.8188C73.7312 31.5405 73.2402 31.4013 72.6098 31.4013C72.0158 31.4013 71.5308 31.5405 71.155 31.8188C70.7913 32.0971 70.5185 32.4541 70.3367 32.8897C70.167 33.3133 70.07 33.7489 70.0457 34.1966C70.0336 34.3902 70.0275 34.6201 70.0275 34.8864C70.0275 35.1526 70.0336 35.3886 70.0457 35.5943C70.0578 36.0178 70.1548 36.4353 70.3367 36.8467C70.5307 37.2581 70.8156 37.597 71.1914 37.8632C71.5672 38.1294 72.04 38.2625 72.6098 38.2625Z" fill="#2D2D2D" fill-opacity="0.6"/>
<path d="M87.8494 39.7328C87.2432 39.7328 86.6916 39.6118 86.1946 39.3697C85.6975 39.1277 85.2974 38.801 84.9944 38.3896C84.6913 37.9781 84.5397 37.5123 84.5397 36.9919C84.5397 36.157 84.8792 35.4914 85.5581 34.9953C86.237 34.4991 87.122 34.1724 88.2131 34.0151L90.9226 33.6339V33.1075C90.9226 32.5267 90.7529 32.0729 90.4135 31.7462C90.0861 31.4195 89.5467 31.2561 88.795 31.2561C88.2495 31.2561 87.807 31.365 87.4675 31.5828C87.1402 31.8006 86.9098 32.079 86.7765 32.4178C86.7038 32.5993 86.5765 32.6901 86.3946 32.6901H85.5763C85.4429 32.6901 85.3399 32.6538 85.2671 32.5811C85.2065 32.4964 85.1762 32.3996 85.1762 32.2907C85.1762 32.1092 85.2429 31.8853 85.3763 31.6191C85.5217 31.3529 85.74 31.0927 86.0309 30.8386C86.3219 30.5845 86.6916 30.3727 87.1402 30.2033C87.6009 30.0218 88.1585 29.9311 88.8132 29.9311C89.5406 29.9311 90.1528 30.0279 90.6499 30.2215C91.1469 30.403 91.5349 30.6511 91.8137 30.9657C92.1047 31.2803 92.3108 31.6373 92.432 32.0366C92.5653 32.4359 92.632 32.8413 92.632 33.2527V39.1338C92.632 39.2548 92.5896 39.3576 92.5047 39.4423C92.432 39.5149 92.335 39.5513 92.2138 39.5513H91.3773C91.2439 39.5513 91.1409 39.5149 91.0681 39.4423C90.9954 39.3576 90.959 39.2548 90.959 39.1338V38.3533C90.8014 38.5711 90.5893 38.7889 90.3225 39.0067C90.0558 39.2124 89.7224 39.3879 89.3224 39.5331C88.9223 39.6662 88.4313 39.7328 87.8494 39.7328ZM88.2313 38.3714C88.7283 38.3714 89.183 38.2686 89.5951 38.0628C90.0073 37.845 90.3286 37.5123 90.559 37.0645C90.8014 36.6168 90.9226 36.0541 90.9226 35.3764V34.8682L88.8132 35.1768C87.9525 35.2978 87.3039 35.5035 86.8674 35.7939C86.431 36.0723 86.2128 36.4292 86.2128 36.8649C86.2128 37.2037 86.3097 37.4881 86.5037 37.718C86.7098 37.9358 86.9644 38.0991 87.2675 38.2081C87.5827 38.317 87.904 38.3714 88.2313 38.3714Z" fill="#2D2D2D" fill-opacity="0.6"/>
<path d="M107.2 39.5513C107.066 39.5513 106.963 39.5149 106.891 39.4423C106.818 39.3576 106.782 39.2548 106.782 39.1338V36.1751H104.69V36.0844C103.551 36.0844 102.702 35.806 102.144 35.2494C101.599 34.6806 101.326 33.9606 101.326 33.0894C101.326 32.0729 101.623 31.3227 102.217 30.8386C102.823 30.3546 103.733 30.1126 104.945 30.1126H108.073C108.194 30.1126 108.291 30.1549 108.364 30.2396C108.448 30.3122 108.491 30.409 108.491 30.53V39.1338C108.491 39.2548 108.448 39.3576 108.364 39.4423C108.291 39.5149 108.194 39.5513 108.073 39.5513H107.2ZM101.435 39.5513C101.326 39.5513 101.235 39.5149 101.162 39.4423C101.09 39.3697 101.053 39.285 101.053 39.1882C101.053 39.1398 101.059 39.0914 101.071 39.043C101.096 38.9825 101.132 38.922 101.181 38.8615L103.345 35.6669L105.09 35.7939L102.781 39.279C102.732 39.3395 102.666 39.4 102.581 39.4605C102.496 39.521 102.405 39.5513 102.308 39.5513H101.435ZM104.745 34.8138H106.8V31.4739H104.89C104.211 31.4739 103.708 31.5949 103.381 31.8369C103.066 32.0669 102.908 32.4843 102.908 33.0894C102.908 33.5855 103.054 33.997 103.345 34.3237C103.648 34.6504 104.114 34.8138 104.745 34.8138Z" fill="#2D2D2D" fill-opacity="0.6"/>
<path d="M127.235 41.5479C127.113 41.5479 127.01 41.5055 126.925 41.4208C126.853 41.3482 126.816 41.2514 126.816 41.1304V38.5166C126.816 38.3956 126.853 38.2988 126.925 38.2262C127.01 38.1415 127.113 38.0991 127.235 38.0991H127.326C127.653 38.087 127.932 37.9055 128.162 37.5546C128.392 37.1916 128.568 36.6289 128.689 35.8665C128.811 35.0921 128.871 34.0877 128.871 32.8534V30.53C128.871 30.409 128.908 30.3122 128.98 30.2396C129.065 30.1549 129.168 30.1126 129.29 30.1126H135.09C135.212 30.1126 135.309 30.1549 135.381 30.2396C135.466 30.3122 135.509 30.409 135.509 30.53V38.0628H136.363C136.497 38.0628 136.6 38.1052 136.673 38.1899C136.745 38.2625 136.782 38.3593 136.782 38.4803V41.1304C136.782 41.2514 136.745 41.3482 136.673 41.4208C136.6 41.5055 136.497 41.5479 136.363 41.5479H135.509C135.387 41.5479 135.284 41.5055 135.2 41.4208C135.127 41.3482 135.09 41.2514 135.09 41.1304V39.5513H128.508V41.1304C128.508 41.2514 128.465 41.3482 128.38 41.4208C128.308 41.5055 128.211 41.5479 128.089 41.5479H127.235ZM129.49 38.0991L133.818 38.0628V31.5647H130.526V33.0531C130.526 34.3358 130.435 35.3886 130.253 36.2114C130.071 37.0222 129.817 37.6514 129.49 38.0991Z" fill="#2D2D2D" fill-opacity="0.6"/>
<path d="M148.619 39.7328C147.698 39.7328 146.928 39.5573 146.31 39.2064C145.691 38.8554 145.218 38.3714 144.891 37.7543C144.564 37.125 144.382 36.4111 144.346 35.6124C144.333 35.4067 144.327 35.1465 144.327 34.8319C144.327 34.5052 144.333 34.245 144.346 34.0514C144.382 33.2406 144.564 32.5267 144.891 31.9095C145.231 31.2924 145.709 30.8084 146.328 30.4574C146.946 30.1065 147.71 29.9311 148.619 29.9311C149.528 29.9311 150.292 30.1065 150.91 30.4574C151.529 30.8084 152.001 31.2924 152.329 31.9095C152.668 32.5267 152.856 33.2406 152.892 34.0514C152.905 34.245 152.911 34.5052 152.911 34.8319C152.911 35.1465 152.905 35.4067 152.892 35.6124C152.856 36.4111 152.674 37.125 152.347 37.7543C152.02 38.3714 151.547 38.8554 150.928 39.2064C150.31 39.5573 149.54 39.7328 148.619 39.7328ZM148.619 38.3351C149.371 38.3351 149.971 38.0991 150.419 37.6272C150.868 37.1432 151.11 36.4413 151.147 35.5217C151.159 35.3401 151.165 35.1102 151.165 34.8319C151.165 34.5536 151.159 34.3237 151.147 34.1422C151.11 33.2225 150.868 32.5267 150.419 32.0548C149.971 31.5707 149.371 31.3287 148.619 31.3287C147.867 31.3287 147.261 31.5707 146.801 32.0548C146.352 32.5267 146.116 33.2225 146.091 34.1422C146.079 34.3237 146.073 34.5536 146.073 34.8319C146.073 35.1102 146.079 35.3401 146.091 35.5217C146.116 36.4413 146.352 37.1432 146.801 37.6272C147.261 38.0991 147.867 38.3351 148.619 38.3351Z" fill="#2D2D2D" fill-opacity="0.6"/>
<path d="M165.068 39.7328C164.207 39.7328 163.462 39.5694 162.831 39.2427C162.213 38.9039 161.734 38.4259 161.395 37.8087C161.055 37.1795 160.874 36.4292 160.849 35.558C160.837 35.3764 160.831 35.1344 160.831 34.8319C160.831 34.5294 160.837 34.2874 160.849 34.1059C160.874 33.2346 161.055 32.4904 161.395 31.8732C161.734 31.244 162.213 30.766 162.831 30.4393C163.462 30.1005 164.207 29.9311 165.068 29.9311C165.771 29.9311 166.371 30.0279 166.868 30.2215C167.378 30.4151 167.796 30.6632 168.123 30.9657C168.451 31.2682 168.693 31.5949 168.851 31.9459C169.02 32.2968 169.111 32.6296 169.123 32.9442C169.136 33.0652 169.099 33.162 169.014 33.2346C168.929 33.3072 168.826 33.3435 168.705 33.3435H167.832C167.711 33.3435 167.62 33.3193 167.56 33.2709C167.499 33.2104 167.438 33.1136 167.378 32.9805C167.159 32.3875 166.862 31.9701 166.487 31.728C166.111 31.486 165.644 31.365 165.086 31.365C164.359 31.365 163.765 31.5889 163.304 32.0366C162.856 32.4843 162.613 33.2043 162.577 34.1966C162.565 34.6322 162.565 35.0558 162.577 35.4672C162.613 36.4716 162.856 37.1976 163.304 37.6454C163.765 38.081 164.359 38.2988 165.086 38.2988C165.644 38.2988 166.111 38.1778 166.487 37.9358C166.862 37.6938 167.159 37.2763 167.378 36.6833C167.438 36.5502 167.499 36.4595 167.56 36.4111C167.62 36.3506 167.711 36.3203 167.832 36.3203H168.705C168.826 36.3203 168.929 36.3566 169.014 36.4292C169.099 36.5018 169.136 36.5986 169.123 36.7196C169.111 36.9738 169.057 37.2339 168.96 37.5002C168.863 37.7664 168.705 38.0386 168.487 38.317C168.281 38.5832 168.02 38.8252 167.705 39.043C167.39 39.2487 167.008 39.4181 166.559 39.5513C166.123 39.6723 165.626 39.7328 165.068 39.7328Z" fill="#2D2D2D" fill-opacity="0.6"/>
<path d="M180.236 39.5513C180.115 39.5513 180.012 39.5149 179.927 39.4423C179.854 39.3576 179.818 39.2548 179.818 39.1338V31.5647H176.654C176.532 31.5647 176.429 31.5284 176.344 31.4558C176.272 31.3711 176.235 31.2682 176.235 31.1472V30.53C176.235 30.409 176.272 30.3122 176.344 30.2396C176.429 30.1549 176.532 30.1126 176.654 30.1126H184.655C184.776 30.1126 184.873 30.1549 184.946 30.2396C185.031 30.3122 185.073 30.409 185.073 30.53V31.1472C185.073 31.2682 185.031 31.3711 184.946 31.4558C184.873 31.5284 184.776 31.5647 184.655 31.5647H181.491V39.1338C181.491 39.2548 181.454 39.3576 181.382 39.4423C181.309 39.5149 181.206 39.5513 181.073 39.5513H180.236Z" fill="#2D2D2D" fill-opacity="0.6"/>
<path d="M195.349 39.7328C194.742 39.7328 194.191 39.6118 193.694 39.3697C193.197 39.1277 192.797 38.801 192.494 38.3896C192.191 37.9781 192.039 37.5123 192.039 36.9919C192.039 36.157 192.378 35.4914 193.057 34.9953C193.736 34.4991 194.621 34.1724 195.712 34.0151L198.422 33.6339V33.1075C198.422 32.5267 198.252 32.0729 197.913 31.7462C197.585 31.4195 197.046 31.2561 196.294 31.2561C195.749 31.2561 195.306 31.365 194.967 31.5828C194.639 31.8006 194.409 32.079 194.276 32.4178C194.203 32.5993 194.076 32.6901 193.894 32.6901H193.076C192.942 32.6901 192.839 32.6538 192.766 32.5811C192.706 32.4964 192.675 32.3996 192.675 32.2907C192.675 32.1092 192.742 31.8853 192.875 31.6191C193.021 31.3529 193.239 31.0927 193.53 30.8386C193.821 30.5845 194.191 30.3727 194.639 30.2033C195.1 30.0218 195.658 29.9311 196.312 29.9311C197.04 29.9311 197.652 30.0279 198.149 30.2215C198.646 30.403 199.034 30.6511 199.313 30.9657C199.604 31.2803 199.81 31.6373 199.931 32.0366C200.065 32.4359 200.131 32.8413 200.131 33.2527V39.1338C200.131 39.2548 200.089 39.3576 200.004 39.4423C199.931 39.5149 199.834 39.5513 199.713 39.5513H198.877C198.743 39.5513 198.64 39.5149 198.567 39.4423C198.495 39.3576 198.458 39.2548 198.458 39.1338V38.3533C198.301 38.5711 198.088 38.7889 197.822 39.0067C197.555 39.2124 197.222 39.3879 196.822 39.5331C196.422 39.6662 195.931 39.7328 195.349 39.7328ZM195.731 38.3714C196.228 38.3714 196.682 38.2686 197.094 38.0628C197.507 37.845 197.828 37.5123 198.058 37.0645C198.301 36.6168 198.422 36.0541 198.422 35.3764V34.8682L196.312 35.1768C195.452 35.2978 194.803 35.5035 194.367 35.7939C193.93 36.0723 193.712 36.4292 193.712 36.8649C193.712 37.2037 193.809 37.4881 194.003 37.718C194.209 37.9358 194.464 38.0991 194.767 38.2081C195.082 38.317 195.403 38.3714 195.731 38.3714Z" fill="#2D2D2D" fill-opacity="0.6"/>
<path d="M209.225 39.5513C209.104 39.5513 209.001 39.5149 208.916 39.4423C208.843 39.3576 208.807 39.2548 208.807 39.1338V30.53C208.807 30.409 208.843 30.3122 208.916 30.2396C209.001 30.1549 209.104 30.1126 209.225 30.1126H213.008C214.147 30.1126 215.002 30.3425 215.572 30.8023C216.154 31.2622 216.445 31.8793 216.445 32.6538C216.445 33.1983 216.342 33.6097 216.136 33.888C215.93 34.1664 215.639 34.4023 215.263 34.5959C215.723 34.7896 216.069 35.1042 216.299 35.5398C216.542 35.9633 216.663 36.405 216.663 36.8649C216.663 37.7361 216.354 38.4017 215.736 38.8615C215.117 39.3213 214.257 39.5513 213.153 39.5513H209.225ZM210.48 38.2262H213.008C213.59 38.2262 214.056 38.1173 214.408 37.8995C214.772 37.6696 214.954 37.3247 214.954 36.8649C214.954 36.3808 214.79 36.0299 214.463 35.8121C214.135 35.5822 213.65 35.4672 213.008 35.4672H210.48V38.2262ZM210.48 34.124H212.899C213.481 34.124 213.941 33.9969 214.281 33.7428C214.632 33.4887 214.808 33.1317 214.808 32.6719C214.808 32.2 214.632 31.8793 214.281 31.7099C213.941 31.5284 213.481 31.4376 212.899 31.4376H210.48V34.124Z" fill="#2D2D2D" fill-opacity="0.6"/>
<path d="M225.48 39.5513C225.359 39.5513 225.256 39.5149 225.171 39.4423C225.099 39.3576 225.062 39.2548 225.062 39.1338V30.53C225.062 30.409 225.099 30.3122 225.171 30.2396C225.256 30.1549 225.359 30.1126 225.48 30.1126H226.335C226.456 30.1126 226.553 30.1549 226.626 30.2396C226.711 30.3122 226.753 30.409 226.753 30.53V34.0151H228.408L230.863 30.3848C230.924 30.3001 230.991 30.2336 231.063 30.1852C231.136 30.1368 231.233 30.1126 231.354 30.1126H232.3C232.409 30.1126 232.5 30.1368 232.573 30.1852C232.645 30.2336 232.682 30.3062 232.682 30.403C232.682 30.4272 232.67 30.4635 232.645 30.5119C232.633 30.5482 232.615 30.5845 232.591 30.6208L229.863 34.6322L232.954 39.0249C233.015 39.0975 233.045 39.1761 233.045 39.2608C233.045 39.3576 233.009 39.4302 232.936 39.4786C232.876 39.527 232.791 39.5513 232.682 39.5513H231.572C231.463 39.5513 231.372 39.527 231.3 39.4786C231.227 39.4302 231.16 39.3637 231.1 39.279L228.426 35.4854H226.753V39.1338C226.753 39.2548 226.711 39.3576 226.626 39.4423C226.553 39.5149 226.456 39.5513 226.335 39.5513H225.48Z" fill="#2D2D2D" fill-opacity="0.6"/>
<path d="M244.217 39.7328C243.611 39.7328 243.06 39.6118 242.563 39.3697C242.066 39.1277 241.665 38.801 241.362 38.3896C241.059 37.9781 240.908 37.5123 240.908 36.9919C240.908 36.157 241.247 35.4914 241.926 34.9953C242.605 34.4991 243.49 34.1724 244.581 34.0151L247.291 33.6339V33.1075C247.291 32.5267 247.121 32.0729 246.781 31.7462C246.454 31.4195 245.915 31.2561 245.163 31.2561C244.617 31.2561 244.175 31.365 243.835 31.5828C243.508 31.8006 243.278 32.079 243.144 32.4178C243.072 32.5993 242.944 32.6901 242.763 32.6901H241.944C241.811 32.6901 241.708 32.6538 241.635 32.5811C241.575 32.4964 241.544 32.3996 241.544 32.2907C241.544 32.1092 241.611 31.8853 241.744 31.6191C241.89 31.3529 242.108 31.0927 242.399 30.8386C242.69 30.5845 243.06 30.3727 243.508 30.2033C243.969 30.0218 244.527 29.9311 245.181 29.9311C245.909 29.9311 246.521 30.0279 247.018 30.2215C247.515 30.403 247.903 30.6511 248.182 30.9657C248.473 31.2803 248.679 31.6373 248.8 32.0366C248.933 32.4359 249 32.8413 249 33.2527V39.1338C249 39.2548 248.958 39.3576 248.873 39.4423C248.8 39.5149 248.703 39.5513 248.582 39.5513H247.745C247.612 39.5513 247.509 39.5149 247.436 39.4423C247.363 39.3576 247.327 39.2548 247.327 39.1338V38.3533C247.169 38.5711 246.957 38.7889 246.691 39.0067C246.424 39.2124 246.09 39.3879 245.69 39.5331C245.29 39.6662 244.799 39.7328 244.217 39.7328ZM244.599 38.3714C245.096 38.3714 245.551 38.2686 245.963 38.0628C246.375 37.845 246.697 37.5123 246.927 37.0645C247.169 36.6168 247.291 36.0541 247.291 35.3764V34.8682L245.181 35.1768C244.32 35.2978 243.672 35.5035 243.235 35.7939C242.799 36.0723 242.581 36.4292 242.581 36.8649C242.581 37.2037 242.678 37.4881 242.872 37.718C243.078 37.9358 243.332 38.0991 243.635 38.2081C243.951 38.317 244.272 38.3714 244.599 38.3714Z" fill="#2D2D2D" fill-opacity="0.6"/>
</svg>
