<svg width="171" height="28" viewBox="0 0 171 28" fill="none" xmlns="http://www.w3.org/2000/svg">
<path d="M0.4 11.9601C0.293333 11.9601 0.197333 11.9228 0.112 11.8481C0.0373333 11.7628 0 11.6668 0 11.5601V1.1761C0 1.05876 0.0373333 0.962764 0.112 0.888098C0.186667 0.802764 0.282667 0.760098 0.4 0.760098H4.928C6.31467 0.760098 7.40267 1.07476 8.192 1.7041C8.98133 2.33343 9.376 3.2561 9.376 4.4721C9.376 5.6881 8.98133 6.6001 8.192 7.2081C7.40267 7.80543 6.31467 8.1041 4.928 8.1041H3.104V11.5601C3.104 11.6668 3.06667 11.7628 2.992 11.8481C2.91733 11.9228 2.82133 11.9601 2.704 11.9601H0.4ZM4.848 5.8161C5.28533 5.8161 5.62667 5.7041 5.872 5.4801C6.128 5.24543 6.256 4.9041 6.256 4.4561C6.256 4.0401 6.13867 3.7041 5.904 3.4481C5.68 3.1921 5.328 3.0641 4.848 3.0641H3.056V5.8161H4.848Z" fill="#EA0C0C"/>
<path d="M16.4994 12.1201C14.9847 12.1201 13.79 11.7521 12.9154 11.0161C12.0407 10.2801 11.5767 9.19743 11.5234 7.7681C11.5127 7.46943 11.5074 7.01076 11.5074 6.3921C11.5074 5.77343 11.5127 5.30943 11.5234 5.0001C11.566 3.5921 12.03 2.50943 12.9154 1.7521C13.8114 0.984098 15.006 0.600098 16.4994 0.600098C17.982 0.600098 19.166 0.984098 20.0514 1.7521C20.9474 2.50943 21.4167 3.5921 21.4594 5.0001C21.4807 5.61876 21.4914 6.08276 21.4914 6.3921C21.4914 6.7121 21.4807 7.17076 21.4594 7.7681C21.406 9.19743 20.942 10.2801 20.0674 11.0161C19.2034 11.7521 18.014 12.1201 16.4994 12.1201ZM16.4994 9.7201C17.054 9.7201 17.4967 9.55476 17.8274 9.2241C18.158 8.88276 18.334 8.36543 18.3554 7.6721C18.3767 7.05343 18.3874 6.61076 18.3874 6.3441C18.3874 6.07743 18.3767 5.64543 18.3554 5.0481C18.334 4.35476 18.158 3.84276 17.8274 3.5121C17.4967 3.17076 17.054 3.0001 16.4994 3.0001C15.934 3.0001 15.486 3.17076 15.1554 3.5121C14.8247 3.84276 14.6487 4.35476 14.6274 5.0481C14.6167 5.34676 14.6114 5.77876 14.6114 6.3441C14.6114 6.9201 14.6167 7.36276 14.6274 7.6721C14.6487 8.36543 14.8247 8.88276 15.1554 9.2241C15.486 9.55476 15.934 9.7201 16.4994 9.7201Z" fill="#EA0C0C"/>
<path d="M25.8914 12.0081C25.7847 12.0081 25.6887 11.9708 25.6034 11.8961C25.5287 11.8108 25.4914 11.7148 25.4914 11.6081V1.2081C25.4914 1.09076 25.5287 0.994765 25.6034 0.920098C25.6887 0.845431 25.7847 0.808098 25.8914 0.808098H28.1314C28.2487 0.808098 28.3447 0.845431 28.4194 0.920098C28.4941 0.994765 28.5314 1.09076 28.5314 1.2081V9.4961H33.3314C33.4487 9.4961 33.5447 9.53876 33.6194 9.6241C33.7047 9.69877 33.7474 9.79476 33.7474 9.9121V11.6081C33.7474 11.7254 33.7047 11.8214 33.6194 11.8961C33.5447 11.9708 33.4487 12.0081 33.3314 12.0081H25.8914Z" fill="#2D2D2D"/>
<path d="M35.4611 12.0081C35.3758 12.0081 35.2958 11.9761 35.2211 11.9121C35.1571 11.8374 35.1251 11.7574 35.1251 11.6721C35.1251 11.6081 35.1305 11.5601 35.1411 11.5281L38.8691 1.2721C38.9758 0.962765 39.1891 0.808098 39.5091 0.808098H42.0051C42.3251 0.808098 42.5385 0.962765 42.6451 1.2721L46.3731 11.5281C46.3838 11.5601 46.3891 11.6081 46.3891 11.6721C46.3891 11.7574 46.3518 11.8374 46.2771 11.9121C46.2131 11.9761 46.1385 12.0081 46.0531 12.0081H43.9731C43.7171 12.0081 43.5358 11.8908 43.4291 11.6561L42.8531 10.1041H38.6611L38.0851 11.6561C37.9785 11.8908 37.7971 12.0081 37.5411 12.0081H35.4611ZM39.3331 7.7041H42.1811L40.7571 3.6241L39.3331 7.7041Z" fill="#2D2D2D"/>
<path d="M49.0008 12.0081C48.8941 12.0081 48.7981 11.9708 48.7128 11.8961C48.6381 11.8108 48.6008 11.7148 48.6008 11.6081V1.2241C48.6008 1.10676 48.6381 1.01076 48.7128 0.936098C48.7874 0.850765 48.8834 0.808098 49.0008 0.808098H50.8088C51.0541 0.808098 51.2354 0.909431 51.3528 1.1121L55.1288 7.0801V1.2241C55.1288 1.10676 55.1661 1.01076 55.2408 0.936098C55.3154 0.850765 55.4114 0.808098 55.5288 0.808098H57.5608C57.6781 0.808098 57.7741 0.850765 57.8488 0.936098C57.9234 1.01076 57.9608 1.10676 57.9608 1.2241V11.5921C57.9608 11.7094 57.9234 11.8108 57.8488 11.8961C57.7741 11.9708 57.6781 12.0081 57.5608 12.0081H55.7528C55.5074 12.0081 55.3261 11.9068 55.2088 11.7041L51.4488 5.9761V11.6081C51.4488 11.7254 51.4061 11.8214 51.3208 11.8961C51.2461 11.9708 51.1501 12.0081 51.0328 12.0081H49.0008Z" fill="#2D2D2D"/>
<path d="M61.532 12.0081C61.4254 12.0081 61.3294 11.9708 61.244 11.8961C61.1694 11.8108 61.132 11.7148 61.132 11.6081V1.2241C61.132 1.10676 61.1694 1.01076 61.244 0.936098C61.3187 0.850765 61.4147 0.808098 61.532 0.808098H65.74C67.3187 0.808098 68.5453 1.18676 69.42 1.9441C70.2947 2.69077 70.7533 3.7681 70.796 5.1761C70.8067 5.48543 70.812 5.8961 70.812 6.4081C70.812 6.9201 70.8067 7.32543 70.796 7.6241C70.6894 10.5468 69.0307 12.0081 65.82 12.0081H61.532ZM65.74 9.6081C66.412 9.6081 66.908 9.4481 67.228 9.1281C67.548 8.8081 67.7187 8.2961 67.74 7.5921C67.7613 7.28276 67.772 6.88277 67.772 6.3921C67.772 5.90143 67.7613 5.50676 67.74 5.2081C67.7187 4.52543 67.532 4.0241 67.18 3.7041C66.8387 3.37343 66.332 3.2081 65.66 3.2081H64.14V9.6081H65.74Z" fill="#2D2D2D"/>
<path d="M73.6 12.0081C73.4934 12.0081 73.3974 11.9708 73.312 11.8961C73.2374 11.8108 73.2 11.7148 73.2 11.6081V10.4081C73.2 10.0881 73.3334 9.82143 73.6 9.6081L75.088 8.1521C76.1013 7.3841 76.864 6.78676 77.376 6.3601C77.8987 5.93343 78.2934 5.54943 78.56 5.2081C78.8373 4.8561 78.976 4.52543 78.976 4.2161C78.976 3.42677 78.5814 3.0321 77.792 3.0321C77.376 3.0321 77.056 3.1601 76.832 3.4161C76.608 3.66143 76.4587 3.97077 76.384 4.3441C76.32 4.58943 76.1387 4.7121 75.84 4.7121H73.728C73.632 4.7121 73.5467 4.6801 73.472 4.6161C73.408 4.54143 73.376 4.46143 73.376 4.3761C73.3974 3.6721 73.5894 3.03743 73.952 2.4721C74.3254 1.8961 74.8427 1.44276 75.504 1.1121C76.1654 0.770764 76.928 0.600098 77.792 0.600098C78.688 0.600098 79.4614 0.744098 80.112 1.0321C80.7627 1.3201 81.2534 1.72543 81.584 2.2481C81.9254 2.77076 82.096 3.37876 82.096 4.0721C82.096 4.8401 81.856 5.53343 81.376 6.1521C80.9067 6.77076 80.1867 7.44276 79.216 8.1681L77.888 9.4961H81.936C82.0533 9.4961 82.1494 9.53343 82.224 9.6081C82.2987 9.68277 82.336 9.77877 82.336 9.8961V11.6081C82.336 11.7148 82.2987 11.8108 82.224 11.8961C82.1494 11.9708 82.0533 12.0081 81.936 12.0081H73.6Z" fill="#2D2D2D"/>
<path d="M90.1895 12.0081C90.0829 12.0081 89.9869 11.9708 89.9015 11.8961C89.8269 11.8108 89.7895 11.7148 89.7895 11.6081V9.8481H84.8295C84.7229 9.8481 84.6269 9.81077 84.5415 9.7361C84.4669 9.65076 84.4295 9.55476 84.4295 9.4481V7.8321C84.4295 7.6721 84.4882 7.5121 84.6055 7.3521L89.2455 1.0801C89.3949 0.898765 89.5922 0.808098 89.8375 0.808098H92.2695C92.3869 0.808098 92.4829 0.845431 92.5575 0.920098C92.6429 0.994765 92.6855 1.09076 92.6855 1.2081V7.3681H94.0935C94.2215 7.3681 94.3229 7.41077 94.3975 7.4961C94.4722 7.57077 94.5095 7.66143 94.5095 7.7681V9.4481C94.5095 9.55476 94.4722 9.65076 94.3975 9.7361C94.3229 9.81077 94.2269 9.8481 94.1095 9.8481H92.6855V11.6081C92.6855 11.7254 92.6429 11.8214 92.5575 11.8961C92.4829 11.9708 92.3869 12.0081 92.2695 12.0081H90.1895ZM87.2775 7.4801H89.8535V3.8801L87.2775 7.4801Z" fill="#2D2D2D"/>
<path d="M97.1514 12.0081C97.0341 12.0081 96.9327 11.9708 96.8474 11.8961C96.7727 11.8214 96.7354 11.7254 96.7354 11.6081V9.4961C96.7354 9.37877 96.7727 9.28277 96.8474 9.2081C96.9327 9.12276 97.0341 9.0801 97.1514 9.0801H99.2634C99.3807 9.0801 99.4767 9.12276 99.5514 9.2081C99.6261 9.28277 99.6634 9.37877 99.6634 9.4961V11.6081C99.6634 11.7148 99.6261 11.8108 99.5514 11.8961C99.4767 11.9708 99.3807 12.0081 99.2634 12.0081H97.1514Z" fill="#2D2D2D"/>
<path d="M107.116 12.1681C105.59 12.1681 104.39 11.8001 103.516 11.0641C102.652 10.3281 102.193 9.25076 102.14 7.8321C102.129 7.5441 102.124 7.07477 102.124 6.4241C102.124 5.76277 102.129 5.28276 102.14 4.9841C102.193 3.59743 102.657 2.53076 103.532 1.7841C104.417 1.02676 105.612 0.648098 107.116 0.648098C108.065 0.648098 108.913 0.802765 109.66 1.1121C110.417 1.42143 111.014 1.86943 111.452 2.4561C111.889 3.04276 112.118 3.7361 112.14 4.5361C112.14 4.6321 112.102 4.7121 112.028 4.7761C111.964 4.8401 111.884 4.8721 111.788 4.8721H109.516C109.366 4.8721 109.254 4.84543 109.18 4.7921C109.116 4.7281 109.057 4.6161 109.004 4.4561C108.854 3.93343 108.625 3.57076 108.316 3.3681C108.017 3.15477 107.617 3.0481 107.116 3.0481C105.91 3.0481 105.286 3.7201 105.244 5.0641C105.233 5.3521 105.228 5.79476 105.228 6.3921C105.228 6.98943 105.233 7.44276 105.244 7.7521C105.286 9.0961 105.91 9.7681 107.116 9.7681C107.606 9.7681 108.006 9.66143 108.316 9.4481C108.636 9.23477 108.865 8.8721 109.004 8.3601C109.046 8.2001 109.105 8.09343 109.18 8.0401C109.254 7.9761 109.366 7.9441 109.516 7.9441H111.788C111.884 7.9441 111.964 7.9761 112.028 8.0401C112.102 8.1041 112.14 8.1841 112.14 8.2801C112.118 9.0801 111.889 9.77343 111.452 10.3601C111.014 10.9468 110.417 11.3948 109.66 11.7041C108.913 12.0134 108.065 12.1681 107.116 12.1681Z" fill="#2D2D2D"/>
<path d="M119.413 12.1681C117.898 12.1681 116.703 11.8001 115.829 11.0641C114.954 10.3281 114.49 9.24543 114.437 7.8161C114.426 7.51743 114.421 7.05876 114.421 6.4401C114.421 5.82143 114.426 5.35743 114.437 5.0481C114.479 3.6401 114.943 2.55743 115.829 1.8001C116.725 1.0321 117.919 0.648098 119.413 0.648098C120.895 0.648098 122.079 1.0321 122.965 1.8001C123.861 2.55743 124.33 3.6401 124.373 5.0481C124.394 5.66676 124.405 6.13076 124.405 6.4401C124.405 6.7601 124.394 7.21876 124.373 7.8161C124.319 9.24543 123.855 10.3281 122.981 11.0641C122.117 11.8001 120.927 12.1681 119.413 12.1681ZM119.413 9.7681C119.967 9.7681 120.41 9.60277 120.741 9.2721C121.071 8.93077 121.247 8.41343 121.269 7.7201C121.29 7.10143 121.301 6.65877 121.301 6.3921C121.301 6.12543 121.29 5.69343 121.269 5.0961C121.247 4.40276 121.071 3.89077 120.741 3.5601C120.41 3.21877 119.967 3.0481 119.413 3.0481C118.847 3.0481 118.399 3.21877 118.069 3.5601C117.738 3.89077 117.562 4.40276 117.541 5.0961C117.53 5.39476 117.525 5.82677 117.525 6.3921C117.525 6.9681 117.53 7.41077 117.541 7.7201C117.562 8.41343 117.738 8.93077 118.069 9.2721C118.399 9.60277 118.847 9.7681 119.413 9.7681Z" fill="#2D2D2D"/>
<path d="M127.626 12.0081C127.509 12.0081 127.407 11.9708 127.322 11.8961C127.247 11.8214 127.21 11.7254 127.21 11.6081V1.2241C127.21 1.10676 127.247 1.01076 127.322 0.936098C127.407 0.850765 127.509 0.808098 127.626 0.808098H129.434C129.701 0.808098 129.893 0.925431 130.01 1.1601L132.762 6.0881L135.53 1.1601C135.647 0.925431 135.839 0.808098 136.106 0.808098H137.914C138.031 0.808098 138.127 0.850765 138.202 0.936098C138.287 1.01076 138.33 1.10676 138.33 1.2241V11.6081C138.33 11.7254 138.287 11.8214 138.202 11.8961C138.127 11.9708 138.031 12.0081 137.914 12.0081H135.882C135.775 12.0081 135.679 11.9708 135.594 11.8961C135.519 11.8108 135.482 11.7148 135.482 11.6081V5.7841L133.754 8.9521C133.615 9.19743 133.429 9.3201 133.194 9.3201H132.33C132.117 9.3201 131.93 9.19743 131.77 8.9521L130.058 5.7841V11.6081C130.058 11.7254 130.015 11.8214 129.93 11.8961C129.855 11.9708 129.759 12.0081 129.642 12.0081H127.626Z" fill="#2D2D2D"/>
<path d="M141.62 12.0081C141.503 12.0081 141.401 11.9708 141.316 11.8961C141.241 11.8214 141.204 11.7254 141.204 11.6081V9.4961C141.204 9.37877 141.241 9.28277 141.316 9.2081C141.401 9.12276 141.503 9.0801 141.62 9.0801H143.732C143.849 9.0801 143.945 9.12276 144.02 9.2081C144.095 9.28277 144.132 9.37877 144.132 9.4961V11.6081C144.132 11.7148 144.095 11.8108 144.02 11.8961C143.945 11.9708 143.849 12.0081 143.732 12.0081H141.62Z" fill="#2D2D2D"/>
<path d="M151.603 12.1681C150.088 12.1681 148.899 11.8001 148.035 11.0641C147.181 10.3281 146.755 9.2241 146.755 7.7521V1.2241C146.755 1.10676 146.792 1.01076 146.867 0.936098C146.941 0.850765 147.037 0.808098 147.155 0.808098H149.347C149.464 0.808098 149.56 0.850765 149.635 0.936098C149.72 1.01076 149.763 1.10676 149.763 1.2241V7.7201C149.763 8.38143 149.917 8.87743 150.227 9.2081C150.547 9.53876 151 9.7041 151.587 9.7041C152.173 9.7041 152.621 9.53876 152.931 9.2081C153.251 8.86677 153.411 8.37077 153.411 7.7201V1.2241C153.411 1.10676 153.448 1.01076 153.523 0.936098C153.608 0.850765 153.709 0.808098 153.827 0.808098H156.003C156.12 0.808098 156.216 0.850765 156.291 0.936098C156.376 1.01076 156.419 1.10676 156.419 1.2241V7.7521C156.419 9.2241 155.992 10.3281 155.139 11.0641C154.285 11.8001 153.107 12.1681 151.603 12.1681Z" fill="#2D2D2D"/>
<path d="M158.602 12.0081C158.516 12.0081 158.436 11.9761 158.362 11.9121C158.298 11.8374 158.266 11.7574 158.266 11.6721C158.266 11.6081 158.271 11.5601 158.282 11.5281L162.01 1.2721C162.116 0.962765 162.33 0.808098 162.65 0.808098H165.146C165.466 0.808098 165.679 0.962765 165.786 1.2721L169.514 11.5281C169.524 11.5601 169.53 11.6081 169.53 11.6721C169.53 11.7574 169.492 11.8374 169.418 11.9121C169.354 11.9761 169.279 12.0081 169.194 12.0081H167.114C166.858 12.0081 166.676 11.8908 166.57 11.6561L165.994 10.1041H161.802L161.226 11.6561C161.119 11.8908 160.938 12.0081 160.682 12.0081H158.602ZM162.474 7.7041H165.322L163.898 3.6241L162.474 7.7041Z" fill="#2D2D2D"/>
<path d="M5.616 21.8562C5.624 21.9362 5.628 22.0642 5.628 22.2402C5.628 22.3922 5.624 22.5002 5.616 22.5642C5.584 23.3722 5.328 24.0202 4.848 24.5082C4.368 24.9962 3.692 25.2402 2.82 25.2402C1.924 25.2402 1.24 24.9882 0.768 24.4842C0.296 23.9722 0.04 23.2682 0 22.3722V20.9322C0.00799999 19.7882 0.16 18.9322 0.456 18.3642C0.76 17.7882 1.184 17.3762 1.728 17.1282C2.28 16.8722 3.172 16.5842 4.404 16.2642L4.728 16.1802L4.788 16.1682C4.844 16.1682 4.896 16.1882 4.944 16.2282C4.992 16.2682 5.024 16.3202 5.04 16.3842L5.136 16.8402L5.148 16.9122C5.148 17.0322 5.084 17.1122 4.956 17.1522C4.86 17.1762 4.648 17.2282 4.32 17.3082C3.408 17.5242 2.748 17.7122 2.34 17.8722C1.94 18.0322 1.632 18.2842 1.416 18.6282C1.2 18.9722 1.08 19.4842 1.056 20.1642C1.248 19.8762 1.52 19.6402 1.872 19.4562C2.224 19.2722 2.6 19.1802 3 19.1802C3.808 19.1802 4.436 19.4282 4.884 19.9242C5.34 20.4122 5.584 21.0562 5.616 21.8562ZM4.512 22.5042C4.52 22.4482 4.524 22.3602 4.524 22.2402C4.524 22.0962 4.52 21.9882 4.512 21.9162C4.496 21.3162 4.344 20.8562 4.056 20.5362C3.768 20.2082 3.392 20.0442 2.928 20.0442C2.4 20.0442 1.972 20.2082 1.644 20.5362C1.316 20.8562 1.14 21.3162 1.116 21.9162L1.104 22.2402L1.116 22.5042C1.14 23.1042 1.3 23.5682 1.596 23.8962C1.9 24.2162 2.308 24.3762 2.82 24.3762C3.324 24.3762 3.728 24.2162 4.032 23.8962C4.336 23.5682 4.496 23.1042 4.512 22.5042Z" fill="#2D2D2D" fill-opacity="0.6"/>
<path d="M11.9289 25.1202C11.8489 25.1202 11.7809 25.0962 11.7249 25.0482C11.6769 24.9922 11.6529 24.9242 11.6529 24.8442V19.1562C11.6529 19.0762 11.6769 19.0122 11.7249 18.9642C11.7809 18.9082 11.8489 18.8802 11.9289 18.8802H12.4569C12.5369 18.8802 12.6009 18.9082 12.6489 18.9642C12.7049 19.0122 12.7329 19.0762 12.7329 19.1562V20.9202H13.9929C14.7769 20.9202 15.3609 21.1082 15.7449 21.4842C16.1369 21.8602 16.3329 22.3842 16.3329 23.0562C16.3329 23.7602 16.1249 24.2802 15.7089 24.6162C15.3009 24.9522 14.6769 25.1202 13.8369 25.1202H11.9289ZM17.4729 25.1202C17.3929 25.1202 17.3249 25.0962 17.2689 25.0482C17.2209 24.9922 17.1969 24.9242 17.1969 24.8442V19.1562C17.1969 19.0762 17.2209 19.0122 17.2689 18.9642C17.3249 18.9082 17.3929 18.8802 17.4729 18.8802H18.0009C18.0809 18.8802 18.1449 18.9082 18.1929 18.9642C18.2489 19.0122 18.2769 19.0762 18.2769 19.1562V24.8442C18.2769 24.9242 18.2489 24.9922 18.1929 25.0482C18.1449 25.0962 18.0809 25.1202 18.0009 25.1202H17.4729ZM13.8969 24.2442C14.3929 24.2442 14.7529 24.1562 14.9769 23.9802C15.2009 23.7962 15.3129 23.4882 15.3129 23.0562C15.3129 22.6322 15.2009 22.3162 14.9769 22.1082C14.7529 21.9002 14.3929 21.7962 13.8969 21.7962H12.7209V24.2442H13.8969Z" fill="#2D2D2D" fill-opacity="0.6"/>
<path d="M27.0864 25.2402C26.2304 25.2402 25.5624 25.0002 25.0824 24.5202C24.6024 24.0322 24.3504 23.3522 24.3264 22.4802L24.3144 22.0002L24.3264 21.5202C24.3504 20.6482 24.6024 19.9722 25.0824 19.4922C25.5624 19.0042 26.2304 18.7602 27.0864 18.7602C27.6624 18.7602 28.1464 18.8642 28.5384 19.0722C28.9384 19.2722 29.2344 19.5242 29.4264 19.8282C29.6264 20.1322 29.7344 20.4362 29.7504 20.7402C29.7584 20.8122 29.7304 20.8762 29.6664 20.9322C29.6104 20.9882 29.5464 21.0162 29.4744 21.0162H28.9464C28.8664 21.0162 28.8064 21.0002 28.7664 20.9682C28.7264 20.9282 28.6864 20.8602 28.6464 20.7642C28.5024 20.3722 28.3024 20.0962 28.0464 19.9362C27.7984 19.7682 27.4824 19.6842 27.0984 19.6842C26.5944 19.6842 26.1944 19.8402 25.8984 20.1522C25.6024 20.4642 25.4424 20.9402 25.4184 21.5802L25.4064 22.0002L25.4184 22.4202C25.4424 23.0602 25.6024 23.5362 25.8984 23.8482C26.1944 24.1602 26.5944 24.3162 27.0984 24.3162C27.4904 24.3162 27.8104 24.2362 28.0584 24.0762C28.3064 23.9082 28.5024 23.6282 28.6464 23.2362C28.6864 23.1402 28.7264 23.0762 28.7664 23.0442C28.8064 23.0042 28.8664 22.9842 28.9464 22.9842H29.4744C29.5464 22.9842 29.6104 23.0122 29.6664 23.0682C29.7304 23.1242 29.7584 23.1882 29.7504 23.2602C29.7344 23.5562 29.6264 23.8562 29.4264 24.1602C29.2344 24.4642 28.9384 24.7202 28.5384 24.9282C28.1464 25.1362 27.6624 25.2402 27.0864 25.2402Z" fill="#2D2D2D" fill-opacity="0.6"/>
<path d="M37.5961 25.1202C37.5161 25.1202 37.4481 25.0962 37.3921 25.0482C37.3441 24.9922 37.3201 24.9242 37.3201 24.8442V19.8042H35.2201C35.1401 19.8042 35.0721 19.7802 35.0161 19.7322C34.9681 19.6842 34.9441 19.6202 34.9441 19.5402V19.1562C34.9441 19.0762 34.9681 19.0122 35.0161 18.9642C35.0721 18.9082 35.1401 18.8802 35.2201 18.8802H40.4881C40.5681 18.8802 40.6321 18.9082 40.6801 18.9642C40.7281 19.0122 40.7521 19.0762 40.7521 19.1562V19.5402C40.7521 19.6202 40.7281 19.6842 40.6801 19.7322C40.6321 19.7802 40.5681 19.8042 40.4881 19.8042H38.3881V24.8442C38.3881 24.9242 38.3601 24.9922 38.3041 25.0482C38.2561 25.0962 38.1921 25.1202 38.1121 25.1202H37.5961Z" fill="#2D2D2D" fill-opacity="0.6"/>
<path d="M46.605 27.4002C46.525 27.4002 46.457 27.3762 46.401 27.3282C46.353 27.2802 46.329 27.2122 46.329 27.1242V19.1562C46.329 19.0682 46.353 19.0002 46.401 18.9522C46.457 18.9042 46.525 18.8802 46.605 18.8802H47.109C47.197 18.8802 47.265 18.9042 47.313 18.9522C47.361 19.0002 47.385 19.0682 47.385 19.1562V19.6842C47.849 19.0682 48.509 18.7602 49.365 18.7602C50.205 18.7602 50.833 19.0282 51.249 19.5642C51.673 20.0922 51.897 20.7682 51.921 21.5922C51.929 21.6802 51.933 21.8162 51.933 22.0002C51.933 22.1842 51.929 22.3202 51.921 22.4082C51.897 23.2242 51.673 23.9002 51.249 24.4362C50.833 24.9722 50.205 25.2402 49.365 25.2402C48.509 25.2402 47.861 24.9362 47.421 24.3282V27.1242C47.421 27.2042 47.393 27.2682 47.337 27.3162C47.289 27.3722 47.225 27.4002 47.145 27.4002H46.605ZM49.137 24.3042C49.713 24.3042 50.133 24.1242 50.397 23.7642C50.661 23.4042 50.805 22.9322 50.829 22.3482C50.837 22.2682 50.841 22.1522 50.841 22.0002C50.841 20.4642 50.273 19.6962 49.137 19.6962C48.577 19.6962 48.153 19.8842 47.865 20.2602C47.585 20.6282 47.437 21.0642 47.421 21.5682C47.413 21.6562 47.409 21.8122 47.409 22.0362C47.409 22.2602 47.413 22.4162 47.421 22.5042C47.437 22.9922 47.589 23.4162 47.877 23.7762C48.173 24.1282 48.593 24.3042 49.137 24.3042Z" fill="#2D2D2D" fill-opacity="0.6"/>
<path d="M59.67 25.2402C59.278 25.2402 58.914 25.1602 58.578 25.0002C58.25 24.8402 57.986 24.6242 57.786 24.3522C57.594 24.0722 57.498 23.7642 57.498 23.4282C57.498 22.9002 57.714 22.4682 58.146 22.1322C58.578 21.7962 59.166 21.5722 59.91 21.4602L61.71 21.2082V20.8602C61.71 20.0362 61.234 19.6242 60.282 19.6242C59.914 19.6242 59.618 19.7002 59.394 19.8522C59.17 19.9962 59.006 20.1682 58.902 20.3682C58.87 20.4482 58.834 20.5042 58.794 20.5362C58.762 20.5602 58.714 20.5722 58.65 20.5722H58.182C58.11 20.5722 58.046 20.5482 57.99 20.5002C57.942 20.4442 57.918 20.3802 57.918 20.3082C57.918 20.1242 58.002 19.9122 58.17 19.6722C58.346 19.4242 58.614 19.2122 58.974 19.0362C59.334 18.8522 59.774 18.7602 60.294 18.7602C61.19 18.7602 61.83 18.9682 62.214 19.3842C62.606 19.8002 62.802 20.3202 62.802 20.9442V24.8442C62.802 24.9242 62.774 24.9922 62.718 25.0482C62.67 25.0962 62.606 25.1202 62.526 25.1202H61.998C61.918 25.1202 61.854 25.0962 61.806 25.0482C61.758 24.9922 61.734 24.9242 61.734 24.8442V24.3162C61.558 24.5802 61.302 24.8002 60.966 24.9762C60.63 25.1522 60.198 25.2402 59.67 25.2402ZM59.91 24.3642C60.438 24.3642 60.87 24.1922 61.206 23.8482C61.542 23.5042 61.71 23.0042 61.71 22.3482V22.0122L60.306 22.2162C59.73 22.2962 59.294 22.4322 58.998 22.6242C58.702 22.8162 58.554 23.0562 58.554 23.3442C58.554 23.6722 58.686 23.9242 58.95 24.1002C59.222 24.2762 59.542 24.3642 59.91 24.3642Z" fill="#2D2D2D" fill-opacity="0.6"/>
<path d="M73.4557 18.8802C73.5357 18.8802 73.5997 18.9082 73.6477 18.9642C73.7037 19.0122 73.7317 19.0762 73.7317 19.1562V24.8442C73.7317 24.9242 73.7037 24.9922 73.6477 25.0482C73.5997 25.0962 73.5357 25.1202 73.4557 25.1202H72.9157C72.8357 25.1202 72.7677 25.0962 72.7117 25.0482C72.6637 24.9922 72.6397 24.9242 72.6397 24.8442V22.8762H71.3437L69.9637 24.9402C69.9317 24.9882 69.8877 25.0322 69.8317 25.0722C69.7757 25.1042 69.7157 25.1202 69.6517 25.1202H69.1117C69.0477 25.1202 68.9917 25.0962 68.9437 25.0482C68.8957 25.0002 68.8717 24.9442 68.8717 24.8802C68.8717 24.8002 68.8997 24.7242 68.9557 24.6522L70.2997 22.6842C69.8837 22.5402 69.5677 22.3082 69.3517 21.9882C69.1437 21.6682 69.0397 21.2842 69.0397 20.8362C69.0397 20.1722 69.2357 19.6802 69.6277 19.3602C70.0277 19.0402 70.6277 18.8802 71.4277 18.8802H73.4557ZM72.6517 19.7562H71.3797C70.9157 19.7562 70.5797 19.8402 70.3717 20.0082C70.1637 20.1682 70.0597 20.4442 70.0597 20.8362C70.0597 21.1882 70.1597 21.4722 70.3597 21.6882C70.5677 21.8962 70.8757 22.0002 71.2837 22.0002H72.6517V19.7562Z" fill="#2D2D2D" fill-opacity="0.6"/>
<path d="M87.1247 26.4402C87.0447 26.4402 86.9767 26.4162 86.9207 26.3682C86.8727 26.3202 86.8487 26.2522 86.8487 26.1642V24.4602C86.8487 24.3802 86.8727 24.3162 86.9207 24.2682C86.9767 24.2122 87.0447 24.1842 87.1247 24.1842H87.1847C87.5207 24.1842 87.7727 23.9042 87.9407 23.3442C88.1167 22.7842 88.2047 21.9002 88.2047 20.6922V19.1562C88.2047 19.0762 88.2287 19.0122 88.2767 18.9642C88.3327 18.9082 88.4007 18.8802 88.4807 18.8802H92.2727C92.3607 18.8802 92.4287 18.9042 92.4767 18.9522C92.5247 19.0002 92.5487 19.0682 92.5487 19.1562V24.1722H93.1127C93.2007 24.1722 93.2687 24.1962 93.3167 24.2442C93.3647 24.2922 93.3887 24.3602 93.3887 24.4482V26.1642C93.3887 26.2522 93.3647 26.3202 93.3167 26.3682C93.2687 26.4162 93.2007 26.4402 93.1127 26.4402H92.5847C92.5047 26.4402 92.4407 26.4122 92.3927 26.3562C92.3447 26.3082 92.3207 26.2442 92.3207 26.1642V25.1202H87.9287V26.1642C87.9287 26.2442 87.9007 26.3082 87.8447 26.3562C87.7967 26.4122 87.7327 26.4402 87.6527 26.4402H87.1247ZM91.4687 24.1722V19.8042H89.2607V20.8122C89.2607 22.4442 89.0287 23.5682 88.5647 24.1842L91.4687 24.1722Z" fill="#2D2D2D" fill-opacity="0.6"/>
<path d="M101.689 25.2402C100.809 25.2402 100.129 24.9922 99.6488 24.4962C99.1768 24.0002 98.9248 23.3402 98.8928 22.5162L98.8808 22.0002L98.8928 21.4842C98.9248 20.6602 99.1808 20.0002 99.6608 19.5042C100.149 19.0082 100.825 18.7602 101.689 18.7602C102.553 18.7602 103.225 19.0082 103.705 19.5042C104.193 20.0002 104.453 20.6602 104.485 21.4842C104.501 21.6602 104.509 21.8322 104.509 22.0002C104.509 22.1682 104.501 22.3402 104.485 22.5162C104.453 23.3402 104.197 24.0002 103.717 24.4962C103.245 24.9922 102.569 25.2402 101.689 25.2402ZM101.689 24.3402C102.201 24.3402 102.605 24.1802 102.901 23.8602C103.205 23.5322 103.369 23.0642 103.393 22.4562C103.401 22.3762 103.405 22.2242 103.405 22.0002C103.405 21.7762 103.401 21.6242 103.393 21.5442C103.369 20.9362 103.205 20.4722 102.901 20.1522C102.605 19.8242 102.201 19.6602 101.689 19.6602C101.177 19.6602 100.769 19.8242 100.465 20.1522C100.169 20.4722 100.009 20.9362 99.9848 21.5442L99.9728 22.0002L99.9848 22.4562C100.009 23.0642 100.169 23.5322 100.465 23.8602C100.769 24.1802 101.177 24.3402 101.689 24.3402Z" fill="#2D2D2D" fill-opacity="0.6"/>
<path d="M113.02 25.2402C112.164 25.2402 111.496 25.0002 111.016 24.5202C110.536 24.0322 110.284 23.3522 110.26 22.4802L110.248 22.0002L110.26 21.5202C110.284 20.6482 110.536 19.9722 111.016 19.4922C111.496 19.0042 112.164 18.7602 113.02 18.7602C113.596 18.7602 114.08 18.8642 114.472 19.0722C114.872 19.2722 115.168 19.5242 115.36 19.8282C115.56 20.1322 115.668 20.4362 115.684 20.7402C115.692 20.8122 115.664 20.8762 115.6 20.9322C115.544 20.9882 115.48 21.0162 115.408 21.0162H114.88C114.8 21.0162 114.74 21.0002 114.7 20.9682C114.66 20.9282 114.62 20.8602 114.58 20.7642C114.436 20.3722 114.236 20.0962 113.98 19.9362C113.732 19.7682 113.416 19.6842 113.032 19.6842C112.528 19.6842 112.128 19.8402 111.832 20.1522C111.536 20.4642 111.376 20.9402 111.352 21.5802L111.34 22.0002L111.352 22.4202C111.376 23.0602 111.536 23.5362 111.832 23.8482C112.128 24.1602 112.528 24.3162 113.032 24.3162C113.424 24.3162 113.744 24.2362 113.992 24.0762C114.24 23.9082 114.436 23.6282 114.58 23.2362C114.62 23.1402 114.66 23.0762 114.7 23.0442C114.74 23.0042 114.8 22.9842 114.88 22.9842H115.408C115.48 22.9842 115.544 23.0122 115.6 23.0682C115.664 23.1242 115.692 23.1882 115.684 23.2602C115.668 23.5562 115.56 23.8562 115.36 24.1602C115.168 24.4642 114.872 24.7202 114.472 24.9282C114.08 25.1362 113.596 25.2402 113.02 25.2402Z" fill="#2D2D2D" fill-opacity="0.6"/>
<path d="M123.53 25.1202C123.45 25.1202 123.382 25.0962 123.326 25.0482C123.278 24.9922 123.254 24.9242 123.254 24.8442V19.8042H121.154C121.074 19.8042 121.006 19.7802 120.95 19.7322C120.902 19.6842 120.878 19.6202 120.878 19.5402V19.1562C120.878 19.0762 120.902 19.0122 120.95 18.9642C121.006 18.9082 121.074 18.8802 121.154 18.8802H126.422C126.502 18.8802 126.566 18.9082 126.614 18.9642C126.662 19.0122 126.686 19.0762 126.686 19.1562V19.5402C126.686 19.6202 126.662 19.6842 126.614 19.7322C126.566 19.7802 126.502 19.8042 126.422 19.8042H124.322V24.8442C124.322 24.9242 124.294 24.9922 124.238 25.0482C124.19 25.0962 124.126 25.1202 124.046 25.1202H123.53Z" fill="#2D2D2D" fill-opacity="0.6"/>
<path d="M133.979 25.2402C133.587 25.2402 133.223 25.1602 132.887 25.0002C132.559 24.8402 132.295 24.6242 132.095 24.3522C131.903 24.0722 131.807 23.7642 131.807 23.4282C131.807 22.9002 132.023 22.4682 132.455 22.1322C132.887 21.7962 133.475 21.5722 134.219 21.4602L136.019 21.2082V20.8602C136.019 20.0362 135.543 19.6242 134.591 19.6242C134.223 19.6242 133.927 19.7002 133.703 19.8522C133.479 19.9962 133.315 20.1682 133.211 20.3682C133.179 20.4482 133.143 20.5042 133.103 20.5362C133.071 20.5602 133.023 20.5722 132.959 20.5722H132.491C132.419 20.5722 132.355 20.5482 132.299 20.5002C132.251 20.4442 132.227 20.3802 132.227 20.3082C132.227 20.1242 132.311 19.9122 132.479 19.6722C132.655 19.4242 132.923 19.2122 133.283 19.0362C133.643 18.8522 134.083 18.7602 134.603 18.7602C135.499 18.7602 136.139 18.9682 136.523 19.3842C136.915 19.8002 137.111 20.3202 137.111 20.9442V24.8442C137.111 24.9242 137.083 24.9922 137.027 25.0482C136.979 25.0962 136.915 25.1202 136.835 25.1202H136.307C136.227 25.1202 136.163 25.0962 136.115 25.0482C136.067 24.9922 136.043 24.9242 136.043 24.8442V24.3162C135.867 24.5802 135.611 24.8002 135.275 24.9762C134.939 25.1522 134.507 25.2402 133.979 25.2402ZM134.219 24.3642C134.747 24.3642 135.179 24.1922 135.515 23.8482C135.851 23.5042 136.019 23.0042 136.019 22.3482V22.0122L134.615 22.2162C134.039 22.2962 133.603 22.4322 133.307 22.6242C133.011 22.8162 132.863 23.0562 132.863 23.3442C132.863 23.6722 132.995 23.9242 133.259 24.1002C133.531 24.2762 133.851 24.3642 134.219 24.3642Z" fill="#2D2D2D" fill-opacity="0.6"/>
<path d="M143.624 25.1202C143.544 25.1202 143.476 25.0962 143.42 25.0482C143.372 24.9922 143.348 24.9242 143.348 24.8442V19.1562C143.348 19.0762 143.372 19.0122 143.42 18.9642C143.476 18.9082 143.544 18.8802 143.624 18.8802H146.108C146.828 18.8802 147.38 19.0322 147.764 19.3362C148.156 19.6322 148.352 20.0362 148.352 20.5482C148.352 20.8922 148.288 21.1602 148.16 21.3522C148.032 21.5442 147.832 21.7082 147.56 21.8442C147.848 21.9642 148.072 22.1642 148.232 22.4442C148.4 22.7242 148.484 23.0282 148.484 23.3562C148.484 23.9242 148.284 24.3602 147.884 24.6642C147.484 24.9682 146.92 25.1202 146.192 25.1202H143.624ZM146.024 21.5442C146.416 21.5442 146.728 21.4602 146.96 21.2922C147.192 21.1162 147.308 20.8722 147.308 20.5602C147.308 20.0082 146.88 19.7322 146.024 19.7322H144.404V21.5442H146.024ZM146.096 24.2682C146.496 24.2682 146.812 24.1922 147.044 24.0402C147.284 23.8802 147.404 23.6482 147.404 23.3442C147.404 23.0242 147.296 22.7882 147.08 22.6362C146.864 22.4842 146.536 22.4082 146.096 22.4082H144.404V24.2682H146.096Z" fill="#2D2D2D" fill-opacity="0.6"/>
<path d="M159.711 24.7722C159.743 24.8282 159.759 24.8802 159.759 24.9282C159.759 25.0562 159.683 25.1202 159.531 25.1202H158.847C158.727 25.1202 158.619 25.0602 158.523 24.9402L156.759 22.4202H155.619V24.8442C155.619 24.9242 155.591 24.9922 155.535 25.0482C155.487 25.0962 155.423 25.1202 155.343 25.1202H154.827C154.747 25.1202 154.679 25.0962 154.623 25.0482C154.575 24.9922 154.551 24.9242 154.551 24.8442V19.1562C154.551 19.0762 154.575 19.0122 154.623 18.9642C154.679 18.9082 154.747 18.8802 154.827 18.8802H155.343C155.431 18.8802 155.499 18.9042 155.547 18.9522C155.595 19.0002 155.619 19.0682 155.619 19.1562V21.4722H156.735L158.379 19.0602C158.459 18.9402 158.563 18.8802 158.691 18.8802H159.279C159.351 18.8802 159.411 18.9002 159.459 18.9402C159.507 18.9722 159.531 19.0162 159.531 19.0722C159.531 19.0882 159.523 19.1122 159.507 19.1442C159.491 19.1682 159.479 19.1922 159.471 19.2162L157.671 21.8682L159.711 24.7722Z" fill="#2D2D2D" fill-opacity="0.6"/>
<path d="M167.178 25.2402C166.786 25.2402 166.422 25.1602 166.086 25.0002C165.758 24.8402 165.494 24.6242 165.294 24.3522C165.102 24.0722 165.006 23.7642 165.006 23.4282C165.006 22.9002 165.222 22.4682 165.654 22.1322C166.086 21.7962 166.674 21.5722 167.418 21.4602L169.218 21.2082V20.8602C169.218 20.0362 168.742 19.6242 167.79 19.6242C167.422 19.6242 167.126 19.7002 166.902 19.8522C166.678 19.9962 166.514 20.1682 166.41 20.3682C166.378 20.4482 166.342 20.5042 166.302 20.5362C166.27 20.5602 166.222 20.5722 166.158 20.5722H165.69C165.618 20.5722 165.554 20.5482 165.498 20.5002C165.45 20.4442 165.426 20.3802 165.426 20.3082C165.426 20.1242 165.51 19.9122 165.678 19.6722C165.854 19.4242 166.122 19.2122 166.482 19.0362C166.842 18.8522 167.282 18.7602 167.802 18.7602C168.698 18.7602 169.338 18.9682 169.722 19.3842C170.114 19.8002 170.31 20.3202 170.31 20.9442V24.8442C170.31 24.9242 170.282 24.9922 170.226 25.0482C170.178 25.0962 170.114 25.1202 170.034 25.1202H169.506C169.426 25.1202 169.362 25.0962 169.314 25.0482C169.266 24.9922 169.242 24.9242 169.242 24.8442V24.3162C169.066 24.5802 168.81 24.8002 168.474 24.9762C168.138 25.1522 167.706 25.2402 167.178 25.2402ZM167.418 24.3642C167.946 24.3642 168.378 24.1922 168.714 23.8482C169.05 23.5042 169.218 23.0042 169.218 22.3482V22.0122L167.814 22.2162C167.238 22.2962 166.802 22.4322 166.506 22.6242C166.21 22.8162 166.062 23.0562 166.062 23.3442C166.062 23.6722 166.194 23.9242 166.458 24.1002C166.73 24.2762 167.05 24.3642 167.418 24.3642Z" fill="#2D2D2D" fill-opacity="0.6"/>
</svg>
