<svg width="32" height="32" viewBox="0 0 32 32" fill="none" xmlns="http://www.w3.org/2000/svg">
<path fill-rule="evenodd" clip-rule="evenodd" d="M22.153 3.927H28.4736C30.2034 3.927 31.6046 5.32813 31.6046 7.05794V24.9404C31.6046 26.6736 30.2034 28.0747 28.4736 28.0747H10.5911C9.28619 28.0747 8.16906 27.279 7.69999 26.1442C8.39903 26.0771 9.03515 25.7211 9.45958 25.1505C10.0658 24.3436 10.77 23.7359 11.5502 23.3253C14.4897 21.7929 16.3189 18.7809 16.3189 15.4648C16.3189 10.5938 12.3616 6.62717 7.4924 6.60678C7.71096 5.09092 9.01451 3.927 10.5911 3.927H16.9114V6.25925C16.9114 6.71294 17.2826 7.08069 17.7328 7.08069H21.3316C21.7852 7.08069 22.153 6.71294 22.153 6.25925V3.927ZM19.9917 23.0443V24.9916C19.9917 25.2639 20.2126 25.4848 20.4849 25.4848H27.7629C28.0352 25.4848 28.2561 25.2639 28.2561 24.9916V23.0443C28.2561 22.772 28.0352 22.551 27.7629 22.551H20.4849C20.2127 22.5511 19.9917 22.772 19.9917 23.0443Z" fill="#9D7B6D"/>
<path fill-rule="evenodd" clip-rule="evenodd" d="M6.89626 24.0791C6.15345 23.0752 5.1897 22.2671 4.09558 21.6749C1.66639 20.3599 0.100388 17.6647 0.441637 14.6381C0.808012 11.4159 3.41808 8.811 6.64026 8.44956C10.9115 7.97281 14.5202 11.3055 14.5202 15.4662C14.5202 18.1966 12.9793 20.5556 10.7158 21.7351C9.6517 22.2922 8.74326 23.1104 8.02051 24.074L8.01808 24.0774C7.73908 24.4535 7.17645 24.4544 6.89626 24.0791ZM7.4582 18.7812C5.63083 18.7812 4.1432 17.2977 4.1432 15.4661C4.1432 13.6388 5.63089 12.1511 7.4582 12.1511C9.28995 12.1511 10.7733 13.6388 10.7733 15.4661C10.7733 17.2978 9.28995 18.7812 7.4582 18.7812Z" fill="#EA0C0C"/>
</svg>
