<svg fill="none" viewBox="0 0 809 360" xmlns="http://www.w3.org/2000/svg" xmlns:xlink="http://www.w3.org/1999/xlink"><clipPath id="a"><path d="m.875 0h808.125v360h-808.125z"/></clipPath><g clip-path="url(#a)"><path d="m752.608 357.396s-38.329.062-96.761.188c-171.12.312-514.89.859-574.858.593-80.468-.375-136.137-208.713 14.33-194.56 163.426 15.334 43.893-78.486 140.16-94.04 104.764-16.955 125.885 48.252 201.119 21.601 102.834-36.438 158.691-23.754 194.486 2.836 39.253 29.175 54.299 75.089 80.663 91.139a21.71 21.71 0 0 0 1.776 1.03c51.201 28.047 74.391 55.201 81.962 79.296 16.882 53.455-42.877 91.917-42.877 91.917z" fill="#ebf3fa"/><path d="m711.745 185.167-388.191 66.039-28.988-34.778 336.511-122.41c39.258 29.174 54.318 75.074 80.668 91.149zm-202.676-82.068-384.139 123.853c11.316-8.254-14.708-53 .572-67.848zm47.245-20.893a9.264 9.264 0 1 0 3.543 17.823 9.264 9.264 0 0 0 -3.543-17.823z" fill="#f8fbff"/><path d="m480.298 112.442h-43.829v213.252h43.829z" fill="#c4d9ed"/><path d="m490.144 112.442h-43.83v213.252h43.83z" fill="#d5e7f7"/><path d="m446.326 124.709h43.819v-12.324h-43.819zm0 26.725h43.819v-12.324h-43.819zm0 26.727h43.819v-12.323h-43.819zm0 26.725h43.819v-12.324h-43.819zm0 26.728h43.819v-12.324h-43.819zm0 26.724h43.819v-12.323h-43.819zm0 26.728h43.819v-12.324h-43.819zm0 26.727h43.819v-12.323h-43.819zm104.039-169.177h-43.83v183.075h43.83z" fill="#c4d9ed"/><path d="m560.207 142.616h-43.83v183.075h43.83z" fill="#d5e7f7"/><path d="m516.389 153.148h43.818v-10.578h-43.818zm0 22.944h43.818v-10.578h-43.818zm0 22.944h43.818v-10.578h-43.818zm0 22.944h43.818v-10.577h-43.818zm0 22.947h43.818v-10.577h-43.818zm0 22.945h43.818v-10.578h-43.818zm0 22.943h43.818v-10.577h-43.818zm0 22.945h43.818v-10.578h-43.818z" fill="#c4d9ed"/><path d="m412.748 345.931h18.356v-26.779h-18.356z" fill="#dceaf9"/><path d="m418.356 282.622v74.344h-195.74l-49.616-.466c-.043-.075-.091-.16-.151-.261l-.286-.503a10.651 10.651 0 0 0 -.121-.212c-.148-.266-.314-.572-.5-.902-.226-.415-.481-.887-.761-1.411a171.34 171.34 0 0 1 -4.005-8.042 194.276 194.276 0 0 1 -2.92-6.585l-.023-.051c-.149-.358-.303-.719-.455-1.091-.151-.372-.314-.758-.475-1.145a220.698 220.698 0 0 1 -2.468-6.35c-.023-.057-.043-.118-.066-.178a191.675 191.675 0 0 1 -1.613-4.527c-.286-.859-.572-1.717-.875-2.605l-.052-.166c-.129-.392-.254-.781-.383-1.179a279.458 279.458 0 0 1 -.964-3.099c-.286-.905-.549-1.826-.818-2.756a187.295 187.295 0 0 1 -1.061-3.858c-.106-.392-.209-.784-.312-1.179a221.46 221.46 0 0 1 -.893-3.589c-.094-.389-.186-.779-.286-1.171-.06-.24-.114-.483-.168-.724a181.54 181.54 0 0 1 -2.415-12.549 167.353 167.353 0 0 1 -1.487-12.567c-.398-4.88-.572-9.891-.501-14.994a139.538 139.538 0 0 1 3.067-27.331c.071-.338.146-.673.22-1.013a146.652 146.652 0 0 1 1.679-6.649c.471-1.692.98-3.383 1.528-5.074.4-1.225.819-2.452 1.258-3.68.994-2.78 2.101-5.559 3.321-8.337h1.044v-2.29c6.633-14.309 16.41-28.505 30.32-41.921l.781-.75h.812v28.439h25.157v-46.361h27.746v30.082h6.345v-35.914h27.745v67.335h35.106v39.263h13.115v9.891h30.128v-17.031h17.3v-46.278h21.367v85.435z" fill="#d5e7f7"/><g fill="#c4d9ed"><path d="m252.217 155.412h27.771v-6.86h-27.771zm0 12.89h27.771v-6.86h-27.771zm0 11.596h27.771v-6.86h-27.771zm-34.078 0h27.771v-6.86h-27.771zm0-11.596h27.771v-6.86h-27.771zm0-11.579h27.771v-6.86h-27.771zm-.009 34.417h61.858v-6.86h-61.858zm0 11.242h61.858v-6.86h-61.858zm157.293 5.394h21.556v-10.589h-21.556zm0 15.75h21.556v-10.589h-21.556zm0 15.749h21.556v-10.589h-21.556zm0 16.508h21.556v-10.589h-21.556zm0 15.998h21.556v-10.589h-21.556zm0 15.995h21.556v-10.589h-21.556zm0 16.737h21.556v-10.589h-21.556zm-157.293-93.648h61.858v-4.356h-61.858z"/><path d="m375.72 197.185h-7.949v46.28h7.949zm-17.399 46.28h-15.987v17.034h15.987zm-140.182-93.6v46.324h-5.518v-45.78l.744-.544zm34.078-5.858h-3.387v35.889h3.387z"/><path d="m304.634 224.733h4.706v-6.636h-4.706zm-8.794 0h4.705v-6.636h-4.705zm-8.606 0h4.705v-6.636h-4.705zm-8.156 0h4.705v-6.636h-4.705zm-8.313 0h4.706v-6.636h-4.706zm-8.406 0h4.705v-6.636h-4.705zm-8.799 0h4.706v-6.636h-4.706zm-8.605 0h4.705v-6.636h-4.705zm-8.154 0h4.705v-6.636h-4.705zm-8.313 0h4.705v-6.636h-4.705zm-8.664 0h4.705v-6.636h-4.705zm-8.795 0h4.705v-6.636h-4.705zm-8.603 0h4.705v-6.636h-4.705zm-8.159 0h4.706v-6.636h-4.706zm-8.312 0h4.705v-6.636h-4.705zm-8.406 0h4.705v-6.636h-4.705zm-8.799 0h4.705v-6.636h-4.705zm-8.602 0h4.706v-6.636h-4.706zm-3.45-3.68v3.681h-1.259c.401-1.225.82-2.452 1.259-3.681zm147.936 15.389h4.706v-6.637h-4.706zm-8.794 0h4.705v-6.637h-4.705zm-8.606 0h4.705v-6.637h-4.705zm-8.156 0h4.705v-6.637h-4.705zm-8.313 0h4.706v-6.637h-4.706zm-8.406 0h4.705v-6.637h-4.705zm-8.799 0h4.706v-6.637h-4.706zm-8.605 0h4.705v-6.637h-4.705zm-8.154 0h4.705v-6.637h-4.705zm-8.313 0h4.705v-6.637h-4.705zm-8.664 0h4.705v-6.637h-4.705zm-8.795 0h4.705v-6.637h-4.705zm-8.603 0h4.705v-6.637h-4.705zm-8.159 0h4.706v-6.637h-4.706zm-8.312 0h4.705v-6.637h-4.705zm-8.406 0h4.705v-6.637h-4.705zm-8.799 0h4.705v-6.637h-4.705zm-8.602 0h4.706v-6.637h-4.706zm-3.449-6.629v6.634h-4.457c.496-2.209 1.051-4.42 1.665-6.634zm147.935 18.16h4.706v-6.637h-4.706zm-8.794 0h4.705v-6.637h-4.705zm-8.606 0h4.705v-6.637h-4.705zm-8.156 0h4.705v-6.637h-4.705zm-8.313 0h4.706v-6.637h-4.706zm-8.406 0h4.705v-6.637h-4.705zm-8.799 0h4.706v-6.637h-4.706zm-8.605 0h4.705v-6.637h-4.705zm-8.154 0h4.705v-6.637h-4.705zm-8.313 0h4.705v-6.637h-4.705zm-8.664 0h4.705v-6.637h-4.705zm-8.795 0h4.705v-6.637h-4.705zm-8.603 0h4.705v-6.637h-4.705zm-8.159 0h4.706v-6.637h-4.706zm-8.312 0h4.705v-6.637h-4.705zm-8.406 0h4.705v-6.637h-4.705zm-8.799 0h4.705v-6.637h-4.705zm-8.602 0h4.706v-6.637h-4.706zm-8.158 0h4.705v-6.637h-4.705zm152.644 12.254h4.706v-6.637h-4.706zm-8.794 0h4.705v-6.637h-4.705zm-8.606 0h4.705v-6.637h-4.705zm-8.156 0h4.705v-6.637h-4.705zm-8.313 0h4.706v-6.637h-4.706zm-8.406 0h4.705v-6.637h-4.705zm-8.799 0h4.706v-6.637h-4.706zm-8.605 0h4.705v-6.637h-4.705zm-8.154 0h4.705v-6.637h-4.705zm-8.313 0h4.705v-6.637h-4.705zm-8.664 0h4.705v-6.637h-4.705zm-8.795 0h4.705v-6.637h-4.705zm-8.603 0h4.705v-6.637h-4.705zm-8.159 0h4.706v-6.637h-4.706zm-8.312 0h4.705v-6.637h-4.705zm-8.406 0h4.705v-6.637h-4.705zm-8.799 0h4.705v-6.637h-4.705zm-8.602 0h4.706v-6.637h-4.706zm-8.158 0h4.705v-6.637h-4.705zm152.644 11.709h4.706v-6.637h-4.706zm-8.794 0h4.705v-6.637h-4.705zm-8.606 0h4.705v-6.637h-4.705zm-8.156 0h4.705v-6.637h-4.705zm-8.313 0h4.706v-6.637h-4.706zm-8.406 0h4.705v-6.637h-4.705zm-8.799 0h4.706v-6.637h-4.706zm-8.605 0h4.705v-6.637h-4.705zm-8.154 0h4.705v-6.637h-4.705zm-8.313 0h4.705v-6.637h-4.705zm-8.664 0h4.705v-6.637h-4.705zm-8.795 0h4.705v-6.637h-4.705zm-8.603 0h4.705v-6.637h-4.705zm-8.159 0h4.706v-6.637h-4.706zm-8.312 0h4.705v-6.637h-4.705zm-8.406 0h4.705v-6.637h-4.705zm-8.799 0h4.705v-6.637h-4.705zm-8.602 0h4.706v-6.637h-4.706zm-8.158 0h4.705v-6.637h-4.705zm152.644 11.527h4.706v-6.636h-4.706zm-8.794 0h4.705v-6.636h-4.705zm-8.606 0h4.705v-6.636h-4.705zm-8.156 0h4.705v-6.636h-4.705zm-8.313 0h4.706v-6.636h-4.706zm-8.406 0h4.705v-6.636h-4.705zm-8.799 0h4.706v-6.636h-4.706zm-8.605 0h4.705v-6.636h-4.705zm-8.154 0h4.705v-6.636h-4.705zm-8.313 0h4.705v-6.636h-4.705zm-8.664 0h4.705v-6.636h-4.705zm-8.795 0h4.705v-6.636h-4.705zm-8.603 0h4.705v-6.636h-4.705zm-8.159 0h4.706v-6.636h-4.706zm-8.312 0h4.705v-6.636h-4.705zm-8.406 0h4.705v-6.636h-4.705zm-8.799 0h4.705v-6.636h-4.705zm-8.602 0h4.706v-6.636h-4.706zm-8.158 0h4.705v-6.636h-4.705z" opacity=".8"/><path d="m233.273 356.488h109.061v-58.867h-109.061z"/><path d="m315.97 356.485h109.061v-29.435h-109.061zm-91.441-49.686v49.698h-51.53c-.043-.075-.092-.16-.152-.261l-.286-.503a7.168 7.168 0 0 0 -.12-.212c-.149-.266-.315-.572-.501-.902-.226-.415-.48-.887-.761-1.411a171.489 171.489 0 0 1 -4.004-8.042 187.46 187.46 0 0 1 -2.921-6.585l-.022-.051c-.149-.358-.304-.719-.455-1.091-.152-.372-.315-.758-.475-1.145a220.626 220.626 0 0 1 -2.469-6.35c-.022-.057-.042-.118-.065-.178a187.227 187.227 0 0 1 -1.614-4.527c-.286-.859-.572-1.717-.875-2.605l-.051-.166c-.129-.392-.255-.781-.384-1.179a279.283 279.283 0 0 1 -.964-3.099c-.286-.905-.549-1.826-.818-2.756a193.855 193.855 0 0 1 -1.061-3.858c-.106-.392-.209-.784-.312-1.179a221.502 221.502 0 0 1 -.892-3.589z"/></g><path d="m314.729 315.417h20.32v-10.904h-20.32zm-26.082 0h20.32v-10.904h-20.32zm-25.588 0h20.32v-10.904h-20.32zm-25.094 0h20.32v-10.904h-20.32z" fill="#d5e7f7"/><path d="m223.937 356.995h10.469v-59.374h-10.469z" fill="#adc9e0"/><path d="m392.119 197.185h.567v-4.608h-.567zm-20.365 0h.566v-4.608h-.566z" fill="#dceaf9"/><path d="m150.068 285.962c.254 2.16.546 4.288.876 6.385.352 2.268.743 4.499 1.172 6.691.382 1.988.796 3.941 1.242 5.858.054.241.108.484.169.725.088.392.18.781.286 1.17.286 1.211.589 2.407.892 3.589.103.395.206.787.312 1.179a164.475 164.475 0 0 0 1.879 6.614 268.856 268.856 0 0 0 .964 3.099l.383 1.18.052.166c.286.881.572 1.748.875 2.604a200.148 200.148 0 0 0 1.613 4.528c.023.06.043.12.066.177a209.277 209.277 0 0 0 2.469 6.351c.16.386.317.769.474 1.144.158.375.307.733.455 1.091l.023.051v-52.602z" fill="#d5e7f7"/><path d="m164.257 305.62v32.947l-.023-.052c-.148-.358-.303-.718-.454-1.09-.152-.372-.315-.759-.475-1.145a216.72 216.72 0 0 1 -2.469-6.351c-.023-.057-.043-.117-.066-.177a193.398 193.398 0 0 1 -1.613-4.528c-.286-.858-.572-1.717-.875-2.604l-.052-.166-.383-1.179a77.966 77.966 0 0 1 -.314-1.002 265.63 265.63 0 0 1 -.65-2.098c-.286-.904-.549-1.825-.818-2.756a193.855 193.855 0 0 1 -1.061-3.858c-.106-.392-.209-.784-.312-1.179a223.994 223.994 0 0 1 -.892-3.588c-.095-.39-.186-.779-.286-1.171z" fill="#d5e7f7"/><path d="m164.257 299.038v16.379h-8.192a193.855 193.855 0 0 1 -1.061-3.858c-.106-.392-.209-.784-.312-1.179a221.502 221.502 0 0 1 -.892-3.589c-.095-.389-.186-.778-.286-1.17a176.348 176.348 0 0 1 -1.41-6.583zm-5.099 21.233v4.951c-.286-.859-.572-1.717-.875-2.605l-.052-.166c-.129-.392-.254-.781-.383-1.179a106.03 106.03 0 0 1 -.315-1.001z" fill="#c4d9ed"/><path d="m155.313 309.235h3.232v-5.595h-3.232z" fill="#adc9e0"/><path d="m404.387 356.008h74.883v-50.387h-74.883z" fill="#d5e7f7"/><path d="m404.387 315.417h74.883v-16.376h-74.883zm65.938 10.274h3.847v-5.423h-3.847zm-7.194 0h3.848v-5.423h-3.848zm-7.031 0h3.847v-5.423h-3.847zm-6.661 0h3.844v-5.423h-3.844zm-6.796 0h3.847v-5.423h-3.847zm-6.875 0h3.847v-5.423h-3.847zm-7.191 0h3.847v-5.423h-3.847zm-7.03 0h3.848v-5.423h-3.848zm-6.668 0h3.848v-5.423h-3.848zm-6.79 0h3.845v-5.423h-3.845zm62.236 9.573h3.847v-5.423h-3.847zm-7.194 0h3.848v-5.423h-3.848zm-7.031 0h3.847v-5.423h-3.847zm-6.661 0h3.844v-5.423h-3.844zm-6.796 0h3.847v-5.423h-3.847zm-6.875 0h3.847v-5.423h-3.847zm-7.191 0h3.847v-5.423h-3.847zm-7.03 0h3.848v-5.423h-3.848zm-6.668 0h3.848v-5.423h-3.848zm-6.79 0h3.845v-5.423h-3.845zm62.236 9.422h3.847v-5.424h-3.847zm-7.194 0h3.848v-5.424h-3.848zm-7.031 0h3.847v-5.424h-3.847zm-6.661 0h3.844v-5.424h-3.844zm-6.796 0h3.847v-5.424h-3.847zm-6.875 0h3.847v-5.424h-3.847zm-7.191 0h3.847v-5.424h-3.847zm-7.03 0h3.848v-5.424h-3.848zm-6.668 0h3.848v-5.424h-3.848zm-6.79 0h3.845v-5.424h-3.845z" fill="#c4d9ed"/><path d="m470.324 309.235h3.233v-5.595h-3.233zm-32.082 0h3.233v-5.595h-3.233zm-25.525 0h3.232v-5.595h-3.232z" fill="#adc9e0"/><path d="m483.975 356.008h74.882v-50.387h-74.882z" fill="#d5e7f7"/><path d="m483.975 315.417h74.882v-16.376h-74.882zm65.934 10.274h3.847v-5.423h-3.847zm-7.19 0h3.847v-5.423h-3.847zm-7.028 0h3.844v-5.423h-3.844zm-6.668 0h3.844v-5.423h-3.844zm-6.796 0h3.847v-5.423h-3.847zm-6.871 0h3.847v-5.423h-3.847zm-7.191 0h3.845v-5.423h-3.845zm-7.031 0h3.845v-5.423h-3.845zm-6.667 0h3.847v-5.423h-3.847zm-6.797 0h3.848v-5.423h-3.848zm62.239 9.573h3.847v-5.423h-3.847zm-7.19 0h3.847v-5.423h-3.847zm-7.028 0h3.844v-5.423h-3.844zm-6.668 0h3.844v-5.423h-3.844zm-6.796 0h3.847v-5.423h-3.847zm-6.871 0h3.847v-5.423h-3.847zm-7.191 0h3.845v-5.423h-3.845zm-7.031 0h3.845v-5.423h-3.845zm-6.667 0h3.847v-5.423h-3.847zm-6.797 0h3.848v-5.423h-3.848zm62.239 9.422h3.847v-5.424h-3.847zm-7.19 0h3.847v-5.424h-3.847zm-7.028 0h3.844v-5.424h-3.844zm-6.668 0h3.844v-5.424h-3.844zm-6.796 0h3.847v-5.424h-3.847zm-6.871 0h3.847v-5.424h-3.847zm-7.191 0h3.845v-5.424h-3.845zm-7.031 0h3.845v-5.424h-3.845zm-6.667 0h3.847v-5.424h-3.847zm-6.797 0h3.848v-5.424h-3.848z" fill="#c4d9ed"/><path d="m549.912 309.235h3.233v-5.595h-3.233zm-32.088 0h3.233v-5.595h-3.233zm-25.519 0h3.232v-5.595h-3.232z" fill="#adc9e0"/><path d="m640.71 356.008h74.882v-50.387h-74.882z" fill="#d5e7f7"/><path d="m640.71 315.417h74.882v-16.376h-74.882zm65.938 10.274h3.844v-5.423h-3.844zm-7.194 0h3.847v-5.423h-3.847zm-7.029 0h3.845v-5.423h-3.845zm-6.667 0h3.847v-5.423h-3.847zm-6.797 0h3.848v-5.423h-3.848zm-6.871 0h3.848v-5.423h-3.848zm-7.189 0h3.847v-5.423h-3.847zm-7.031 0h3.847v-5.423h-3.847zm-6.668 0h3.847v-5.423h-3.847zm-6.793 0h3.847v-5.423h-3.847zm62.239 9.573h3.844v-5.423h-3.844zm-7.194 0h3.847v-5.423h-3.847zm-7.029 0h3.845v-5.423h-3.845zm-6.667 0h3.847v-5.423h-3.847zm-6.797 0h3.848v-5.423h-3.848zm-6.871 0h3.848v-5.423h-3.848zm-7.189 0h3.847v-5.423h-3.847zm-7.031 0h3.847v-5.423h-3.847zm-6.668 0h3.847v-5.423h-3.847zm-6.793 0h3.847v-5.423h-3.847zm62.239 9.422h3.844v-5.424h-3.844zm-7.194 0h3.847v-5.424h-3.847zm-7.029 0h3.845v-5.424h-3.845zm-6.667 0h3.847v-5.424h-3.847zm-6.797 0h3.848v-5.424h-3.848zm-6.871 0h3.848v-5.424h-3.848zm-7.189 0h3.847v-5.424h-3.847zm-7.031 0h3.847v-5.424h-3.847zm-6.668 0h3.847v-5.424h-3.847zm-6.793 0h3.847v-5.424h-3.847z" fill="#c4d9ed"/><path d="m706.647 309.235h3.232v-5.595h-3.232zm-32.084 0h3.232v-5.595h-3.232zm-25.522 0h3.232v-5.595h-3.232z" fill="#adc9e0"/><path d="m632.734 345.038v-.899c0-1.829 0-3.695-.017-5.243-.017-2.487-.872-4.762-1.831-6.534a18.611 18.611 0 0 0 -2.657-3.72l-2.932-2.381-9.848-7.928-.057-.123c.23-.23.423-.494.572-.784a3.17 3.17 0 0 0 .334-1.431v-5.681a3.191 3.191 0 0 0 -3.18-3.182h-1.019a3.126 3.126 0 0 0 -1.619.457l-6.762-14.595a35.613 35.613 0 0 0 -1.558-5.309c-1.843-4.866-7.077-8.185-13.027-8.185h-50.915v.083h-67.124v72.312h8.349c.738 3.738 2.998 6.479 5.721 6.479h3.761c2.706 0 4.969-2.741 5.721-6.479h17.38c.738 3.738 3 6.479 5.721 6.479h3.761c2.709 0 4.969-2.741 5.721-6.479h39.096a13.543 13.543 0 0 1 -.189-2.31c0-.057.017-.108.017-.166l.172 2.476h1.764c.738 3.738 3.001 6.479 5.721 6.479h3.762c2.708 0 4.968-2.741 5.72-6.479h28.069c.738 3.738 3.001 6.479 5.707 6.479h3.761c2.723 0 4.994-2.77 5.721-6.542a6.82 6.82 0 0 0 6.184-6.794z" fill="#abc6dd"/><path d="m532.785 230.317v14.971a8.38 8.38 0 0 1 -5.173 7.749 8.367 8.367 0 0 1 -3.208.636h-2.683a8.405 8.405 0 0 1 -8.381-8.385v-14.971a8.266 8.266 0 0 1 1.216-4.293v-.02a8.409 8.409 0 0 1 7.165-4.058h2.683a8.406 8.406 0 0 1 8.381 8.371z" fill="#a8302d"/><path d="m531.907 249.032a8.41 8.41 0 0 1 -7.503 4.642h-2.683a8.406 8.406 0 0 1 -8.381-8.386v-14.971c.004-1.515.425-3 1.216-4.293.157.928 3.718 21.451 17.351 23.008z" fill="#a8302d" opacity=".3"/><path d="m399.897 339.886h41.436v-41.841h-43.229z" fill="#661717"/><path d="m530.55 251.441-203.568 5.023v-107.406h133.678c6.25 0 12.379 1.726 17.711 4.987a33.977 33.977 0 0 1 12.512 13.498l8.75 17.083z" fill="#c94c43"/><path d="m414.905 333.081c0 11.359 5.855 23.885 5.855 23.885h9.914c8.707 0 15.769-10.695 15.769-23.885 0-13.191-16.973-23.886-25.683-23.886s-5.855 10.692-5.855 23.886z" fill="#631818"/><path d="m420.76 356.966c8.709 0 15.769-10.694 15.769-23.885 0-13.192-7.06-23.886-15.769-23.886-8.71 0-15.77 10.694-15.77 23.886 0 13.191 7.06 23.885 15.77 23.885z" fill="#822121"/><path d="m420.961 351.074c6.561 0 11.879-8.056 11.879-17.993s-5.318-17.993-11.879-17.993c-6.56 0-11.879 8.056-11.879 17.993s5.319 17.993 11.879 17.993z" fill="#661717"/><path d="m528.885 333.081c0 11.359 5.855 23.885 5.855 23.885h9.914c8.707 0 15.767-10.695 15.767-23.885 0-13.191-16.971-23.886-25.681-23.886s-5.855 10.692-5.855 23.886z" fill="#631818"/><path d="m518.971 333.081c0 13.19 7.059 23.885 15.769 23.885s15.769-10.695 15.769-23.885c0-13.191-7.059-23.886-15.769-23.886s-15.769 10.692-15.769 23.886z" fill="#822121"/><path d="m523.062 333.081c0 9.936 5.318 17.99 11.877 17.99s11.879-8.054 11.879-17.99c0-9.937-5.329-17.982-11.879-17.982s-11.877 8.045-11.877 17.982z" fill="#661717"/><path d="m267.141 333.081c0 11.359 5.855 23.885 5.855 23.885h9.914c8.707 0 15.77-10.695 15.77-23.885 0-13.191-16.974-23.886-25.684-23.886s-5.855 10.692-5.855 23.886z" fill="#631818"/><path d="m257.227 333.081c0 13.19 7.059 23.885 15.769 23.885s15.769-10.695 15.769-23.885c0-13.191-7.059-23.886-15.769-23.886s-15.769 10.692-15.769 23.886z" fill="#822121"/><path d="m261.316 333.081c0 9.936 5.318 17.99 11.88 17.99 6.561 0 11.876-8.054 11.876-17.99 0-9.937-5.309-17.982-11.888-17.982s-11.868 8.045-11.868 17.982z" fill="#661717"/><path d="m576.126 321.808a18.037 18.037 0 0 1 -11.113 16.701 18 18 0 0 1 -6.908 1.378h-116.775c.348-2.01.522-4.046.521-6.085 0-15.454-9.262-27.981-20.664-27.981-11.401 0-20.686 12.535-20.686 27.981a35.453 35.453 0 0 0 .498 6.085h-68.232s-2.749-30.48-2.411-45.766c.286-13.302.286-39.366-.518-45.722 0-.947 65.789-1.059 82.402-1.128 2.254-.022 3.607-.022 3.741-.022l.226.157.249.18c3.064 2.144 20.234 14.181 30.892 21.239 9.397 6.201 78.752 8.726 105.952 9.493 6.759.18 10.927.246 10.927.246a49.202 49.202 0 0 1 7.008 9.831c2.522 4.667 4.776 10.663 4.822 17.223.023 4.081.046 8.998.046 13.82.023.79.023 1.58.023 2.37z" fill="#c94c43"/><path d="m514.134 247.248h-91.484a5.403 5.403 0 0 1 -4.911-3.148l-22.649-50.41a2.504 2.504 0 0 1 2.289-3.517h96.509a5.371 5.371 0 0 1 4.912 3.225l16.224 37.085 4.056 9.267a5.37 5.37 0 0 1 -2.394 6.859 5.36 5.36 0 0 1 -2.552.639z" fill="#a2c2dd"/><path d="m471.527 319.438a81.365 81.365 0 0 1 -.183 4.399c-.652 8.769-9.462 16.049-9.462 16.049h-20.552a36.432 36.432 0 0 0 -2.408-20.448c-3.63-8.16-10.209-13.617-17.735-13.617s-14.127 5.457-17.757 13.617a36.888 36.888 0 0 0 -2.431 20.448h-74.024v-190.822h59.421v37.875s17.823 41.89 25.844 60.332c1.985 4.599 3.381 7.728 3.741 8.412 1.782 3.402 43.192 24.369 50.057 30.548 3.799 3.426 5.689 21.235 5.489 33.207z" fill="#a8302d"/><path d="m387.059 199.234 19.487 48.037h-33.438s-6.864-1.145-7.723-15.168c-.938-14.974-.938-40.811-.938-40.811l14.677-.072c5.581.816 6.456 3.901 7.935 8.014z" fill="#a2c2dd"/><path d="m564.226 278.564h-108.429l-39.591-31.158-.226-.157h109.376l31.141 25.07z" fill="#c94c43"/><path d="m571.236 288.395c-.629 1.036-1.43 1.717-2.32 1.871l-15.211 2.816c-1.285.249-2.289-1.983-1.937-4.292l1.488-10.238.045-.246.287-2.098c.268-1.803 1.058-3.179 2.028-3.563l.878-.337 7.723 6.244a49.184 49.184 0 0 1 7.019 9.843z" fill="#c4d9ed"/><path d="m469.836 296.872-9.803-.971a7.686 7.686 0 0 1 -6.805-6.296l-2.253-12.398a1.67 1.67 0 0 1 -.046-.572c6.988 4.006 12.872 7.598 15.097 9.604 1.625 1.457 2.906 5.515 3.81 10.633z" fill="#a8302d"/><path d="m488.447 298.72-18.592-1.849h-.023l-9.803-.97a7.682 7.682 0 0 1 -6.804-6.296l-2.254-12.398a1.696 1.696 0 0 1 -.046-.572v-.023a4.126 4.126 0 0 1 4.957-4.193l28.97 5.876a4.982 4.982 0 0 1 3.807 3.56l3.404 12.592a3.401 3.401 0 0 1 -.683 3.09 3.396 3.396 0 0 1 -2.933 1.183z" fill="#c4d9ed"/><path d="m499.639 184.624h-112.96a65.41 65.41 0 0 0 -3.272-15.483c-2.523-7.293-6.882-15.429-14.516-20.071h92.304c15.049 0 28.381 8.039 33.678 20.071.244.487.461.986.653 1.496a94.262 94.262 0 0 1 4.113 13.987z" fill="#c94c43"/><path d="m469.858 296.872-9.826-.971a7.678 7.678 0 0 1 -6.804-6.296l-2.254-12.398a1.81 1.81 0 0 1 -.046-.609c6.988 4.035 12.872 7.621 15.097 9.627 1.625 1.471 2.906 5.529 3.833 10.647z" fill="#a2c2dd"/><path d="m576.124 321.808c.02 9.985-8.452 18.079-18.907 18.079h-115.889a36.426 36.426 0 0 0 -2.408-20.449h137.178c.026.79.026 1.58.026 2.37zm-175.623 11.994a35.453 35.453 0 0 0 .498 6.085h-74.024v-20.449h76.455a35.756 35.756 0 0 0 -2.929 14.364zm99.283-54.357h44.336c1.43 0 2.5 1.912 2.288 4.03l-1.573 15.417c-.231 2.27-1.522 3.944-3.038 3.944h-36.532c-2.343 0-4.408-2.321-5.089-5.724l-2.632-13.108c-.457-2.263.667-4.559 2.24-4.559z" fill="#8e2323" opacity=".3"/><path d="m515.013 230.474c-52.299-2.681-87.673-30.682-98.357-40.31h77.231a5.369 5.369 0 0 1 4.911 3.225z" fill="#c4d9ed"/><path d="m347.895 149.058h-197.819v190.843h197.819z" fill="#bb0a0a"/><path d="m396.63 222.599s1.691 19.409-7.886 24.724h17.892z" fill="#631818"/><path d="m399.259 235.589s-4.042-2.879-4.388-5.263v13.574h5.286z" fill="#631818"/><path d="m394.868 230.317v14.971a8.385 8.385 0 0 1 -2.454 5.933 8.36 8.36 0 0 1 -5.93 2.452h-2.68a8.409 8.409 0 0 1 -8.384-8.385v-14.971a8.275 8.275 0 0 1 1.218-4.293v-.02a8.41 8.41 0 0 1 7.151-4.058h2.681a8.41 8.41 0 0 1 8.398 8.371z" fill="#c94c43"/><path d="m393.99 249.032a8.419 8.419 0 0 1 -7.506 4.642h-2.68a8.41 8.41 0 0 1 -8.384-8.386v-14.971a8.28 8.28 0 0 1 1.218-4.293c.158.928 3.719 21.451 17.352 23.008z" fill="#8e2323" opacity=".3"/><path d="m214.687 339.901h-48.661c-1.03-4.393-4.125-35.689 23.146-35.689 24.783.012 26.605 28.551 25.515 35.689z" fill="#661717"/><path d="m181.256 333.081c0 11.359 5.855 23.885 5.855 23.885h9.914c8.71 0 15.77-10.695 15.77-23.885 0-13.191-16.974-23.886-25.684-23.886s-5.855 10.692-5.855 23.886z" fill="#631818"/><path d="m171.354 333.081c0 13.19 7.059 23.885 15.766 23.885s15.769-10.695 15.769-23.885c0-13.191-7.059-23.886-15.769-23.886s-15.766 10.692-15.766 23.886z" fill="#822121"/><path d="m175.434 333.081c0 9.936 5.317 17.99 11.879 17.99 6.561 0 11.876-8.054 11.876-17.99 0-9.937-5.317-17.982-11.876-17.982s-11.879 8.045-11.879 17.982z" fill="#661717"/><path d="m499.638 184.624h-112.959a65.46 65.46 0 0 0 -3.273-15.483h111.458c.243.487.461.987.652 1.496a94.056 94.056 0 0 1 4.122 13.987z" fill="#8e2323" opacity=".3"/><path d="m403.429 31.015c-9.8 0-19.198 3.896-26.127 10.829a36.982 36.982 0 0 0 -10.823 26.141c0 20.417 36.95 65.825 36.95 65.825s36.95-45.396 36.95-65.825a36.982 36.982 0 0 0 -10.822-26.142 36.94 36.94 0 0 0 -26.128-10.828zm0 53.876a17.278 17.278 0 0 1 -16.939-20.652 17.276 17.276 0 0 1 13.57-13.577 17.26 17.26 0 0 1 17.729 7.348 17.285 17.285 0 0 1 -2.148 21.819 17.271 17.271 0 0 1 -12.212 5.062z" fill="#ea0c0c"/><path d="m329.838 265.21a.713.713 0 0 1 -.547-.258l-.886-1.073a.71.71 0 1 1 1.095-.904l.884 1.07a.705.705 0 0 1 .098.757.713.713 0 0 1 -.644.408zm-2.088-2.536a.703.703 0 0 1 -.55-.257l-1.198-1.469a.708.708 0 0 1 .62-1.155.709.709 0 0 1 .478.257l1.199 1.465a.705.705 0 0 1 .13.245c.027.089.036.183.027.275a.723.723 0 0 1 -.257.479.703.703 0 0 1 -.449.16zm-2.392-2.933a.717.717 0 0 1 -.552-.264c-.394-.486-.789-.981-1.19-1.479a.71.71 0 0 1 1.107-.887c.398.498.793.987 1.184 1.473a.704.704 0 0 1 -.176 1.035.7.7 0 0 1 -.373.11zm-2.368-2.957a.705.705 0 0 1 -.555-.269l-1.176-1.491a.714.714 0 0 1 .121-1.004.71.71 0 0 1 1.003.12l1.168 1.485a.715.715 0 0 1 .077.745.706.706 0 0 1 -.632.4zm-2.323-2.982a.696.696 0 0 1 -.572-.286 77.287 77.287 0 0 1 -1.144-1.505.728.728 0 0 1 -.043-.794.712.712 0 0 1 1.187-.065c.383.507.767 1.005 1.144 1.5a.706.706 0 0 1 .074.752.708.708 0 0 1 -.646.392zm-2.288-3.011a.71.71 0 0 1 -.572-.286c-.378-.503-.758-1.013-1.144-1.522a.716.716 0 0 1 1.144-.859c.375.509.752 1.016 1.127 1.514a.718.718 0 0 1 .045.789.72.72 0 0 1 -.185.207.72.72 0 0 1 -.435.157zm-2.251-3.045a.714.714 0 0 1 -.572-.286c-.369-.509-.741-1.024-1.11-1.542a.722.722 0 0 1 -.149-.257c-.031-.095-.041-.195-.031-.295a.717.717 0 0 1 .291-.501.716.716 0 0 1 .568-.117.708.708 0 0 1 .465.345c.368.515.736 1.026 1.104 1.531a.717.717 0 0 1 .059.74.71.71 0 0 1 -.631.388zm-2.203-3.082a.726.726 0 0 1 -.32-.075.723.723 0 0 1 -.252-.211c-.36-.518-.723-1.039-1.084-1.563a.7.7 0 0 1 -.113-.531.707.707 0 0 1 .551-.565.698.698 0 0 1 .534.099.7.7 0 0 1 .198.193c.358.521.715 1.036 1.076 1.551a.71.71 0 0 1 -.172.988.72.72 0 0 1 -.438.114zm-2.145-3.12a.701.701 0 0 1 -.589-.311 228.76 228.76 0 0 1 -1.053-1.583.72.72 0 0 1 -.111-.538.71.71 0 0 1 1.102-.446.705.705 0 0 1 .193.203c.347.526.696 1.049 1.047 1.568a.712.712 0 0 1 -.609 1.11zm-2.082-3.148a.706.706 0 0 1 -.598-.323 145.76 145.76 0 0 1 -1.021-1.606.709.709 0 1 1 1.201-.755c.336.536.673 1.066 1.013 1.591a.723.723 0 0 1 .097.535.72.72 0 0 1 -.309.447.704.704 0 0 1 -.403.097zm-2.003-3.205a.705.705 0 0 1 -.603-.338c-.332-.541-.661-1.082-.987-1.628a.704.704 0 0 1 .242-.979.708.708 0 0 1 .977.252c.322.54.647 1.077.975 1.611a.717.717 0 0 1 .015.718.706.706 0 0 1 -.619.364zm-1.939-3.251a.702.702 0 0 1 -.615-.355 170.49 170.49 0 0 1 -.944-1.651.71.71 0 0 1 1.236-.696c.309.547.621 1.093.935 1.634.047.081.078.17.091.262a.718.718 0 0 1 -.348.709.71.71 0 0 1 -.389.083zm-1.859-3.3a.702.702 0 0 1 -.624-.369c-.303-.557-.603-1.117-.901-1.68a.714.714 0 0 1 .063-.803.719.719 0 0 1 .491-.26.703.703 0 0 1 .527.173c.072.063.131.14.172.226.286.572.592 1.11.895 1.663a.713.713 0 0 1 -.286.964.7.7 0 0 1 -.371.072zm-1.774-3.357a.71.71 0 0 1 -.632-.386c-.29-.573-.576-1.145-.858-1.718a.707.707 0 0 1 .327-.943.712.712 0 0 1 .946.317c.277.572.563 1.135.858 1.688a.708.708 0 0 1 -.675 1.028zm-1.67-3.406a.713.713 0 0 1 -.644-.406c-.269-.573-.537-1.145-.798-1.717a.718.718 0 0 1 -.049-.569.717.717 0 0 1 .67-.481.697.697 0 0 1 .672.477c.258.573.521 1.145.79 1.717a.715.715 0 0 1 -.338.945.726.726 0 0 1 -.337.02zm-1.562-3.451a.71.71 0 0 1 -.652-.43 67.145 67.145 0 0 1 -.741-1.757.71.71 0 0 1 .372-.957.708.708 0 0 1 .79.173c.065.07.116.153.148.243.24.573.485 1.151.732 1.735a.698.698 0 0 1 -.14.776.709.709 0 0 1 -.229.157.685.685 0 0 1 -.314.045zm-1.43-3.503a.706.706 0 0 1 -.661-.452c-.232-.594-.458-1.188-.678-1.783a.714.714 0 0 1 .412-.932.706.706 0 0 1 .918.439c.218.588.441 1.174.67 1.758a.701.701 0 0 1 -.17.77.662.662 0 0 1 -.54.185zm-1.313-3.552a.706.706 0 0 1 -.669-.478 67.398 67.398 0 0 1 -.61-1.809.715.715 0 0 1 .194-.789.702.702 0 0 1 .533-.174c.096.009.19.037.274.084a.698.698 0 0 1 .347.442c.19.595.391 1.188.6 1.78a.71.71 0 0 1 -.437.904.74.74 0 0 1 -.281.026zm-1.173-3.6a.709.709 0 0 1 -.68-.504 84.253 84.253 0 0 1 -.533-1.832.713.713 0 0 1 .482-.906.716.716 0 0 1 .553.072.703.703 0 0 1 .33.451c.169.598.346 1.205.526 1.803.028.089.037.183.028.275a.703.703 0 0 1 -.5.609.718.718 0 0 1 -.257.017zm-1.021-3.646a.705.705 0 0 1 -.686-.533 75.683 75.683 0 0 1 -.455-1.854.714.714 0 0 1 .54-.812.712.712 0 0 1 .844.488c.138.604.286 1.217.444 1.826a.707.707 0 0 1 -.079.534.707.707 0 0 1 -.431.325.636.636 0 0 1 -.226.011zm-.858-3.686a.713.713 0 0 1 -.695-.573 89.546 89.546 0 0 1 -.366-1.874.717.717 0 0 1 .114-.532.713.713 0 0 1 .987-.18.717.717 0 0 1 .295.457c.111.607.231 1.228.36 1.84a.716.716 0 0 1 -.552.839.63.63 0 0 1 -.189.008zm-.681-3.721a.706.706 0 0 1 -.698-.601c-.1-.63-.191-1.265-.286-1.892a.71.71 0 0 1 1.408-.183c.08.615.171 1.239.268 1.857a.71.71 0 0 1 -.592.81zm-.489-3.758a.712.712 0 0 1 -.704-.635 79.35 79.35 0 0 1 -.174-1.906.707.707 0 0 1 .171-.522.728.728 0 0 1 .49-.248.71.71 0 0 1 .521.171.724.724 0 0 1 .248.49c.049.618.103 1.245.169 1.869a.713.713 0 0 1 -.632.778zm-.286-3.777a.717.717 0 0 1 -.709-.676 82.38 82.38 0 0 1 -.066-1.917.716.716 0 0 1 1.43-.029c0 .621.034 1.251.066 1.875a.71.71 0 0 1 -.675.744zm-.077-3.795a.704.704 0 0 1 -.5-.212.718.718 0 0 1 -.204-.504c0-.638.02-1.282.043-1.912a.717.717 0 0 1 1.239-.462.717.717 0 0 1 .191.514 68.218 68.218 0 0 0 -.043 1.872.71.71 0 0 1 -.775.684zm.143-3.787h-.049a.714.714 0 0 1 -.661-.755c.043-.638.095-1.282.155-1.912a.72.72 0 0 1 .254-.48.715.715 0 0 1 .52-.16.709.709 0 0 1 .639.774c-.06.619-.112 1.248-.152 1.872a.706.706 0 0 1 -.755.641zm.363-3.772a.461.461 0 0 1 -.091 0 .698.698 0 0 1 -.594-.517.712.712 0 0 1 -.019-.276c.081-.629.172-1.267.269-1.894a.714.714 0 0 1 .283-.464.715.715 0 0 1 .992.156c.11.152.156.342.127.528a58.266 58.266 0 0 0 -.263 1.855.711.711 0 0 1 -.753.592zm.592-3.737a.707.707 0 0 1 -.698-.842c.118-.624.246-1.253.384-1.874a.71.71 0 1 1 1.384.306c-.132.607-.26 1.222-.375 1.834a.707.707 0 0 1 -.743.556zm.815-3.695a.787.787 0 0 1 -.174-.02.716.716 0 0 1 -.515-.859c.155-.612.323-1.233.498-1.846a.701.701 0 0 1 .337-.425.71.71 0 0 1 1.027.814 61.801 61.801 0 0 0 -.486 1.806.712.712 0 0 1 -.735.51zm1.036-3.638a.716.716 0 0 1 -.631-.385.71.71 0 0 1 -.047-.542c.192-.601.395-1.211.606-1.814a.713.713 0 0 1 .909-.449.71.71 0 0 1 .43.918 61.632 61.632 0 0 0 -.592 1.777.708.708 0 0 1 -.724.475zm1.25-3.571a.713.713 0 0 1 -.664-.965c.226-.589.467-1.188.71-1.777a.715.715 0 0 1 .385-.384.719.719 0 0 1 .543.002.715.715 0 0 1 .383.385.705.705 0 0 1 -.001.543 48.385 48.385 0 0 0 -.695 1.738.707.707 0 0 1 -.71.438zm1.453-3.495a.714.714 0 0 1 -.596-.325.71.71 0 0 1 -.05-.677c.257-.572.529-1.144.806-1.717a.711.711 0 0 1 1.279.618c-.272.573-.538 1.145-.793 1.698a.707.707 0 0 1 -.695.383zm1.645-3.408a.752.752 0 0 1 -.326-.078.714.714 0 0 1 -.304-.958c.286-.559.592-1.128.899-1.686a.712.712 0 0 1 .965-.279.709.709 0 0 1 .279.966 61.256 61.256 0 0 0 -.881 1.651.712.712 0 0 1 -.681.361zm1.825-3.315a.71.71 0 0 1 -.613-1.067c.318-.544.65-1.093.984-1.637a.706.706 0 0 1 .977-.23.708.708 0 0 1 .231.977 89.938 89.938 0 0 0 -.967 1.605.7.7 0 0 1 -.652.332zm2.002-3.216a.712.712 0 0 1 -.595-1.099c.346-.527.704-1.062 1.064-1.586a.713.713 0 0 1 .732-.292.697.697 0 0 1 .448.307.714.714 0 0 1 -.01.789 70.48 70.48 0 0 0 -1.044 1.557.704.704 0 0 1 -.286.241.723.723 0 0 1 -.369.063zm2.142-3.12a.711.711 0 0 1 -.575-1.125c.369-.512.75-1.03 1.145-1.536a.72.72 0 0 1 1.001-.144.721.721 0 0 1 .279.472.723.723 0 0 1 -.136.53 78.05 78.05 0 0 0 -1.116 1.508.701.701 0 0 1 -.292.227c-.115.048-.242.065-.366.048zm2.289-3.019a.707.707 0 0 1 -.7-.784.707.707 0 0 1 .145-.361c.386-.492.789-.99 1.195-1.482a.706.706 0 0 1 .76-.241.707.707 0 0 1 .473.897.722.722 0 0 1 -.137.245c-.401.487-.795.979-1.179 1.462a.697.697 0 0 1 -.626.244zm2.405-2.919a.71.71 0 0 1 -.642-.416.72.72 0 0 1 .104-.758c.412-.479.831-.956 1.256-1.431a.71.71 0 0 1 1.208.705.7.7 0 0 1 -.15.24c-.42.472-.832.941-1.235 1.413a.72.72 0 0 1 -.609.227zm2.52-2.825a.704.704 0 0 1 -.649-.427.714.714 0 0 1 .131-.767c.427-.46.859-.921 1.308-1.382a.697.697 0 0 1 .504-.249.702.702 0 0 1 .528.197.7.7 0 0 1 .162.237.7.7 0 0 1 -.006.563.706.706 0 0 1 -.167.234c-.439.458-.869.914-1.29 1.368a.701.701 0 0 1 -.589.206zm2.623-2.728a.705.705 0 0 1 -.653-.438.707.707 0 0 1 .153-.772c.444-.447.895-.892 1.353-1.337a.713.713 0 0 1 .505-.201.714.714 0 0 1 .699.721.707.707 0 0 1 -.215.499c-.454.437-.9.877-1.338 1.32a.696.696 0 0 1 -.572.188zm2.718-2.635a.712.712 0 0 1 -.694-.865.707.707 0 0 1 .207-.363c.458-.429.924-.859 1.396-1.291a.72.72 0 0 1 .511-.184.705.705 0 0 1 .676.743.72.72 0 0 1 -.231.491c-.467.427-.927.859-1.382 1.277a.717.717 0 0 1 -.552.172zm2.797-2.548a.706.706 0 0 1 -.688-.88.71.71 0 0 1 .219-.362c.472-.415.95-.832 1.43-1.247a.71.71 0 0 1 .921 1.079l-1.43 1.233a.714.714 0 0 1 -.521.149zm2.86-2.461a.706.706 0 0 1 -.707-.774.71.71 0 0 1 .253-.482c.483-.401.972-.804 1.47-1.205a.712.712 0 0 1 .785-.072.716.716 0 0 1 .367.699.716.716 0 0 1 -.26.478c-.492.397-.977.794-1.456 1.193a.712.712 0 0 1 -.506.143zm2.929-2.395a.707.707 0 0 1 -.668-.466.716.716 0 0 1 .211-.788c.477-.4.952-.813 1.413-1.225a.708.708 0 0 1 1.182.569.718.718 0 0 1 -.235.49c-.472.421-.959.842-1.448 1.254a.71.71 0 0 1 -.509.146zm2.818-2.524a.71.71 0 0 1 -.489-1.222c.449-.43.895-.873 1.327-1.314a.709.709 0 0 1 1.218.488.71.71 0 0 1 -.203.505 59.87 59.87 0 0 1 -1.364 1.348.713.713 0 0 1 -.543.175zm2.646-2.705a.706.706 0 0 1 -.524-1.188c.418-.46.836-.93 1.236-1.399a.716.716 0 0 1 .489-.278.704.704 0 0 1 .713.392.704.704 0 0 1 -.124.805c-.409.483-.838.967-1.267 1.43a.71.71 0 0 1 -.578.218zm2.451-2.879a.706.706 0 0 1 -.633-.4.715.715 0 0 1 .078-.745c.386-.486.767-.984 1.144-1.485a.717.717 0 0 1 .465-.282.704.704 0 0 1 .809.595.718.718 0 0 1 -.129.528c-.378.512-.77 1.028-1.165 1.526a.716.716 0 0 1 -.629.243zm2.243-3.048a.704.704 0 0 1 -.618-.384.718.718 0 0 1 .046-.726 57.33 57.33 0 0 0 1.024-1.56.697.697 0 0 1 .444-.343.707.707 0 0 1 .869.836.7.7 0 0 1 -.115.262 52.015 52.015 0 0 1 -1.05 1.606.711.711 0 0 1 -.655.289zm2.002-3.203a.725.725 0 0 1 -.355-.094.711.711 0 0 1 -.257-.97c.309-.535.615-1.085.907-1.634a.706.706 0 0 1 .959-.294.705.705 0 0 1 .293.96c-.286.573-.615 1.128-.932 1.678a.706.706 0 0 1 -.658.334zm1.776-3.337a.702.702 0 0 1 -.602-.333.709.709 0 0 1 -.036-.688c.269-.573.532-1.128.781-1.692a.709.709 0 0 1 1.299.573 62.269 62.269 0 0 1 -.804 1.737.713.713 0 0 1 -.681.383zm1.525-3.457a.71.71 0 0 1 -.658-.973c.229-.572.449-1.162.658-1.746a.708.708 0 0 1 1.314-.069.734.734 0 0 1 .066.272.735.735 0 0 1 -.044.275 56.44 56.44 0 0 1 -.675 1.792.72.72 0 0 1 -.704.429zm1.276-3.56a.72.72 0 0 1 -.574-.292.71.71 0 0 1 -.104-.635c.188-.59.369-1.19.535-1.789a.701.701 0 0 1 .335-.427.715.715 0 0 1 .787.06.717.717 0 0 1 .245.75 61.8 61.8 0 0 1 -.549 1.838.714.714 0 0 1 -.718.475zm1.021-3.643a.703.703 0 0 1 -.607-.341.696.696 0 0 1 -.083-.538c.146-.6.286-1.213.409-1.823a.711.711 0 0 1 1.288-.247c.104.157.14.349.103.533a57.16 57.16 0 0 1 -.421 1.87.708.708 0 0 1 -.732.531zm.772-3.72a.575.575 0 0 1 -.123 0 .71.71 0 0 1 -.572-.822c.106-.61.203-1.23.286-1.846a.708.708 0 0 1 .802-.605.71.71 0 0 1 .605.802c-.088.63-.188 1.268-.286 1.892a.71.71 0 0 1 -.755.564l.043.014zm.526-3.75h-.077a.696.696 0 0 1 -.477-.26.697.697 0 0 1 -.152-.521c.066-.613.126-1.242.171-1.863a.713.713 0 0 1 .763-.654.709.709 0 0 1 .653.762c-.048.639-.108 1.28-.177 1.906a.712.712 0 0 1 -.749.624zm.286-3.778h-.034a.71.71 0 0 1 -.634-.467.69.69 0 0 1 -.041-.274c.029-.618.049-1.248.06-1.874a.712.712 0 0 1 .728-.703.715.715 0 0 1 .702.728c0 .639-.031 1.282-.063 1.915a.699.699 0 0 1 -.24.497.702.702 0 0 1 -.523.173zm.063-3.786a.71.71 0 0 1 -.709-.701c0-.621-.023-1.254-.049-1.875a.72.72 0 0 1 .687-.744.721.721 0 0 1 .514.19.709.709 0 0 1 .229.497c.026.635.043 1.28.049 1.915a.705.705 0 0 1 -.202.504.704.704 0 0 1 -.499.214zm-.151-3.79a.71.71 0 0 1 -.707-.66 72.107 72.107 0 0 0 -.151-1.87.708.708 0 0 1 1.159-.611c.145.12.236.293.254.48.06.635.111 1.277.154 1.906a.711.711 0 0 1 -.661.756h-.048zm-.355-3.766a.71.71 0 0 1 -.704-.626 69.466 69.466 0 0 0 -.248-1.858.706.706 0 0 1 1.125-.673.712.712 0 0 1 .279.467c.091.627.177 1.265.255 1.895a.71.71 0 0 1 -.621.79l-.086.006zm-.586-3.754a.712.712 0 0 1 -.698-.59 100.43 100.43 0 0 0 -.341-1.846.708.708 0 0 1 .552-.838.71.71 0 0 1 .838.552c.126.63.241 1.26.349 1.88a.709.709 0 0 1 -.572.819.576.576 0 0 1 -.128.023zm-.733-3.72a.709.709 0 0 1 -.692-.556c-.134-.607-.286-1.222-.429-1.826a.718.718 0 0 1 .082-.538.705.705 0 0 1 .975-.24.714.714 0 0 1 .322.437c.151.616.286 1.24.435 1.858a.705.705 0 0 1 -.142.594.707.707 0 0 1 -.551.264v.006zm-.906-3.676a.71.71 0 0 1 -.684-.523 82.355 82.355 0 0 0 -.512-1.806.712.712 0 0 1 1.022-.849.705.705 0 0 1 .337.445c.18.61.357 1.228.52 1.838a.715.715 0 0 1 -.122.615.715.715 0 0 1 -.561.28zm-1.076-3.637a.708.708 0 0 1 -.675-.495 95.333 95.333 0 0 0 -.592-1.786.71.71 0 0 1 1.341-.464c.206.604.41 1.217.601 1.818a.707.707 0 0 1 -.458.892.71.71 0 0 1 -.217.043zm-1.233-3.592a.707.707 0 0 1 -.666-.466 96.06 96.06 0 0 0 -.67-1.76.715.715 0 0 1 .402-.92.71.71 0 0 1 .92.401c.232.59.46 1.191.678 1.79a.698.698 0 0 1 -.421.91.66.66 0 0 1 -.243.054zm-1.387-3.534a.715.715 0 0 1 -.655-.438 85.743 85.743 0 0 0 -.741-1.732.72.72 0 0 1 -.012-.543.706.706 0 0 1 .646-.453.707.707 0 0 1 .665.424c.257.572.509 1.173.752 1.757a.716.716 0 0 1 -.38.93.728.728 0 0 1 -.275.063zm-1.527-3.475a.708.708 0 0 1 -.644-.409 60.49 60.49 0 0 0 -.81-1.697.72.72 0 0 1 -.039-.546.708.708 0 0 1 1.312-.08 78.9 78.9 0 0 1 .824 1.716.709.709 0 0 1 -.346.942.684.684 0 0 1 -.297.083zm-164.453-2.893a.713.713 0 0 1 -.609-1.073c0-.023.363-.61 1.07-1.637a.713.713 0 0 1 .732-.293.715.715 0 0 1 .448.308.707.707 0 0 1 -.01.789 30.871 30.871 0 0 0 -1.019 1.557.708.708 0 0 1 -.612.349zm162.785-.501a.711.711 0 0 1 -.632-.386 66.497 66.497 0 0 0 -.875-1.663.71.71 0 0 1 .296-.943.707.707 0 0 1 .951.267c.303.573.6 1.122.892 1.689a.715.715 0 0 1 -.632 1.036zm-160.636-2.644a.711.711 0 0 1 -.573-1.13c.369-.502.758-1.014 1.159-1.526a.697.697 0 0 1 .474-.28.71.71 0 0 1 .644 1.153c-.389.5-.772 1.004-1.144 1.496a.703.703 0 0 1 -.56.287zm158.837-.69a.704.704 0 0 1 -.618-.36 86.782 86.782 0 0 0 -.941-1.626.709.709 0 1 1 1.221-.724c.324.547.643 1.098.956 1.65a.714.714 0 0 1 -.618 1.06zm-156.509-2.304a.702.702 0 0 1 -.449-.16.714.714 0 0 1 -.1-1c.397-.483.809-.975 1.227-1.464a.709.709 0 1 1 1.078.924c-.412.48-.818.965-1.207 1.431a.712.712 0 0 1 -.549.269zm154.581-.956a.709.709 0 0 1 -.604-.335 79.098 79.098 0 0 0 -1.004-1.588.71.71 0 0 1 1.193-.77c.343.532.683 1.07 1.018 1.611a.694.694 0 0 1 .088.536.712.712 0 0 1 -.691.546zm-152.116-1.922a.718.718 0 0 1 -.641-.402.714.714 0 0 1 -.029-.542.711.711 0 0 1 .141-.238c.421-.472.858-.947 1.288-1.411a.707.707 0 0 1 1-.034.708.708 0 0 1 .038 1.001c-.426.458-.858.925-1.267 1.388a.714.714 0 0 1 -.53.238zm150.062-1.254a.708.708 0 0 1 -.589-.312c-.349-.517-.703-1.032-1.061-1.545a.707.707 0 0 1 -.1-.844.71.71 0 0 1 1.244.028c.366.52.726 1.042 1.081 1.569a.714.714 0 0 1 -.192.984.7.7 0 0 1 -.383.12zm-147.481-1.52a.71.71 0 0 1 -.51-1.201c.431-.447.879-.899 1.342-1.357a.71.71 0 1 1 .998 1.008 93.2 93.2 0 0 0 -1.321 1.334.7.7 0 0 1 -.509.215zm145.307-1.57a.715.715 0 0 1 -.572-.287c-.368-.498-.743-1-1.124-1.505a.71.71 0 0 1 1.127-.859c.383.504.764 1.013 1.144 1.523a.715.715 0 0 1 -.151.993.7.7 0 0 1 -.424.134zm-142.619-1.097a.7.7 0 0 1 -.512-.217.707.707 0 0 1 -.136-.778.721.721 0 0 1 .159-.227 85.25 85.25 0 0 1 1.393-1.305.71.71 0 0 1 .958 1.048c-.469.432-.926.858-1.373 1.285a.7.7 0 0 1 -.489.194zm140.328-1.903a.7.7 0 0 1 -.555-.269c-.389-.486-.786-.973-1.181-1.45a.71.71 0 1 1 1.09-.908c.403.483.806.981 1.201 1.474a.71.71 0 0 1 .075.743.717.717 0 0 1 -.63.402zm-137.539-.658a.701.701 0 0 1 -.532-.24.71.71 0 0 1 .06-1.002c.469-.415.95-.83 1.43-1.25a.711.711 0 0 1 1.157.6.714.714 0 0 1 -.238.481c-.483.412-.96.823-1.431 1.233a.712.712 0 0 1 -.446.178zm135.128-2.241a.708.708 0 0 1 -.535-.243c-.409-.473-.827-.945-1.244-1.408a.71.71 0 1 1 1.052-.953c.426.472.858.953 1.264 1.43a.707.707 0 0 1 -.537 1.174zm-132.247-.209a.707.707 0 0 1 -.684-.9.705.705 0 0 1 .235-.36c.483-.397.978-.798 1.484-1.195a.709.709 0 0 1 .878 1.113c-.497.395-.986.788-1.464 1.179a.702.702 0 0 1 -.449.157zm2.969-2.367a.71.71 0 0 1 -.429-1.273 96.016 96.016 0 0 1 1.524-1.145.71.71 0 1 1 .841 1.145l-1.507 1.124a.708.708 0 0 1 -.429.15zm126.743-.252a.708.708 0 0 1 -.517-.223c-.427-.455-.858-.91-1.299-1.354a.71.71 0 1 1 1.013-.996c.44.453.886.916 1.321 1.377a.71.71 0 0 1 -.518 1.196zm-123.691-1.975a.71.71 0 0 1 -.409-1.291 82.623 82.623 0 0 1 1.567-1.085.71.71 0 0 1 .787 1.168c-.524.358-1.039.713-1.545 1.07a.697.697 0 0 1 -.4.138zm121.04-.716a.701.701 0 0 1 -.495-.2c-.446-.435-.904-.859-1.359-1.297a.707.707 0 0 1 -.223-.493.706.706 0 0 1 .682-.734c.188-.007.37.061.508.189.464.432.927.875 1.382 1.319a.708.708 0 0 1 .16.774.713.713 0 0 1 -.655.442zm-117.908-1.414a.709.709 0 0 1 -.389-1.302 93.016 93.016 0 0 1 1.602-1.027.706.706 0 0 1 .978.223.71.71 0 0 1 -.223.979c-.536.334-1.063.671-1.582 1.013a.714.714 0 0 1 -.386.114zm115.139-1.167a.707.707 0 0 1 -.472-.18 77.597 77.597 0 0 0 -1.413-1.231.7.7 0 0 1 -.278-.49.727.727 0 0 1 .027-.285.713.713 0 0 1 .926-.457.707.707 0 0 1 .243.153c.478.406.961.827 1.43 1.253a.705.705 0 0 1 .191.783.71.71 0 0 1 -.663.457zm-111.936-.859a.707.707 0 0 1 -.686-.52.713.713 0 0 1 .32-.8c.538-.324 1.084-.646 1.639-.967a.71.71 0 1 1 .71 1.228c-.548.317-1.086.636-1.616.956a.711.711 0 0 1 -.367.117zm109.053-1.608a.706.706 0 0 1 -.446-.158 84.407 84.407 0 0 0 -1.471-1.165.712.712 0 0 1 .04-1.217.716.716 0 0 1 .567-.053c.093.03.179.08.251.146.501.389 1.004.787 1.496 1.185a.71.71 0 0 1 -.446 1.262zm-105.78-.287a.713.713 0 0 1 -.687-.532.713.713 0 0 1 .344-.798 99 99 0 0 1 1.67-.913.71.71 0 1 1 .669 1.253c-.556.298-1.107.598-1.65.899a.69.69 0 0 1 -.346.103v-.011zm3.341-1.782a.708.708 0 0 1 -.646-1.007.71.71 0 0 1 .322-.336c.561-.286 1.128-.572 1.702-.858a.714.714 0 0 1 .782.106.71.71 0 0 1 -.158 1.17 62.75 62.75 0 0 0 -1.682.839.677.677 0 0 1 -.32.097zm99.441-.24a.709.709 0 0 1 -.418-.135 67.438 67.438 0 0 0 -1.527-1.09.714.714 0 0 1 -.158-.975.71.71 0 0 1 .967-.19c.518.357 1.042.732 1.557 1.107a.713.713 0 0 1 -.421 1.282zm-96.043-1.432a.707.707 0 0 1 -.695-.556.709.709 0 0 1 .395-.797c.572-.267 1.144-.533 1.73-.793a.71.71 0 1 1 .572 1.296c-.572.258-1.144.518-1.716.782a.707.707 0 0 1 -.286.091zm92.934-.735a.694.694 0 0 1 -.389-.118 75.313 75.313 0 0 0 -1.579-1.004.71.71 0 1 1 .744-1.208c.537.332 1.078.675 1.613 1.025a.712.712 0 0 1 .036 1.165.708.708 0 0 1 -.425.14zm-89.479-.787a.708.708 0 0 1 -.636-1.038.71.71 0 0 1 .35-.325c.572-.246 1.159-.489 1.759-.73a.713.713 0 1 1 .538 1.323c-.583.236-1.161.478-1.733.724a.738.738 0 0 1 -.278.046zm86.261-1.177a.7.7 0 0 1 -.355-.097 66.953 66.953 0 0 0 -1.633-.913.709.709 0 0 1 .675-1.248c.558.287 1.118.616 1.668.933a.711.711 0 0 1 -.355 1.325zm-82.754-.246a.707.707 0 0 1 -.694-.58.707.707 0 0 1 .439-.79 95.767 95.767 0 0 1 1.782-.67.713.713 0 0 1 .799.162.714.714 0 0 1 .119.807.72.72 0 0 1 -.431.361c-.593.218-1.18.44-1.759.664a.72.72 0 0 1 -.258.046zm3.553-1.302a.711.711 0 0 1 -.608-1.07.709.709 0 0 1 .376-.31c.595-.205 1.196-.409 1.802-.609a.708.708 0 0 1 .879.458.707.707 0 0 1 -.436.89c-.6.197-1.192.398-1.782.604a.723.723 0 0 1 -.234.037zm75.871-.252a.71.71 0 0 1 -.317-.077 68.049 68.049 0 0 0 -1.682-.813.705.705 0 0 1 -.41-.674.716.716 0 0 1 .229-.493.707.707 0 0 1 .779-.12c.572.265 1.144.546 1.716.832a.707.707 0 0 1 .374.8.71.71 0 0 1 -.694.545zm-72.282-.941a.708.708 0 0 1 -.701-.604.714.714 0 0 1 .493-.784c.6-.186 1.21-.37 1.822-.55a.709.709 0 0 1 .881.484.713.713 0 0 1 -.484.881c-.606.178-1.204.358-1.799.541a.677.677 0 0 1 -.212.032zm68.85-.664a.681.681 0 0 1 -.286-.058 48.037 48.037 0 0 0 -1.731-.7.715.715 0 0 1 -.393-.376.7.7 0 0 1 -.013-.543.708.708 0 0 1 .645-.454.708.708 0 0 1 .273.047c.59.23 1.187.472 1.774.721a.71.71 0 0 1 -.286 1.363zm-65.217-.398a.709.709 0 0 1 -.189-1.394c.609-.166 1.222-.329 1.84-.49a.71.71 0 1 1 .351 1.377c-.61.157-1.215.318-1.816.484a.704.704 0 0 1 -.186.034zm3.661-.942a.71.71 0 0 1 -.163-1.4 87.15 87.15 0 0 1 1.854-.428.71.71 0 0 1 .309 1.385c-.616.137-1.227.278-1.834.423a.657.657 0 0 1 -.166.02zm58.02 0a.674.674 0 0 1 -.234-.04c-.589-.203-1.184-.4-1.774-.572a.711.711 0 0 1 .421-1.357c.604.186 1.216.387 1.819.598a.712.712 0 0 1 .211 1.196.71.71 0 0 1 -.443.175zm-54.347-.798a.707.707 0 0 1 -.707-.638.71.71 0 0 1 .564-.767c.618-.128 1.24-.252 1.865-.372a.712.712 0 0 1 .266 1.396c-.618.118-1.233.24-1.845.367a.81.81 0 0 1 -.123 0zm50.721-.315a.68.68 0 0 1 -.184-.026 43.633 43.633 0 0 0 -1.81-.45.71.71 0 0 1 -.534-.85.712.712 0 0 1 .851-.534c.615.14 1.242.286 1.862.463a.711.711 0 0 1 .525.781.71.71 0 0 1 -.71.616zm-46.985-.41a.71.71 0 0 1 -.12-1.407c.619-.11 1.244-.213 1.873-.312a.708.708 0 0 1 .686 1.118.708.708 0 0 1 -.463.284c-.62.097-1.241.2-1.853.31l-.123.008zm43.32-.449a.675.675 0 0 1 -.131 0 47.987 47.987 0 0 0 -1.837-.306.717.717 0 0 1 -.466-.277.708.708 0 0 1 .67-1.128c.626.092 1.261.197 1.893.315a.71.71 0 0 1 -.129 1.408zm-39.585-.143a.71.71 0 0 1 -.1-1.413c.624-.088 1.252-.173 1.885-.255a.71.71 0 1 1 .183 1.408c-.627.08-1.249.165-1.865.255zm35.844-.403h-.077a180.2 180.2 0 0 0 -1.874-.195.711.711 0 0 1 -.404-1.269.71.71 0 0 1 .541-.142c.627.06 1.256.126 1.888.192a.708.708 0 0 1 .646.744.708.708 0 0 1 -.72.673zm-32.091-.077a.707.707 0 0 1 -.673-.675.712.712 0 0 1 .605-.736c.626-.07 1.255-.138 1.89-.2a.708.708 0 0 1 .777.636.71.71 0 0 1 -.636.777c-.63.063-1.253.129-1.871.198zm28.318-.287h-.06c-.629-.054-1.253-.103-1.876-.149a.708.708 0 0 1 -.657-.76.712.712 0 0 1 .76-.656c.629.046 1.258.097 1.893.149a.714.714 0 0 1 .685.745.719.719 0 0 1 -.745.686zm-24.559-.086a.712.712 0 0 1 -.705-.68.71.71 0 0 1 .645-.736c.629-.052 1.261-.1 1.896-.146a.72.72 0 0 1 .692.395.707.707 0 0 1 .038.548.716.716 0 0 1 -.63.488c-.629.042-1.254.09-1.876.143zm20.795-.18h-.046l-1.879-.103a.71.71 0 1 1 .068-1.417c.63.03 1.262.066 1.897.104a.715.715 0 0 1 -.04 1.43zm-17.017-.071a.708.708 0 0 1 -.509-1.182.711.711 0 0 1 .469-.235c.63-.037 1.265-.066 1.9-.094a.718.718 0 0 1 .557 1.2.725.725 0 0 1 -.497.23c-.63.027-1.256.058-1.88.092zm13.238-.115h-.028c-.63-.023-1.256-.042-1.88-.057a.702.702 0 0 1 -.645-.454.71.71 0 0 1 -.047-.273.702.702 0 0 1 .45-.657.705.705 0 0 1 .277-.047c.629.015 1.262.034 1.899.057a.715.715 0 1 1 -.026 1.431zm-9.459-.054a.714.714 0 1 1 -.017-1.431c.629-.017 1.262-.03 1.899-.04a.715.715 0 1 1 0 1.43c-.629 0-1.256.014-1.879.04h-.003zm5.675-.046h-1.899a.715.715 0 1 1 0-1.431h1.899a.715.715 0 1 1 0 1.431z" fill="#699ff0"/><path d="m752.608 357.395s-38.33.063-96.762.189a55.06 55.06 0 0 1 -1.338-.592s6.604-36.169 40.869-43.919 34.674-40.895 56.064-47.509c17.6-5.437 33.332 1.746 44.018-.091 16.908 53.461-42.851 91.922-42.851 91.922z" fill="#a8d29f"/><path d="m808.032 356.995h-774.733a.973.973 0 0 0 -.973.973v1.059c0 .537.436.973.973.973h774.733a.973.973 0 0 0 .972-.973v-1.059a.973.973 0 0 0 -.972-.973z" fill="#283250"/><path d="m243.969 225.583s-.438.467-1.247 1.34a1354.429 1354.429 0 0 0 -19.843 21.976 1794.94 1794.94 0 0 0 -6.387 7.293c-3.209 3.72-6.356 7.418-9.285 11.004l-.028.028a156.735 156.735 0 0 0 -2.575 3.117 352.923 352.923 0 0 0 -4.862 6.142c-4.488 5.861-7.635 10.589-8.227 12.999-3.581 14.991 3.396 57.195 5.203 67.513h-97.89c2.96-21.445 7.073-51.741 7.602-56.355.81-7.263-24.516-38.433-24.954-61.185s14.611-38.994 16.98-61.374c1.144-10.535-.158-24.249-1.84-35.937-.858-6.205-1.9-11.752-2.709-15.961a5.849 5.849 0 0 1 1.556-5.266c.33-.353.707-.658 1.122-.905a5.742 5.742 0 0 1 5.515-.435c5.606 2.398 11.839 8.758 13.458 24.613 0 0 4.702 2.962 12.299 7.793 3.084 1.935 6.636 4.178 10.561 6.671 3.02 1.9 6.261 3.958 9.657 6.11.217.123.437.286.655.404 1.37.873 2.708 1.746 4.141 2.65h.032c.5.312.998.655 1.527.967.904.59 1.839 1.181 2.803 1.775.187.133.385.248.593.343 6.169 3.927 12.617 8.042 19.127 12.189h.031a74.511 74.511 0 0 1 3.178 2.003c.81.53 1.651 1.028 2.492 1.557 1.029.687 2.088 1.34 3.146 2.004h.032c7.382 4.676 14.61 9.29 21.37 13.56 1.061.684 2.119 1.339 3.146 2.003.841.529 1.653 1.059 2.463 1.557 1.09.687 2.085 1.342 3.115 2.026h.051a4950.434 4950.434 0 0 1 26.51 16.831c.95.601 1.482.919 1.482.95z" fill="#ffb27d"/><path d="m101.604 136.663a5.084 5.084 0 0 1 -4.29 5.366l-.678.101c-.89-6.176-1.902-11.734-2.712-15.953-.4-2.058-1.015-4.035-.84-6.141 4.258-2.084 5.897 2.956 6.42 5.002.865 3.323 1.86 7.796 2.1 11.625z" fill="#ffc197"/><path d="m216.491 256.192c-3.209 3.721-6.355 7.418-9.284 11.004l-.029.029a153.216 153.216 0 0 0 -2.574 3.116 352.182 352.182 0 0 0 -4.863 6.142c-4.488 5.861-7.634 10.589-8.226 12.999-3.582 14.991 3.395 57.196 5.203 67.513h-63.693c11.808-17.612 13.333-48.624 13.427-62.868.032-3.586 1.184-7.887 3.052-12.438 3.553-8.789 9.657-18.64 15.266-26.776a271.94 271.94 0 0 1 11.868-15.99v-.028c.623-.719.935-1.125.935-1.125l35.203-1.494h.054l.466 2.493.375 2.117 1.619 8.792z" fill="#e2915a" opacity=".3"/><path d="m241.33 272.171-105.356 10.906a6.05 6.05 0 0 1 -4.424-1.327 6.065 6.065 0 0 1 -2.204-4.062l-21.779-210.801a6.056 6.056 0 0 1 5.386-6.628l105.357-10.897a6.052 6.052 0 0 1 4.423 1.328 6.062 6.062 0 0 1 2.202 4.061l21.773 210.802a6.059 6.059 0 0 1 -5.378 6.617z" fill="#d3671e"/><path d="m252.707 271.005-105.354 10.896a6.054 6.054 0 0 1 -6.627-5.389l-21.773-210.802a6.054 6.054 0 0 1 5.383-6.628l105.371-10.896a6.056 6.056 0 0 1 6.627 5.39l21.774 210.801a6.062 6.062 0 0 1 -5.401 6.628z" fill="#f26d6d"/><path d="m196.395 61.354a1.194 1.194 0 0 0 -1.31-1.065l-30.509 3.148a1.193 1.193 0 0 0 .246 2.376l30.509-3.148a1.2 1.2 0 0 0 1.064-1.311zm-37.238 2.65a1.193 1.193 0 1 0 1.31 1.065 1.197 1.197 0 0 0 -1.31-1.065z" fill="#d3671e" opacity=".4"/><path d="m207.868 263.201a7.713 7.713 0 0 0 -1.73-4.123 7.692 7.692 0 0 0 -11.9.056 7.7 7.7 0 0 0 -.798 8.521 7.694 7.694 0 0 0 7.563 3.997 7.702 7.702 0 0 0 5.182-2.802 7.702 7.702 0 0 0 1.683-5.649z" fill="#ea0c0c" opacity=".4"/><path d="m226.195 66.6-97.119 9.815 18.109 179.374 97.119-9.815z" fill="#fbecdb"/><path d="m243.959 225.59-97.58 10.09 2.161 20.921 97.58-10.09z" fill="#fce6d2"/><path d="m177.802 239.885 50.362-5.206a1.066 1.066 0 0 0 .195-2.081 1.06 1.06 0 0 0 -.415-.037l-50.36 5.206a1.07 1.07 0 0 0 -.95 1.17 1.068 1.068 0 0 0 1.168.948zm51.789-1.735a1.07 1.07 0 0 0 -1.167-.95l-50.363 5.206a1.06 1.06 0 0 0 -.913.755 1.073 1.073 0 0 0 .084.812 1.07 1.07 0 0 0 1.049.551l50.36-5.209a1.07 1.07 0 0 0 .95-1.165z" fill="#f1a34f"/><path d="m169.888 235.308a6.09 6.09 0 0 0 -.53-2.003 7.09 7.09 0 0 0 -7.351-4.425 7.185 7.185 0 0 0 -6.324 5.827 7.741 7.741 0 0 0 -.095 2.089c.407 3.927 8.473 11.969 8.473 11.969s6.233-9.507 5.827-13.457zm-6.823 4.007a3.356 3.356 0 0 1 -3.675-2.994 3.5 3.5 0 0 1 .435-2.055 3.393 3.393 0 0 1 1.082-1.128 3.394 3.394 0 0 1 1.472-.526 3.271 3.271 0 0 1 1.552.196c.494.191.934.499 1.283.898a3.348 3.348 0 0 1 -.433 4.945 3.332 3.332 0 0 1 -1.716.664zm-14.548-91.036 56.264-5.818-4.794-46.42-56.265 5.818z" fill="#d3671e"/><path d="m219.213 94.056-47.361 4.897 4.794 46.42 47.362-4.897z" fill="#f1a34f"/><path d="m222.792 128.704 1.216 11.771-47.362 4.897-4.794-46.418z" fill="#ea0c0c" opacity=".4"/><path d="m147.333 136.506 8.916-.922-1.047-2.43.601-1.874-8.916.921zm-1.932-18.697 8.916-.922-1.047-2.427.601-1.877-8.916.924z" fill="#f1a34f"/><path d="m220.861 110.007-8.916.922.527-2.59-.97-1.714 8.913-.922z" fill="#ea0c0c" opacity=".4"/><path d="m156.99 161.499a6.594 6.594 0 0 0 -.935-.498 6.38 6.38 0 0 0 -2.898-.406 5.98 5.98 0 0 0 -5.077 4.178 5.603 5.603 0 0 0 -.249 2.398 6.014 6.014 0 0 0 2.191 4.023 6.002 6.002 0 0 0 4.388 1.309 5.514 5.514 0 0 0 3.433-1.591 5.795 5.795 0 0 0 1.899-4.988 5.925 5.925 0 0 0 -2.752-4.425zm.249 9.07a5.21 5.21 0 0 1 -2.897 1.247 5.278 5.278 0 0 1 -5.793-4.707c-.063-.65 0-1.306.186-1.932a5.193 5.193 0 0 1 4.517-3.895 4.64 4.64 0 0 1 2.46.375 3.89 3.89 0 0 1 1.029.529 5.28 5.28 0 0 1 .498 8.385z" fill="#ddb997"/><path d="m150.328 163.835 3.79 5.898 5.077-14.602-5.52 10.306z" fill="#d3671e"/><path d="m162.007 187.9a6.006 6.006 0 0 0 -2.743-4.45 9.197 9.197 0 0 0 -.935-.498 6.41 6.41 0 0 0 -2.895-.404 5.98 5.98 0 0 0 -5.106 4.245 5.996 5.996 0 0 0 1.956 6.347 5.981 5.981 0 0 0 9.729-5.231zm-5.434 5.859a5.279 5.279 0 0 1 -1.059-10.504 4.975 4.975 0 0 1 2.46.344c.367.125.714.304 1.03.529a5.255 5.255 0 0 1 2.305 3.835 5.33 5.33 0 0 1 -4.725 5.79z" fill="#ddb997"/><path d="m152.594 185.783 3.79 5.898 5.077-14.601-5.521 10.305z" fill="#d3671e"/><path d="m164.278 209.843a5.984 5.984 0 0 0 -4.251-5.108 5.978 5.978 0 0 0 -7.652 5.191 5.981 5.981 0 0 0 6.577 6.499 6.008 6.008 0 0 0 5.326-6.582zm-5.434 5.861a5.271 5.271 0 0 1 -5.185-2.739 5.278 5.278 0 1 1 8.742.81 5.275 5.275 0 0 1 -3.543 1.929zm65.953-57.439-56.349 5.824a1.044 1.044 0 0 1 -1.144-.93l-.023-.229a1.044 1.044 0 0 1 .929-1.145l56.35-5.827a1.052 1.052 0 0 1 1.144.931l.023.231a1.049 1.049 0 0 1 -.93 1.145zm.425 4.104-56.35 5.824a1.046 1.046 0 0 1 -.765-.227 1.047 1.047 0 0 1 -.379-.703l-.026-.229a1.05 1.05 0 0 1 .93-1.145l56.35-5.827a1.049 1.049 0 0 1 1.144.933l.023.229a1.044 1.044 0 0 1 -.927 1.145zm1.847 17.882-56.35 5.824a1.047 1.047 0 0 1 -1.144-.93l-.023-.229a1.049 1.049 0 0 1 .93-1.145l56.349-5.824a1.047 1.047 0 0 1 1.144.93l.023.232a1.049 1.049 0 0 1 -.929 1.142zm.424 4.104-56.35 5.824a1.047 1.047 0 0 1 -1.144-.931l-.023-.228a1.045 1.045 0 0 1 .93-1.145l56.349-5.827a1.047 1.047 0 0 1 1.144.93l.023.229a1.05 1.05 0 0 1 -.929 1.148zm1.847 17.878-56.338 5.83a1.051 1.051 0 0 1 -1.144-.931l-.023-.231a1.049 1.049 0 0 1 .93-1.145l56.349-5.824a1.049 1.049 0 0 1 1.145.93l.022.229a1.031 1.031 0 0 1 -.233.766 1.052 1.052 0 0 1 -.708.376zm.424 4.113-56.35 5.824a1.049 1.049 0 0 1 -1.144-.931l-.023-.228a1.045 1.045 0 0 1 .93-1.145l56.35-5.824a1.043 1.043 0 0 1 1.144.93l.023.229a1.05 1.05 0 0 1 -.93 1.145z" fill="#ddb997"/><path d="m239.326 82.89s15.292-13.594 25.323-5.879c10.032 7.716-22.565 32.566-22.565 32.566zm17.694 55.797-17.771 9.848a10.73 10.73 0 0 1 -14.548-4.187l-2.904-5.258a10.752 10.752 0 0 1 -.907-8.146 10.74 10.74 0 0 1 5.098-6.415l17.769-9.834a10.73 10.73 0 0 1 14.553 4.187l2.904 5.249a10.744 10.744 0 0 1 -4.194 14.556zm3.075 29.789-17.768 9.823a10.73 10.73 0 0 1 -14.548-4.187l-2.903-5.249a10.747 10.747 0 0 1 4.184-14.556l17.772-9.837a10.734 10.734 0 0 1 14.548 4.187l2.9 5.252a10.745 10.745 0 0 1 -4.185 14.567z" fill="#ffb27d"/><path d="m263.091 197.474-17.769 9.836a10.735 10.735 0 0 1 -14.548-4.187l-2.903-5.252a10.745 10.745 0 0 1 4.184-14.555l17.772-9.834a10.732 10.732 0 0 1 14.545 4.187l2.903 5.249a10.745 10.745 0 0 1 -4.184 14.556z" fill="#ffb27d"/><path d="m222.639 132.059c2.757-2.075 6.519-4.688 9.966-6.334a5.09 5.09 0 0 1 6.579 1.946l3.895 6.514a4.815 4.815 0 0 1 -1.587 6.582c-3.393 2.12-6.929 4-10.584 5.627a5.924 5.924 0 0 1 -7.494-2.556l-2.365-4.192a5.871 5.871 0 0 1 1.59-7.587zm3.16 30.608c2.757-2.075 6.518-4.685 9.965-6.331a5.09 5.09 0 0 1 6.579 1.946l3.896 6.514a4.82 4.82 0 0 1 -1.585 6.583 85.988 85.988 0 0 1 -10.583 5.623 5.92 5.92 0 0 1 -7.497-2.547l-2.366-4.195a5.879 5.879 0 0 1 1.591-7.593zm3.526 28.69c2.758-2.075 6.522-4.688 9.966-6.333a5.09 5.09 0 0 1 6.579 1.946l3.896 6.517a4.818 4.818 0 0 1 -1.585 6.582 86.164 86.164 0 0 1 -10.584 5.627 5.927 5.927 0 0 1 -7.499-2.55l-2.366-4.193a5.879 5.879 0 0 1 1.593-7.596z" fill="#ffc197"/><path d="m325.432 286.403 41.081 6.468-27.048-19.021-1.476 5.95-10.037 1.671z" fill="#ea0c0c"/><path d="m366.514 292.871-34.002-18.165-33.549-2.172zm-27.049-19.021 27.048 19.02-20.73-29.417z" fill="#f1a34f"/><path d="m279.236 37.12-31.902-16.448 28.527.546-2.006 4.9 6.139 6.282z" fill="#ea0c0c"/><path d="m247.334 20.672 32.932 4.69 24.47 15.598zm28.527.546-28.527-.546 29.422-9.917z" fill="#f1a34f"/></g></svg>