<svg width="16" height="16" viewBox="0 0 16 16" fill="none" xmlns="http://www.w3.org/2000/svg">
<path fill-rule="evenodd" clip-rule="evenodd" d="M8 5.00031C8.82843 5.00031 9.5 5.67188 9.5 6.50031C9.5 7.32874 8.82843 8.00031 8 8.00031C7.17157 8.00031 6.5 7.32874 6.5 6.50031C6.5 5.67188 7.17157 5.00031 8 5.00031ZM8 4.00031C6.61929 4.00031 5.5 5.1196 5.5 6.50031C5.5 7.88102 6.61929 9.00031 8 9.00031C9.38071 9.00031 10.5 7.88102 10.5 6.50031C10.5 5.11962 9.38069 4.00036 8 4.00036V4.00031ZM8 2.00041C10.4445 1.96421 12.4573 3.91302 12.5 6.35741C12.5002 7.30086 12.186 8.21749 11.607 8.96241L11.5903 8.98421L11.5748 9.00691L8 14.2296L4.425 9.00681L4.40945 8.98411L4.3927 8.96231C3.81386 8.21739 3.49975 7.30083 3.5 6.35746C3.54273 3.91307 5.55551 1.96426 8 2.00046V2.00041ZM8 1.00044C5.00257 0.962579 2.5411 3.36006 2.5 6.35744C2.5012 7.521 2.88803 8.65134 3.6 9.57164L8 16L12.4 9.57164C13.112 8.65134 13.4988 7.521 13.5 6.35744C13.4589 3.36006 10.9974 0.962579 8 1.00044Z" fill="white"/>
<mask id="mask0_17090_14618" style="mask-type:luminance" maskUnits="userSpaceOnUse" x="2" y="1" width="12" height="15">
<path fill-rule="evenodd" clip-rule="evenodd" d="M8 5.00031C8.82843 5.00031 9.5 5.67188 9.5 6.50031C9.5 7.32874 8.82843 8.00031 8 8.00031C7.17157 8.00031 6.5 7.32874 6.5 6.50031C6.5 5.67188 7.17157 5.00031 8 5.00031ZM8 4.00031C6.61929 4.00031 5.5 5.1196 5.5 6.50031C5.5 7.88102 6.61929 9.00031 8 9.00031C9.38071 9.00031 10.5 7.88102 10.5 6.50031C10.5 5.11962 9.38069 4.00036 8 4.00036V4.00031ZM8 2.00041C10.4445 1.96421 12.4573 3.91302 12.5 6.35741C12.5002 7.30086 12.186 8.21749 11.607 8.96241L11.5903 8.98421L11.5748 9.00691L8 14.2296L4.425 9.00681L4.40945 8.98411L4.3927 8.96231C3.81386 8.21739 3.49975 7.30083 3.5 6.35746C3.54273 3.91307 5.55551 1.96426 8 2.00046V2.00041ZM8 1.00044C5.00257 0.962579 2.5411 3.36006 2.5 6.35744C2.5012 7.521 2.88803 8.65134 3.6 9.57164L8 16L12.4 9.57164C13.112 8.65134 13.4988 7.521 13.5 6.35744C13.4589 3.36006 10.9974 0.962579 8 1.00044Z" fill="white"/>
</mask>
<g mask="url(#mask0_17090_14618)">
</g>
</svg>
