<svg width="16" height="16" viewBox="0 0 16 16" fill="none" xmlns="http://www.w3.org/2000/svg">
<path fill-rule="evenodd" clip-rule="evenodd" d="M8 15C4.13401 15 1 11.866 1 8C1 4.13401 4.13401 1 8 1C11.866 1 15 4.13401 15 8C14.9957 11.8642 11.8642 14.9957 8 15ZM8 2C4.68629 2 2 4.68629 2 8C2 11.3137 4.68629 14 8 14C11.3137 14 14 11.3137 14 8C13.9964 4.68779 11.3122 2.00361 8 2ZM10.2935 11L7.5 8.205V3.5H8.499V7.791L11 10.2935L10.2935 11Z" fill="white"/>
<mask id="mask0_17090_14633" style="mask-type:luminance" maskUnits="userSpaceOnUse" x="1" y="1" width="14" height="14">
<path fill-rule="evenodd" clip-rule="evenodd" d="M8 15C4.13401 15 1 11.866 1 8C1 4.13401 4.13401 1 8 1C11.866 1 15 4.13401 15 8C14.9957 11.8642 11.8642 14.9957 8 15ZM8 2C4.68629 2 2 4.68629 2 8C2 11.3137 4.68629 14 8 14C11.3137 14 14 11.3137 14 8C13.9964 4.68779 11.3122 2.00361 8 2ZM10.2935 11L7.5 8.205V3.5H8.499V7.791L11 10.2935L10.2935 11Z" fill="white"/>
</mask>
<g mask="url(#mask0_17090_14633)">
</g>
</svg>
