<svg width="41" height="40" viewBox="0 0 41 40" fill="none" xmlns="http://www.w3.org/2000/svg">
<g id="Frame" clip-path="url(#clip0_17090_14590)">
<g id="Group">
<g id="_x32_9_Parcel_Tracking">
<g id="Group_2">
<path id="Subtract" fill-rule="evenodd" clip-rule="evenodd" d="M28.1912 4.90869H36.092C38.2543 4.90869 40.0057 6.6601 40.0057 8.82236V31.1755C40.0057 33.3419 38.2543 35.0933 36.092 35.0933H13.7388C12.1077 35.0933 10.7113 34.0987 10.125 32.6802C10.9988 32.5964 11.7939 32.1513 12.3245 31.438C13.0822 30.4295 13.9625 29.6698 14.9377 29.1565C18.6121 27.2411 20.8986 23.4761 20.8986 19.3309C20.8986 13.2422 15.952 8.28391 9.86549 8.25841C10.1387 6.36358 11.7681 4.90869 13.7389 4.90869H21.6392V7.824C21.6392 8.39111 22.1033 8.8508 22.666 8.8508H27.1644C27.7315 8.8508 28.1912 8.39111 28.1912 7.824V4.90869ZM25.4896 28.8053V31.2394C25.4896 31.5798 25.7658 31.856 26.1061 31.856H35.2036C35.544 31.856 35.8201 31.5798 35.8201 31.2394V28.8053C35.8201 28.4649 35.544 28.1887 35.2036 28.1887H26.1061C25.7658 28.1888 25.4896 28.4649 25.4896 28.8053Z" fill="white"/>
<path id="Subtract_2" fill-rule="evenodd" clip-rule="evenodd" d="M9.12029 30.0987C8.19177 28.8439 6.98708 27.8337 5.61942 27.0935C2.58294 25.4496 0.625439 22.0807 1.052 18.2975C1.50997 14.2697 4.77255 11.0136 8.80028 10.5618C14.1393 9.96583 18.6502 14.1317 18.6502 19.3326C18.6502 22.7456 16.7241 25.6943 13.8947 27.1687C12.5646 27.8651 11.429 28.8878 10.5256 30.0924L10.5226 30.0965C10.1738 30.5667 9.47052 30.5678 9.12029 30.0987ZM9.82271 23.4763C7.53849 23.4763 5.67896 21.622 5.67896 19.3325C5.67896 17.0483 7.53857 15.1887 9.82271 15.1887C12.1124 15.1887 13.9666 17.0483 13.9666 19.3325C13.9666 21.6221 12.1124 23.4763 9.82271 23.4763Z" fill="#EA0C0C"/>
</g>
</g>
</g>
</g>
<defs>
<clipPath id="clip0_17090_14590">
<rect width="40" height="40" fill="white" transform="matrix(-1 0 0 1 40.5 0)"/>
</clipPath>
</defs>
</svg>
