<svg width="213" height="42" viewBox="0 0 213 42" fill="none" xmlns="http://www.w3.org/2000/svg">
<path d="M2.4 19C2.25333 19 2.13333 18.9533 2.04 18.86C1.94667 18.7667 1.9 18.6467 1.9 18.5V5.5C1.9 5.35333 1.94667 5.23333 2.04 5.14C2.13333 5.04667 2.25333 5 2.4 5H8C9.10667 5 10.0667 5.17333 10.88 5.52C11.7067 5.85333 12.3467 6.36 12.8 7.04C13.2667 7.72 13.5 8.58 13.5 9.62C13.5 10.6467 13.2667 11.4933 12.8 12.16C12.3467 12.8267 11.7067 13.32 10.88 13.64C10.0667 13.96 9.10667 14.12 8 14.12H5.62V18.5C5.62 18.6467 5.56667 18.7667 5.46 18.86C5.36667 18.9533 5.24667 19 5.1 19H2.4ZM5.56 11.36H7.9C8.47333 11.36 8.92667 11.2133 9.26 10.92C9.60667 10.6267 9.78 10.18 9.78 9.58C9.78 9.07333 9.63333 8.64667 9.34 8.3C9.04667 7.95333 8.56667 7.78 7.9 7.78H5.56V11.36ZM22.1356 19.2C20.909 19.2 19.8423 19 18.9356 18.6C18.029 18.2 17.3223 17.6 16.8156 16.8C16.309 15.9867 16.029 14.9733 15.9756 13.76C15.9623 13.1867 15.9556 12.6133 15.9556 12.04C15.9556 11.4667 15.9623 10.8867 15.9756 10.3C16.029 9.1 16.309 8.09333 16.8156 7.28C17.3356 6.45333 18.049 5.83333 18.9556 5.42C19.8623 5.00667 20.9223 4.8 22.1356 4.8C23.3356 4.8 24.389 5.00667 25.2956 5.42C26.2156 5.83333 26.9356 6.45333 27.4556 7.28C27.9756 8.09333 28.2556 9.1 28.2956 10.3C28.3223 10.8867 28.3356 11.4667 28.3356 12.04C28.3356 12.6133 28.3223 13.1867 28.2956 13.76C28.2423 14.9733 27.9623 15.9867 27.4556 16.8C26.949 17.6 26.2423 18.2 25.3356 18.6C24.429 19 23.3623 19.2 22.1356 19.2ZM22.1356 16.32C22.8423 16.32 23.4156 16.1067 23.8556 15.68C24.309 15.2533 24.549 14.5733 24.5756 13.64C24.6023 13.0533 24.6156 12.5 24.6156 11.98C24.6156 11.46 24.6023 10.92 24.5756 10.36C24.549 9.73333 24.429 9.22667 24.2156 8.84C24.0156 8.44 23.7356 8.14667 23.3756 7.96C23.0156 7.77333 22.6023 7.68 22.1356 7.68C21.6823 7.68 21.2756 7.77333 20.9156 7.96C20.5556 8.14667 20.269 8.44 20.0556 8.84C19.8423 9.22667 19.7223 9.73333 19.6956 10.36C19.6823 10.92 19.6756 11.46 19.6756 11.98C19.6756 12.5 19.6823 13.0533 19.6956 13.64C19.7356 14.5733 19.9756 15.2533 20.4156 15.68C20.8556 16.1067 21.429 16.32 22.1356 16.32Z" fill="#EA0C0C"/>
<path d="M31.4 19C31.2533 19 31.1333 18.9533 31.04 18.86C30.9467 18.7667 30.9 18.6467 30.9 18.5V5.5C30.9 5.35333 30.9467 5.23333 31.04 5.14C31.1333 5.04667 31.2533 5 31.4 5H34.04C34.1733 5 34.2867 5.04667 34.38 5.14C34.4867 5.23333 34.54 5.35333 34.54 5.5V15.98H40.58C40.7267 15.98 40.8467 16.0333 40.94 16.14C41.0467 16.2333 41.1 16.3533 41.1 16.5V18.5C41.1 18.6467 41.0467 18.7667 40.94 18.86C40.8467 18.9533 40.7267 19 40.58 19H31.4ZM43.0336 19C42.9269 19 42.8269 18.96 42.7336 18.88C42.6536 18.7867 42.6136 18.6867 42.6136 18.58C42.6136 18.5133 42.6203 18.4533 42.6336 18.4L47.3336 5.56C47.3736 5.41333 47.4536 5.28667 47.5736 5.18C47.7069 5.06 47.8869 5 48.1136 5H51.0736C51.3003 5 51.4736 5.06 51.5936 5.18C51.7269 5.28667 51.8136 5.41333 51.8536 5.56L56.5336 18.4C56.5603 18.4533 56.5736 18.5133 56.5736 18.58C56.5736 18.6867 56.5269 18.7867 56.4336 18.88C56.3536 18.96 56.2536 19 56.1336 19H53.6736C53.4736 19 53.3203 18.9533 53.2136 18.86C53.1203 18.7533 53.0603 18.66 53.0336 18.58L52.2536 16.54H46.9136L46.1536 18.58C46.1269 18.66 46.0669 18.7533 45.9736 18.86C45.8803 18.9533 45.7203 19 45.4936 19H43.0336ZM47.7336 13.66H51.4536L49.5736 8.38L47.7336 13.66ZM59.65 19C59.5033 19 59.3833 18.9533 59.29 18.86C59.1967 18.7667 59.15 18.6467 59.15 18.5V5.5C59.15 5.35333 59.1967 5.23333 59.29 5.14C59.3833 5.04667 59.5033 5 59.65 5H61.77C61.9967 5 62.1567 5.05333 62.25 5.16C62.3567 5.25333 62.4233 5.32667 62.45 5.38L67.33 13.08V5.5C67.33 5.35333 67.3767 5.23333 67.47 5.14C67.5633 5.04667 67.6833 5 67.83 5H70.23C70.3767 5 70.4967 5.04667 70.59 5.14C70.6833 5.23333 70.73 5.35333 70.73 5.5V18.5C70.73 18.6333 70.6833 18.7533 70.59 18.86C70.4967 18.9533 70.3767 19 70.23 19H68.09C67.8767 19 67.7167 18.9467 67.61 18.84C67.5167 18.7333 67.4567 18.66 67.43 18.62L62.55 11.22V18.5C62.55 18.6467 62.5033 18.7667 62.41 18.86C62.3167 18.9533 62.1967 19 62.05 19H59.65ZM75.025 19C74.8783 19 74.7583 18.9533 74.665 18.86C74.5717 18.7667 74.525 18.6467 74.525 18.5V5.5C74.525 5.35333 74.5717 5.23333 74.665 5.14C74.7583 5.04667 74.8783 5 75.025 5H80.225C81.5317 5 82.645 5.21333 83.565 5.64C84.485 6.05333 85.1917 6.66667 85.685 7.48C86.1783 8.28 86.445 9.27333 86.485 10.46C86.4983 11.0467 86.505 11.56 86.505 12C86.505 12.44 86.4983 12.9467 86.485 13.52C86.4317 14.76 86.165 15.7867 85.685 16.6C85.2183 17.4133 84.5317 18.02 83.625 18.42C82.7317 18.8067 81.6317 19 80.325 19H75.025ZM78.105 16.12H80.225C80.7983 16.12 81.2717 16.0333 81.645 15.86C82.0317 15.6733 82.3183 15.3867 82.505 15C82.705 14.6133 82.8117 14.1067 82.825 13.48C82.8517 13.0933 82.865 12.7467 82.865 12.44C82.8783 12.1333 82.8783 11.8267 82.865 11.52C82.865 11.2133 82.8517 10.8733 82.825 10.5C82.7983 9.59333 82.5583 8.93333 82.105 8.52C81.665 8.09333 81.005 7.88 80.125 7.88H78.105V16.12ZM89.7814 19C89.6347 19 89.5081 18.9533 89.4014 18.86C89.3081 18.7667 89.2614 18.6467 89.2614 18.5V17.08C89.2614 16.9867 89.2881 16.8467 89.3414 16.66C89.3947 16.46 89.5347 16.2733 89.7614 16.1L91.8414 14.06C92.9081 13.2467 93.7814 12.56 94.4614 12C95.1547 11.4267 95.6681 10.92 96.0014 10.48C96.3347 10.04 96.5014 9.62667 96.5014 9.24C96.5014 8.78667 96.3814 8.41333 96.1414 8.12C95.9147 7.81333 95.5147 7.66 94.9414 7.66C94.5547 7.66 94.2281 7.74667 93.9614 7.92C93.7081 8.08 93.5147 8.29333 93.3814 8.56C93.2481 8.82667 93.1547 9.1 93.1014 9.38C93.0481 9.55333 92.9547 9.67333 92.8214 9.74C92.7014 9.80667 92.5681 9.84 92.4214 9.84H89.9214C89.8014 9.84 89.7014 9.8 89.6214 9.72C89.5414 9.64 89.5014 9.54 89.5014 9.42C89.5147 8.78 89.6481 8.18 89.9014 7.62C90.1681 7.06 90.5347 6.56667 91.0014 6.14C91.4814 5.7 92.0481 5.36 92.7014 5.12C93.3681 4.88 94.1147 4.76 94.9414 4.76C96.0747 4.76 97.0347 4.94 97.8214 5.3C98.6214 5.66 99.2281 6.16667 99.6414 6.82C100.055 7.46 100.261 8.21333 100.261 9.08C100.261 9.73333 100.115 10.3467 99.8214 10.92C99.5414 11.48 99.1347 12.02 98.6014 12.54C98.0814 13.0467 97.4614 13.5733 96.7414 14.12L94.9014 15.98H100.041C100.188 15.98 100.308 16.0267 100.401 16.12C100.508 16.2133 100.561 16.3333 100.561 16.48V18.5C100.561 18.6467 100.508 18.7667 100.401 18.86C100.308 18.9533 100.188 19 100.041 19H89.7814ZM110.151 19C110.018 19 109.898 18.9533 109.791 18.86C109.698 18.7667 109.651 18.6467 109.651 18.5V16.24H103.431C103.298 16.24 103.178 16.1933 103.071 16.1C102.978 16.0067 102.931 15.8867 102.931 15.74V13.84C102.931 13.72 102.951 13.6133 102.991 13.52C103.044 13.4133 103.098 13.3133 103.151 13.22L108.971 5.34C109.144 5.11333 109.391 5 109.711 5H112.611C112.758 5 112.878 5.04667 112.971 5.14C113.078 5.23333 113.131 5.35333 113.131 5.5V13.26H114.891C115.051 13.26 115.178 13.3133 115.271 13.42C115.364 13.5133 115.411 13.6267 115.411 13.76V15.74C115.411 15.8867 115.358 16.0067 115.251 16.1C115.158 16.1933 115.044 16.24 114.911 16.24H113.131V18.5C113.131 18.6467 113.078 18.7667 112.971 18.86C112.878 18.9533 112.758 19 112.611 19H110.151ZM106.371 13.4H109.731V8.68L106.371 13.4ZM118.447 19C118.301 19 118.181 18.9533 118.087 18.86C117.994 18.7667 117.947 18.6467 117.947 18.5V15.96C117.947 15.8267 117.994 15.7133 118.087 15.62C118.181 15.5133 118.301 15.46 118.447 15.46H120.967C121.114 15.46 121.234 15.5133 121.327 15.62C121.434 15.7133 121.487 15.8267 121.487 15.96V18.5C121.487 18.6467 121.434 18.7667 121.327 18.86C121.234 18.9533 121.114 19 120.967 19H118.447ZM130.554 19.2C129.287 19.2 128.201 18.9933 127.294 18.58C126.401 18.1667 125.701 17.56 125.194 16.76C124.701 15.96 124.427 14.9667 124.374 13.78C124.361 13.2333 124.354 12.6467 124.354 12.02C124.354 11.3933 124.361 10.7933 124.374 10.22C124.427 9.06 124.707 8.08 125.214 7.28C125.721 6.46667 126.427 5.85333 127.334 5.44C128.241 5.01333 129.314 4.8 130.554 4.8C131.434 4.8 132.247 4.91333 132.994 5.14C133.741 5.35333 134.394 5.67333 134.954 6.1C135.514 6.51333 135.947 7.02 136.254 7.62C136.574 8.20667 136.741 8.87333 136.754 9.62C136.767 9.74 136.727 9.84 136.634 9.92C136.554 10 136.454 10.04 136.334 10.04H133.634C133.461 10.04 133.327 10.0067 133.234 9.94C133.141 9.86 133.061 9.72 132.994 9.52C132.807 8.81333 132.501 8.33333 132.074 8.08C131.661 7.81333 131.147 7.68 130.534 7.68C129.801 7.68 129.221 7.88667 128.794 8.3C128.367 8.7 128.134 9.37333 128.094 10.32C128.054 11.4133 128.054 12.5333 128.094 13.68C128.134 14.6267 128.367 15.3067 128.794 15.72C129.221 16.12 129.801 16.32 130.534 16.32C131.147 16.32 131.667 16.1867 132.094 15.92C132.521 15.6533 132.821 15.1733 132.994 14.48C133.047 14.28 133.121 14.1467 133.214 14.08C133.321 14 133.461 13.96 133.634 13.96H136.334C136.454 13.96 136.554 14 136.634 14.08C136.727 14.16 136.767 14.26 136.754 14.38C136.741 15.1267 136.574 15.8 136.254 16.4C135.947 16.9867 135.514 17.4933 134.954 17.92C134.394 18.3333 133.741 18.6533 132.994 18.88C132.247 19.0933 131.434 19.2 130.554 19.2ZM145.577 19.2C144.35 19.2 143.284 19 142.377 18.6C141.47 18.2 140.764 17.6 140.257 16.8C139.75 15.9867 139.47 14.9733 139.417 13.76C139.404 13.1867 139.397 12.6133 139.397 12.04C139.397 11.4667 139.404 10.8867 139.417 10.3C139.47 9.1 139.75 8.09333 140.257 7.28C140.777 6.45333 141.49 5.83333 142.397 5.42C143.304 5.00667 144.364 4.8 145.577 4.8C146.777 4.8 147.83 5.00667 148.737 5.42C149.657 5.83333 150.377 6.45333 150.897 7.28C151.417 8.09333 151.697 9.1 151.737 10.3C151.764 10.8867 151.777 11.4667 151.777 12.04C151.777 12.6133 151.764 13.1867 151.737 13.76C151.684 14.9733 151.404 15.9867 150.897 16.8C150.39 17.6 149.684 18.2 148.777 18.6C147.87 19 146.804 19.2 145.577 19.2ZM145.577 16.32C146.284 16.32 146.857 16.1067 147.297 15.68C147.75 15.2533 147.99 14.5733 148.017 13.64C148.044 13.0533 148.057 12.5 148.057 11.98C148.057 11.46 148.044 10.92 148.017 10.36C147.99 9.73333 147.87 9.22667 147.657 8.84C147.457 8.44 147.177 8.14667 146.817 7.96C146.457 7.77333 146.044 7.68 145.577 7.68C145.124 7.68 144.717 7.77333 144.357 7.96C143.997 8.14667 143.71 8.44 143.497 8.84C143.284 9.22667 143.164 9.73333 143.137 10.36C143.124 10.92 143.117 11.46 143.117 11.98C143.117 12.5 143.124 13.0533 143.137 13.64C143.177 14.5733 143.417 15.2533 143.857 15.68C144.297 16.1067 144.87 16.32 145.577 16.32ZM155.595 19C155.462 19 155.342 18.9533 155.235 18.86C155.142 18.7667 155.095 18.6467 155.095 18.5V5.5C155.095 5.35333 155.142 5.23333 155.235 5.14C155.342 5.04667 155.462 5 155.595 5H157.755C157.969 5 158.129 5.06 158.235 5.18C158.355 5.28667 158.429 5.37333 158.455 5.44L161.975 11.76L165.495 5.44C165.535 5.37333 165.602 5.28667 165.695 5.18C165.802 5.06 165.969 5 166.195 5H168.335C168.482 5 168.602 5.04667 168.695 5.14C168.802 5.23333 168.855 5.35333 168.855 5.5V18.5C168.855 18.6467 168.802 18.7667 168.695 18.86C168.602 18.9533 168.482 19 168.335 19H165.955C165.809 19 165.682 18.9533 165.575 18.86C165.482 18.7667 165.435 18.6467 165.435 18.5V11L163.175 15.18C163.122 15.3 163.042 15.4067 162.935 15.5C162.829 15.5933 162.682 15.64 162.495 15.64H161.455C161.269 15.64 161.122 15.5933 161.015 15.5C160.909 15.4067 160.822 15.3 160.755 15.18L158.495 11V18.5C158.495 18.6467 158.449 18.7667 158.355 18.86C158.262 18.9533 158.142 19 157.995 19H155.595ZM172.76 19C172.613 19 172.493 18.9533 172.4 18.86C172.306 18.7667 172.26 18.6467 172.26 18.5V15.96C172.26 15.8267 172.306 15.7133 172.4 15.62C172.493 15.5133 172.613 15.46 172.76 15.46H175.28C175.426 15.46 175.546 15.5133 175.64 15.62C175.746 15.7133 175.8 15.8267 175.8 15.96V18.5C175.8 18.6467 175.746 18.7667 175.64 18.86C175.546 18.9533 175.426 19 175.28 19H172.76ZM184.83 19.2C183.63 19.2 182.577 19.0067 181.67 18.62C180.777 18.22 180.084 17.6133 179.59 16.8C179.097 15.9733 178.85 14.9267 178.85 13.66V5.5C178.85 5.35333 178.897 5.23333 178.99 5.14C179.084 5.04667 179.204 5 179.35 5H181.93C182.077 5 182.197 5.04667 182.29 5.14C182.384 5.23333 182.43 5.35333 182.43 5.5V13.64C182.43 14.5067 182.637 15.16 183.05 15.6C183.477 16.0267 184.07 16.24 184.83 16.24C185.577 16.24 186.157 16.0267 186.57 15.6C186.997 15.16 187.21 14.5067 187.21 13.64V5.5C187.21 5.35333 187.257 5.23333 187.35 5.14C187.457 5.04667 187.577 5 187.71 5H190.31C190.444 5 190.557 5.04667 190.65 5.14C190.757 5.23333 190.81 5.35333 190.81 5.5V13.66C190.81 14.9267 190.564 15.9733 190.07 16.8C189.577 17.6133 188.884 18.22 187.99 18.62C187.097 19.0067 186.044 19.2 184.83 19.2ZM193.35 19C193.243 19 193.143 18.96 193.05 18.88C192.97 18.7867 192.93 18.6867 192.93 18.58C192.93 18.5133 192.937 18.4533 192.95 18.4L197.65 5.56C197.69 5.41333 197.77 5.28667 197.89 5.18C198.023 5.06 198.203 5 198.43 5H201.39C201.617 5 201.79 5.06 201.91 5.18C202.043 5.28667 202.13 5.41333 202.17 5.56L206.85 18.4C206.877 18.4533 206.89 18.5133 206.89 18.58C206.89 18.6867 206.843 18.7867 206.75 18.88C206.67 18.96 206.57 19 206.45 19H203.99C203.79 19 203.637 18.9533 203.53 18.86C203.437 18.7533 203.377 18.66 203.35 18.58L202.57 16.54H197.23L196.47 18.58C196.443 18.66 196.383 18.7533 196.29 18.86C196.197 18.9533 196.037 19 195.81 19H193.35ZM198.05 13.66H201.77L199.89 8.38L198.05 13.66Z" fill="white"/>
<path d="M5.204 36.16C4.38267 36.16 3.69467 36.0053 3.14 35.696C2.596 35.376 2.18 34.928 1.892 34.352C1.61467 33.7653 1.46533 33.088 1.444 32.32C1.43333 32 1.428 31.68 1.428 31.36C1.428 31.04 1.43333 30.72 1.444 30.4C1.444 29.4293 1.524 28.624 1.684 27.984C1.844 27.344 2.084 26.8213 2.404 26.416C2.73467 26 3.15067 25.6587 3.652 25.392C4.15333 25.1253 4.74533 24.896 5.428 24.704C6.11067 24.5013 6.88933 24.288 7.764 24.064C7.86 24.0427 7.95067 24.0587 8.036 24.112C8.132 24.1653 8.18533 24.24 8.196 24.336L8.324 24.992C8.34533 25.088 8.32933 25.1733 8.276 25.248C8.23333 25.3227 8.164 25.3707 8.068 25.392C7.268 25.5947 6.56933 25.7707 5.972 25.92C5.37467 26.0693 4.87333 26.2453 4.468 26.448C4.06267 26.64 3.73733 26.8907 3.492 27.2C3.24667 27.5093 3.076 27.92 2.98 28.432C2.89467 28.944 2.868 29.6 2.9 30.4L2.548 30.256C2.60133 29.8613 2.76667 29.504 3.044 29.184C3.332 28.8533 3.68933 28.5867 4.116 28.384C4.54267 28.1813 4.996 28.08 5.476 28.08C6.212 28.08 6.83067 28.2347 7.332 28.544C7.844 28.8533 8.23333 29.2747 8.5 29.808C8.77733 30.3413 8.932 30.9547 8.964 31.648C8.98533 32.0107 8.98533 32.3253 8.964 32.592C8.932 33.2853 8.772 33.904 8.484 34.448C8.196 34.9813 7.78 35.4027 7.236 35.712C6.692 36.0107 6.01467 36.16 5.204 36.16ZM5.204 34.976C5.876 34.976 6.40933 34.768 6.804 34.352C7.19867 33.936 7.40667 33.328 7.428 32.528C7.43867 32.4213 7.444 32.2987 7.444 32.16C7.444 32.0213 7.43867 31.8773 7.428 31.728C7.40667 30.9173 7.19867 30.304 6.804 29.888C6.42 29.472 5.93467 29.264 5.348 29.264C4.676 29.264 4.12133 29.472 3.684 29.888C3.24667 30.304 3.012 30.9173 2.98 31.728C2.96933 31.8773 2.964 32.0213 2.964 32.16C2.964 32.2987 2.96933 32.4213 2.98 32.528C3.012 33.328 3.22533 33.936 3.62 34.352C4.01467 34.768 4.54267 34.976 5.204 34.976ZM15.8489 36C15.7422 36 15.6515 35.968 15.5769 35.904C15.5129 35.8293 15.4809 35.7387 15.4809 35.632V28.048C15.4809 27.9413 15.5129 27.856 15.5769 27.792C15.6515 27.7173 15.7422 27.68 15.8489 27.68H16.6169C16.7235 27.68 16.8089 27.7173 16.8729 27.792C16.9475 27.856 16.9849 27.9413 16.9849 28.048V30.4H18.6489C19.7369 30.4 20.5315 30.656 21.0329 31.168C21.5342 31.68 21.7849 32.3733 21.7849 33.248C21.7849 34.1867 21.5075 34.88 20.9529 35.328C20.3982 35.776 19.5662 36 18.4569 36H15.8489ZM16.9689 34.8H18.5049C19.1555 34.8 19.6302 34.688 19.9289 34.464C20.2275 34.2293 20.3769 33.824 20.3769 33.248C20.3769 32.6933 20.2329 32.2827 19.9449 32.016C19.6569 31.7387 19.1769 31.6 18.5049 31.6H16.9689V34.8ZM23.2889 36C23.1822 36 23.0915 35.968 23.0169 35.904C22.9529 35.8293 22.9209 35.7387 22.9209 35.632V28.048C22.9209 27.9413 22.9529 27.856 23.0169 27.792C23.0915 27.7173 23.1822 27.68 23.2889 27.68H24.0569C24.1635 27.68 24.2489 27.7173 24.3129 27.792C24.3875 27.856 24.4249 27.9413 24.4249 28.048V35.632C24.4249 35.7387 24.3875 35.8293 24.3129 35.904C24.2489 35.968 24.1635 36 24.0569 36H23.2889ZM34.669 36.16C33.9117 36.16 33.2557 36.016 32.701 35.728C32.157 35.4293 31.7357 35.008 31.437 34.464C31.1383 33.9093 30.9783 33.248 30.957 32.48C30.9463 32.32 30.941 32.1067 30.941 31.84C30.941 31.5733 30.9463 31.36 30.957 31.2C30.9783 30.432 31.1383 29.776 31.437 29.232C31.7357 28.6773 32.157 28.256 32.701 27.968C33.2557 27.6693 33.9117 27.52 34.669 27.52C35.2877 27.52 35.8157 27.6053 36.253 27.776C36.701 27.9467 37.069 28.1653 37.357 28.432C37.645 28.6987 37.8583 28.9867 37.997 29.296C38.1463 29.6053 38.2263 29.8987 38.237 30.176C38.2477 30.2827 38.2157 30.368 38.141 30.432C38.0663 30.496 37.9757 30.528 37.869 30.528H37.101C36.9943 30.528 36.9143 30.5067 36.861 30.464C36.8077 30.4107 36.7543 30.3253 36.701 30.208C36.509 29.6853 36.2477 29.3173 35.917 29.104C35.5863 28.8907 35.1757 28.784 34.685 28.784C34.045 28.784 33.5223 28.9813 33.117 29.376C32.7223 29.7707 32.509 30.4053 32.477 31.28C32.4663 31.664 32.4663 32.0373 32.477 32.4C32.509 33.2853 32.7223 33.9253 33.117 34.32C33.5223 34.704 34.045 34.896 34.685 34.896C35.1757 34.896 35.5863 34.7893 35.917 34.576C36.2477 34.3627 36.509 33.9947 36.701 33.472C36.7543 33.3547 36.8077 33.2747 36.861 33.232C36.9143 33.1787 36.9943 33.152 37.101 33.152H37.869C37.9757 33.152 38.0663 33.184 38.141 33.248C38.2157 33.312 38.2477 33.3973 38.237 33.504C38.2263 33.728 38.1783 33.9573 38.093 34.192C38.0077 34.4267 37.869 34.6667 37.677 34.912C37.4957 35.1467 37.2663 35.36 36.989 35.552C36.7117 35.7333 36.3757 35.8827 35.981 36C35.597 36.1067 35.1597 36.16 34.669 36.16ZM47.1811 36C47.0745 36 46.9838 35.968 46.9091 35.904C46.8451 35.8293 46.8131 35.7387 46.8131 35.632V28.96H44.0291C43.9225 28.96 43.8318 28.928 43.7571 28.864C43.6931 28.7893 43.6611 28.6987 43.6611 28.592V28.048C43.6611 27.9413 43.6931 27.856 43.7571 27.792C43.8318 27.7173 43.9225 27.68 44.0291 27.68H51.0691C51.1758 27.68 51.2611 27.7173 51.3251 27.792C51.3998 27.856 51.4371 27.9413 51.4371 28.048V28.592C51.4371 28.6987 51.3998 28.7893 51.3251 28.864C51.2611 28.928 51.1758 28.96 51.0691 28.96H48.2851V35.632C48.2851 35.7387 48.2531 35.8293 48.1891 35.904C48.1251 35.968 48.0345 36 47.9171 36H47.1811ZM57.7086 39.04C57.602 39.04 57.5113 39.0027 57.4366 38.928C57.3726 38.864 57.3406 38.7787 57.3406 38.672V28.048C57.3406 27.9413 57.3726 27.856 57.4366 27.792C57.5113 27.7173 57.602 27.68 57.7086 27.68H58.4446C58.5513 27.68 58.6366 27.7173 58.7006 27.792C58.7753 27.856 58.8126 27.9413 58.8126 28.048V28.752C59.0686 28.4 59.41 28.1067 59.8366 27.872C60.2633 27.6373 60.7966 27.52 61.4366 27.52C62.034 27.52 62.5406 27.6213 62.9566 27.824C63.3833 28.0267 63.73 28.304 63.9966 28.656C64.274 29.008 64.482 29.408 64.6206 29.856C64.7593 30.304 64.834 30.784 64.8446 31.296C64.8553 31.4667 64.8606 31.648 64.8606 31.84C64.8606 32.032 64.8553 32.2133 64.8446 32.384C64.834 32.8853 64.7593 33.3653 64.6206 33.824C64.482 34.272 64.274 34.672 63.9966 35.024C63.73 35.3653 63.3833 35.6427 62.9566 35.856C62.5406 36.0587 62.034 36.16 61.4366 36.16C60.818 36.16 60.2953 36.048 59.8686 35.824C59.4526 35.5893 59.1113 35.3013 58.8446 34.96V38.672C58.8446 38.7787 58.8126 38.864 58.7486 38.928C58.6846 39.0027 58.594 39.04 58.4766 39.04H57.7086ZM61.1006 34.864C61.6553 34.864 62.0873 34.7467 62.3966 34.512C62.7166 34.2667 62.946 33.952 63.0846 33.568C63.2233 33.1733 63.3033 32.752 63.3246 32.304C63.3353 31.9947 63.3353 31.6853 63.3246 31.376C63.3033 30.928 63.2233 30.512 63.0846 30.128C62.946 29.7333 62.7166 29.4187 62.3966 29.184C62.0873 28.9387 61.6553 28.816 61.1006 28.816C60.578 28.816 60.1513 28.9387 59.8206 29.184C59.5006 29.4293 59.2606 29.744 59.1006 30.128C58.9513 30.5013 58.866 30.8853 58.8446 31.28C58.834 31.4507 58.8286 31.6533 58.8286 31.888C58.8286 32.1227 58.834 32.3307 58.8446 32.512C58.8553 32.8853 58.9406 33.2533 59.1006 33.616C59.2713 33.9787 59.522 34.2773 59.8526 34.512C60.1833 34.7467 60.5993 34.864 61.1006 34.864ZM73.6759 36.16C73.1425 36.16 72.6572 36.0533 72.2199 35.84C71.7825 35.6267 71.4305 35.3387 71.1639 34.976C70.8972 34.6133 70.7639 34.2027 70.7639 33.744C70.7639 33.008 71.0625 32.4213 71.6599 31.984C72.2572 31.5467 73.0359 31.2587 73.9959 31.12L76.3799 30.784V30.32C76.3799 29.808 76.2305 29.408 75.9319 29.12C75.6439 28.832 75.1692 28.688 74.5079 28.688C74.0279 28.688 73.6385 28.784 73.3399 28.976C73.0519 29.168 72.8492 29.4133 72.7319 29.712C72.6679 29.872 72.5559 29.952 72.3959 29.952H71.6759C71.5585 29.952 71.4679 29.92 71.4039 29.856C71.3505 29.7813 71.3239 29.696 71.3239 29.6C71.3239 29.44 71.3825 29.2427 71.4999 29.008C71.6279 28.7733 71.8199 28.544 72.0759 28.32C72.3319 28.096 72.6572 27.9093 73.0519 27.76C73.4572 27.6 73.9479 27.52 74.5239 27.52C75.1639 27.52 75.7025 27.6053 76.1399 27.776C76.5772 27.936 76.9185 28.1547 77.1639 28.432C77.4199 28.7093 77.6012 29.024 77.7079 29.376C77.8252 29.728 77.8839 30.0853 77.8839 30.448V35.632C77.8839 35.7387 77.8465 35.8293 77.7719 35.904C77.7079 35.968 77.6225 36 77.5159 36H76.7799C76.6625 36 76.5719 35.968 76.5079 35.904C76.4439 35.8293 76.4119 35.7387 76.4119 35.632V34.944C76.2732 35.136 76.0865 35.328 75.8519 35.52C75.6172 35.7013 75.3239 35.856 74.9719 35.984C74.6199 36.1013 74.1879 36.16 73.6759 36.16ZM74.0119 34.96C74.4492 34.96 74.8492 34.8693 75.2119 34.688C75.5745 34.496 75.8572 34.2027 76.0599 33.808C76.2732 33.4133 76.3799 32.9173 76.3799 32.32V31.872L74.5239 32.144C73.7665 32.2507 73.1959 32.432 72.8119 32.688C72.4279 32.9333 72.2359 33.248 72.2359 33.632C72.2359 33.9307 72.3212 34.1813 72.4919 34.384C72.6732 34.576 72.8972 34.72 73.1639 34.816C73.4412 34.912 73.7239 34.96 74.0119 34.96ZM89.868 36C89.7507 36 89.66 35.968 89.596 35.904C89.532 35.8293 89.5 35.7387 89.5 35.632V33.024H87.66V32.944C86.6573 32.944 85.9107 32.6987 85.42 32.208C84.94 31.7067 84.7 31.072 84.7 30.304C84.7 29.408 84.9613 28.7467 85.484 28.32C86.0173 27.8933 86.8173 27.68 87.884 27.68H90.636C90.7427 27.68 90.828 27.7173 90.892 27.792C90.9667 27.856 91.004 27.9413 91.004 28.048V35.632C91.004 35.7387 90.9667 35.8293 90.892 35.904C90.828 35.968 90.7427 36 90.636 36H89.868ZM84.796 36C84.7 36 84.62 35.968 84.556 35.904C84.492 35.84 84.46 35.7653 84.46 35.68C84.46 35.6373 84.4653 35.5947 84.476 35.552C84.4973 35.4987 84.5293 35.4453 84.572 35.392L86.476 32.576L88.012 32.688L85.98 35.76C85.9373 35.8133 85.8787 35.8667 85.804 35.92C85.7293 35.9733 85.6493 36 85.564 36H84.796ZM87.708 31.824H89.516V28.88H87.836C87.2387 28.88 86.796 28.9867 86.508 29.2C86.2307 29.4027 86.092 29.7707 86.092 30.304C86.092 30.7413 86.22 31.104 86.476 31.392C86.7427 31.68 87.1533 31.824 87.708 31.824ZM105.829 37.76C105.722 37.76 105.632 37.7227 105.557 37.648C105.493 37.584 105.461 37.4987 105.461 37.392V35.088C105.461 34.9813 105.493 34.896 105.557 34.832C105.632 34.7573 105.722 34.72 105.829 34.72H105.909C106.197 34.7093 106.442 34.5493 106.645 34.24C106.848 33.92 107.002 33.424 107.109 32.752C107.216 32.0693 107.269 31.184 107.269 30.096V28.048C107.269 27.9413 107.301 27.856 107.365 27.792C107.44 27.7173 107.53 27.68 107.637 27.68H112.741C112.848 27.68 112.933 27.7173 112.997 27.792C113.072 27.856 113.109 27.9413 113.109 28.048V34.688H113.861C113.978 34.688 114.069 34.7253 114.133 34.8C114.197 34.864 114.229 34.9493 114.229 35.056V37.392C114.229 37.4987 114.197 37.584 114.133 37.648C114.069 37.7227 113.978 37.76 113.861 37.76H113.109C113.002 37.76 112.912 37.7227 112.837 37.648C112.773 37.584 112.741 37.4987 112.741 37.392V36H106.949V37.392C106.949 37.4987 106.912 37.584 106.837 37.648C106.773 37.7227 106.688 37.76 106.581 37.76H105.829ZM107.813 34.72L111.621 34.688V28.96H108.725V30.272C108.725 31.4027 108.645 32.3307 108.485 33.056C108.325 33.7707 108.101 34.3253 107.813 34.72ZM123.811 36.16C123 36.16 122.323 36.0053 121.779 35.696C121.235 35.3867 120.819 34.96 120.531 34.416C120.243 33.8613 120.083 33.232 120.051 32.528C120.04 32.3467 120.035 32.1173 120.035 31.84C120.035 31.552 120.04 31.3227 120.051 31.152C120.083 30.4373 120.243 29.808 120.531 29.264C120.829 28.72 121.251 28.2933 121.795 27.984C122.339 27.6747 123.011 27.52 123.811 27.52C124.611 27.52 125.283 27.6747 125.827 27.984C126.371 28.2933 126.787 28.72 127.075 29.264C127.373 29.808 127.539 30.4373 127.571 31.152C127.581 31.3227 127.587 31.552 127.587 31.84C127.587 32.1173 127.581 32.3467 127.571 32.528C127.539 33.232 127.379 33.8613 127.091 34.416C126.803 34.96 126.387 35.3867 125.843 35.696C125.299 36.0053 124.621 36.16 123.811 36.16ZM123.811 34.928C124.472 34.928 125 34.72 125.395 34.304C125.789 33.8773 126.003 33.2587 126.035 32.448C126.045 32.288 126.051 32.0853 126.051 31.84C126.051 31.5947 126.045 31.392 126.035 31.232C126.003 30.4213 125.789 29.808 125.395 29.392C125 28.9653 124.472 28.752 123.811 28.752C123.149 28.752 122.616 28.9653 122.211 29.392C121.816 29.808 121.608 30.4213 121.587 31.232C121.576 31.392 121.571 31.5947 121.571 31.84C121.571 32.0853 121.576 32.288 121.587 32.448C121.608 33.2587 121.816 33.8773 122.211 34.304C122.616 34.72 123.149 34.928 123.811 34.928ZM137.45 36.16C136.693 36.16 136.037 36.016 135.482 35.728C134.938 35.4293 134.517 35.008 134.218 34.464C133.92 33.9093 133.76 33.248 133.738 32.48C133.728 32.32 133.722 32.1067 133.722 31.84C133.722 31.5733 133.728 31.36 133.738 31.2C133.76 30.432 133.92 29.776 134.218 29.232C134.517 28.6773 134.938 28.256 135.482 27.968C136.037 27.6693 136.693 27.52 137.45 27.52C138.069 27.52 138.597 27.6053 139.034 27.776C139.482 27.9467 139.85 28.1653 140.138 28.432C140.426 28.6987 140.64 28.9867 140.778 29.296C140.928 29.6053 141.008 29.8987 141.018 30.176C141.029 30.2827 140.997 30.368 140.922 30.432C140.848 30.496 140.757 30.528 140.65 30.528H139.882C139.776 30.528 139.696 30.5067 139.642 30.464C139.589 30.4107 139.536 30.3253 139.482 30.208C139.29 29.6853 139.029 29.3173 138.698 29.104C138.368 28.8907 137.957 28.784 137.466 28.784C136.826 28.784 136.304 28.9813 135.898 29.376C135.504 29.7707 135.29 30.4053 135.258 31.28C135.248 31.664 135.248 32.0373 135.258 32.4C135.29 33.2853 135.504 33.9253 135.898 34.32C136.304 34.704 136.826 34.896 137.466 34.896C137.957 34.896 138.368 34.7893 138.698 34.576C139.029 34.3627 139.29 33.9947 139.482 33.472C139.536 33.3547 139.589 33.2747 139.642 33.232C139.696 33.1787 139.776 33.152 139.882 33.152H140.65C140.757 33.152 140.848 33.184 140.922 33.248C140.997 33.312 141.029 33.3973 141.018 33.504C141.008 33.728 140.96 33.9573 140.874 34.192C140.789 34.4267 140.65 34.6667 140.458 34.912C140.277 35.1467 140.048 35.36 139.77 35.552C139.493 35.7333 139.157 35.8827 138.762 36C138.378 36.1067 137.941 36.16 137.45 36.16ZM149.962 36C149.856 36 149.765 35.968 149.69 35.904C149.626 35.8293 149.594 35.7387 149.594 35.632V28.96H146.81C146.704 28.96 146.613 28.928 146.538 28.864C146.474 28.7893 146.442 28.6987 146.442 28.592V28.048C146.442 27.9413 146.474 27.856 146.538 27.792C146.613 27.7173 146.704 27.68 146.81 27.68H153.85C153.957 27.68 154.042 27.7173 154.106 27.792C154.181 27.856 154.218 27.9413 154.218 28.048V28.592C154.218 28.6987 154.181 28.7893 154.106 28.864C154.042 28.928 153.957 28.96 153.85 28.96H151.066V35.632C151.066 35.7387 151.034 35.8293 150.97 35.904C150.906 35.968 150.816 36 150.698 36H149.962ZM162.426 36.16C161.893 36.16 161.407 36.0533 160.97 35.84C160.533 35.6267 160.181 35.3387 159.914 34.976C159.647 34.6133 159.514 34.2027 159.514 33.744C159.514 33.008 159.813 32.4213 160.41 31.984C161.007 31.5467 161.786 31.2587 162.746 31.12L165.13 30.784V30.32C165.13 29.808 164.981 29.408 164.682 29.12C164.394 28.832 163.919 28.688 163.258 28.688C162.778 28.688 162.389 28.784 162.09 28.976C161.802 29.168 161.599 29.4133 161.482 29.712C161.418 29.872 161.306 29.952 161.146 29.952H160.426C160.309 29.952 160.218 29.92 160.154 29.856C160.101 29.7813 160.074 29.696 160.074 29.6C160.074 29.44 160.133 29.2427 160.25 29.008C160.378 28.7733 160.57 28.544 160.826 28.32C161.082 28.096 161.407 27.9093 161.802 27.76C162.207 27.6 162.698 27.52 163.274 27.52C163.914 27.52 164.453 27.6053 164.89 27.776C165.327 27.936 165.669 28.1547 165.914 28.432C166.17 28.7093 166.351 29.024 166.458 29.376C166.575 29.728 166.634 30.0853 166.634 30.448V35.632C166.634 35.7387 166.597 35.8293 166.522 35.904C166.458 35.968 166.373 36 166.266 36H165.53C165.413 36 165.322 35.968 165.258 35.904C165.194 35.8293 165.162 35.7387 165.162 35.632V34.944C165.023 35.136 164.837 35.328 164.602 35.52C164.367 35.7013 164.074 35.856 163.722 35.984C163.37 36.1013 162.938 36.16 162.426 36.16ZM162.762 34.96C163.199 34.96 163.599 34.8693 163.962 34.688C164.325 34.496 164.607 34.2027 164.81 33.808C165.023 33.4133 165.13 32.9173 165.13 32.32V31.872L163.274 32.144C162.517 32.2507 161.946 32.432 161.562 32.688C161.178 32.9333 160.986 33.248 160.986 33.632C160.986 33.9307 161.071 34.1813 161.242 34.384C161.423 34.576 161.647 34.72 161.914 34.816C162.191 34.912 162.474 34.96 162.762 34.96ZM173.802 36C173.695 36 173.605 35.968 173.53 35.904C173.466 35.8293 173.434 35.7387 173.434 35.632V28.048C173.434 27.9413 173.466 27.856 173.53 27.792C173.605 27.7173 173.695 27.68 173.802 27.68H177.13C178.133 27.68 178.885 27.8827 179.386 28.288C179.898 28.6933 180.154 29.2373 180.154 29.92C180.154 30.4 180.063 30.7627 179.882 31.008C179.701 31.2533 179.445 31.4613 179.114 31.632C179.519 31.8027 179.823 32.08 180.026 32.464C180.239 32.8373 180.346 33.2267 180.346 33.632C180.346 34.4 180.074 34.9867 179.53 35.392C178.986 35.7973 178.229 36 177.258 36H173.802ZM174.906 34.832H177.13C177.642 34.832 178.053 34.736 178.362 34.544C178.682 34.3413 178.842 34.0373 178.842 33.632C178.842 33.2053 178.698 32.896 178.41 32.704C178.122 32.5013 177.695 32.4 177.13 32.4H174.906V34.832ZM174.906 31.216H177.034C177.546 31.216 177.951 31.104 178.25 30.88C178.559 30.656 178.714 30.3413 178.714 29.936C178.714 29.52 178.559 29.2373 178.25 29.088C177.951 28.928 177.546 28.848 177.034 28.848H174.906V31.216ZM187.271 36C187.164 36 187.073 35.968 186.999 35.904C186.935 35.8293 186.903 35.7387 186.903 35.632V28.048C186.903 27.9413 186.935 27.856 186.999 27.792C187.073 27.7173 187.164 27.68 187.271 27.68H188.023C188.129 27.68 188.215 27.7173 188.279 27.792C188.353 27.856 188.391 27.9413 188.391 28.048V31.12H189.847L192.007 27.92C192.06 27.8453 192.119 27.7867 192.183 27.744C192.247 27.7013 192.332 27.68 192.439 27.68H193.271C193.367 27.68 193.447 27.7013 193.511 27.744C193.575 27.7867 193.607 27.8507 193.607 27.936C193.607 27.9573 193.596 27.9893 193.575 28.032C193.564 28.064 193.548 28.096 193.527 28.128L191.127 31.664L193.847 35.536C193.9 35.6 193.927 35.6693 193.927 35.744C193.927 35.8293 193.895 35.8933 193.831 35.936C193.777 35.9787 193.703 36 193.607 36H192.631C192.535 36 192.455 35.9787 192.391 35.936C192.327 35.8933 192.268 35.8347 192.215 35.76L189.863 32.416H188.391V35.632C188.391 35.7387 188.353 35.8293 188.279 35.904C188.215 35.968 188.129 36 188.023 36H187.271ZM202.301 36.16C201.768 36.16 201.282 36.0533 200.845 35.84C200.408 35.6267 200.056 35.3387 199.789 34.976C199.522 34.6133 199.389 34.2027 199.389 33.744C199.389 33.008 199.688 32.4213 200.285 31.984C200.882 31.5467 201.661 31.2587 202.621 31.12L205.005 30.784V30.32C205.005 29.808 204.856 29.408 204.557 29.12C204.269 28.832 203.794 28.688 203.133 28.688C202.653 28.688 202.264 28.784 201.965 28.976C201.677 29.168 201.474 29.4133 201.357 29.712C201.293 29.872 201.181 29.952 201.021 29.952H200.301C200.184 29.952 200.093 29.92 200.029 29.856C199.976 29.7813 199.949 29.696 199.949 29.6C199.949 29.44 200.008 29.2427 200.125 29.008C200.253 28.7733 200.445 28.544 200.701 28.32C200.957 28.096 201.282 27.9093 201.677 27.76C202.082 27.6 202.573 27.52 203.149 27.52C203.789 27.52 204.328 27.6053 204.765 27.776C205.202 27.936 205.544 28.1547 205.789 28.432C206.045 28.7093 206.226 29.024 206.333 29.376C206.45 29.728 206.509 30.0853 206.509 30.448V35.632C206.509 35.7387 206.472 35.8293 206.397 35.904C206.333 35.968 206.248 36 206.141 36H205.405C205.288 36 205.197 35.968 205.133 35.904C205.069 35.8293 205.037 35.7387 205.037 35.632V34.944C204.898 35.136 204.712 35.328 204.477 35.52C204.242 35.7013 203.949 35.856 203.597 35.984C203.245 36.1013 202.813 36.16 202.301 36.16ZM202.637 34.96C203.074 34.96 203.474 34.8693 203.837 34.688C204.2 34.496 204.482 34.2027 204.685 33.808C204.898 33.4133 205.005 32.9173 205.005 32.32V31.872L203.149 32.144C202.392 32.2507 201.821 32.432 201.437 32.688C201.053 32.9333 200.861 33.248 200.861 33.632C200.861 33.9307 200.946 34.1813 201.117 34.384C201.298 34.576 201.522 34.72 201.789 34.816C202.066 34.912 202.349 34.96 202.637 34.96Z" fill="white" fill-opacity="0.7"/>
</svg>
